G04 (created by PCBNEW (2013-07-07 BZR 4022)-stable) date 12/18/2014 6:53:03 AM*
%MOIN*%
G04 Gerber Fmt 3.4, Leading zero omitted, Abs format*
%FSLAX34Y34*%
G01*
G70*
G90*
G04 APERTURE LIST*
%ADD10C,0.00590551*%
%ADD11C,0.09*%
%ADD12R,0.023622X0.0590551*%
%ADD13R,0.03X0.02*%
%ADD14R,0.0315X0.0394*%
%ADD15R,0.08X0.06*%
%ADD16R,0.06X0.08*%
%ADD17R,0.035X0.055*%
%ADD18R,0.055X0.035*%
%ADD19R,0.045X0.025*%
%ADD20R,0.025X0.045*%
%ADD21R,0.0590551X0.0590551*%
G04 APERTURE END LIST*
G54D10*
G54D11*
X83010Y-45680D03*
X73780Y-45640D03*
G54D12*
X74228Y-54287D03*
X74728Y-54287D03*
X75228Y-54287D03*
X75728Y-54287D03*
X76228Y-54287D03*
X76728Y-54287D03*
X77228Y-54287D03*
X77228Y-56412D03*
X76728Y-56412D03*
X76228Y-56412D03*
X75728Y-56412D03*
X75228Y-56412D03*
X74728Y-56412D03*
X74228Y-56412D03*
G54D13*
X76680Y-64555D03*
X76680Y-65305D03*
X75680Y-64555D03*
X76680Y-64930D03*
X75680Y-65305D03*
G54D14*
X78550Y-64417D03*
X78175Y-65283D03*
X78925Y-65283D03*
G54D15*
X78400Y-49450D03*
X78400Y-50750D03*
G54D10*
G36*
X77288Y-48145D02*
X77854Y-48711D01*
X77430Y-49135D01*
X76864Y-48569D01*
X77288Y-48145D01*
X77288Y-48145D01*
G37*
G36*
X76369Y-49064D02*
X76935Y-49630D01*
X76511Y-50054D01*
X75945Y-49488D01*
X76369Y-49064D01*
X76369Y-49064D01*
G37*
G36*
X78945Y-48711D02*
X79511Y-48145D01*
X79935Y-48569D01*
X79369Y-49135D01*
X78945Y-48711D01*
X78945Y-48711D01*
G37*
G36*
X79864Y-49630D02*
X80430Y-49064D01*
X80854Y-49488D01*
X80288Y-50054D01*
X79864Y-49630D01*
X79864Y-49630D01*
G37*
G54D16*
X80250Y-47600D03*
X81550Y-47600D03*
G54D10*
G36*
X79511Y-47054D02*
X78945Y-46488D01*
X79369Y-46064D01*
X79935Y-46630D01*
X79511Y-47054D01*
X79511Y-47054D01*
G37*
G36*
X80430Y-46135D02*
X79864Y-45569D01*
X80288Y-45145D01*
X80854Y-45711D01*
X80430Y-46135D01*
X80430Y-46135D01*
G37*
G54D15*
X78400Y-45750D03*
X78400Y-44450D03*
G54D10*
G36*
X77854Y-46488D02*
X77288Y-47054D01*
X76864Y-46630D01*
X77430Y-46064D01*
X77854Y-46488D01*
X77854Y-46488D01*
G37*
G36*
X76935Y-45569D02*
X76369Y-46135D01*
X75945Y-45711D01*
X76511Y-45145D01*
X76935Y-45569D01*
X76935Y-45569D01*
G37*
G54D16*
X76550Y-47600D03*
X75250Y-47600D03*
G54D17*
X76635Y-63820D03*
X75885Y-63820D03*
G54D18*
X81600Y-53075D03*
X81600Y-52325D03*
G54D17*
X75225Y-53250D03*
X74475Y-53250D03*
G54D18*
X79900Y-65175D03*
X79900Y-64425D03*
X79140Y-60045D03*
X79140Y-60795D03*
X77930Y-60055D03*
X77930Y-60805D03*
G54D19*
X82000Y-62250D03*
X82000Y-61650D03*
X79500Y-61650D03*
X79500Y-62250D03*
X80060Y-69870D03*
X80060Y-69270D03*
X82700Y-61650D03*
X82700Y-62250D03*
X80200Y-61650D03*
X80200Y-62250D03*
X80900Y-62250D03*
X80900Y-61650D03*
X79500Y-58050D03*
X79500Y-57450D03*
X79400Y-58750D03*
X79400Y-59350D03*
X79070Y-69880D03*
X79070Y-69280D03*
X80200Y-58050D03*
X80200Y-57450D03*
X80900Y-57450D03*
X80900Y-58050D03*
X83400Y-58050D03*
X83400Y-57450D03*
X83600Y-58650D03*
X83600Y-59250D03*
X78070Y-69890D03*
X78070Y-69290D03*
X80750Y-65800D03*
X80750Y-65200D03*
X82700Y-58050D03*
X82700Y-57450D03*
X82000Y-57450D03*
X82000Y-58050D03*
X77070Y-69890D03*
X77070Y-69290D03*
X83400Y-62850D03*
X83400Y-63450D03*
X77050Y-58150D03*
X77050Y-57550D03*
X83400Y-61650D03*
X83400Y-62250D03*
G54D20*
X73730Y-59490D03*
X73130Y-59490D03*
G54D19*
X74850Y-66050D03*
X74850Y-65450D03*
X74850Y-64950D03*
X74850Y-64350D03*
X73550Y-62950D03*
X73550Y-63550D03*
X73550Y-61750D03*
X73550Y-62350D03*
X84050Y-69850D03*
X84050Y-69250D03*
X74450Y-61750D03*
X74450Y-62350D03*
X75150Y-62350D03*
X75150Y-61750D03*
X79500Y-62850D03*
X79500Y-63450D03*
G54D20*
X73130Y-58810D03*
X73730Y-58810D03*
G54D19*
X83100Y-69850D03*
X83100Y-69250D03*
X74450Y-58150D03*
X74450Y-57550D03*
X75150Y-57550D03*
X75150Y-58150D03*
X77810Y-57030D03*
X77810Y-56430D03*
X77850Y-58850D03*
X77850Y-59450D03*
X82060Y-69850D03*
X82060Y-69250D03*
X76350Y-57550D03*
X76350Y-58150D03*
X77650Y-62950D03*
X77650Y-63550D03*
X77650Y-61750D03*
X77650Y-62350D03*
X81080Y-69850D03*
X81080Y-69250D03*
X76950Y-61750D03*
X76950Y-62350D03*
X76250Y-62350D03*
X76250Y-61750D03*
G54D21*
X84060Y-70730D03*
X83060Y-70730D03*
X82060Y-70730D03*
X81060Y-70730D03*
X80060Y-70730D03*
X79060Y-70730D03*
X78060Y-70730D03*
X77060Y-70730D03*
X76060Y-70730D03*
X75060Y-70730D03*
X74060Y-70730D03*
X73060Y-70730D03*
G54D12*
X74228Y-58887D03*
X74728Y-58887D03*
X75228Y-58887D03*
X75728Y-58887D03*
X76228Y-58887D03*
X76728Y-58887D03*
X77228Y-58887D03*
X77228Y-61012D03*
X76728Y-61012D03*
X76228Y-61012D03*
X75728Y-61012D03*
X75228Y-61012D03*
X74728Y-61012D03*
X74228Y-61012D03*
X79978Y-54187D03*
X80478Y-54187D03*
X80978Y-54187D03*
X81478Y-54187D03*
X81978Y-54187D03*
X82478Y-54187D03*
X82978Y-54187D03*
X82978Y-56312D03*
X82478Y-56312D03*
X81978Y-56312D03*
X81478Y-56312D03*
X80978Y-56312D03*
X80478Y-56312D03*
X79978Y-56312D03*
X79978Y-58787D03*
X80478Y-58787D03*
X80978Y-58787D03*
X81478Y-58787D03*
X81978Y-58787D03*
X82478Y-58787D03*
X82978Y-58787D03*
X82978Y-60912D03*
X82478Y-60912D03*
X81978Y-60912D03*
X81478Y-60912D03*
X80978Y-60912D03*
X80478Y-60912D03*
X79978Y-60912D03*
M02*
