G04 (created by PCBNEW (2013-07-07 BZR 4022)-stable) date 12/18/2014 6:53:03 AM*
%MOIN*%
G04 Gerber Fmt 3.4, Leading zero omitted, Abs format*
%FSLAX34Y34*%
G01*
G70*
G90*
G04 APERTURE LIST*
%ADD10C,0.00590551*%
%ADD11C,0.09*%
%ADD12R,0.055X0.035*%
%ADD13R,0.025X0.045*%
%ADD14R,0.045X0.025*%
%ADD15R,0.0590551X0.0590551*%
%ADD16C,0.045*%
%ADD17C,0.035*%
%ADD18C,0.03*%
%ADD19C,0.01*%
%ADD20C,0.007*%
G04 APERTURE END LIST*
G54D10*
G54D11*
X83010Y-45680D03*
X73780Y-45640D03*
G54D12*
X81060Y-71375D03*
X81060Y-72125D03*
X80070Y-71375D03*
X80070Y-72125D03*
X82060Y-71375D03*
X82060Y-72125D03*
X79070Y-71375D03*
X79070Y-72125D03*
X83060Y-71375D03*
X83060Y-72125D03*
X78060Y-71375D03*
X78060Y-72125D03*
X84060Y-71375D03*
X84060Y-72125D03*
X77070Y-71375D03*
X77070Y-72125D03*
G54D10*
G36*
X75041Y-43640D02*
X75359Y-43958D01*
X75182Y-44135D01*
X74864Y-43817D01*
X75041Y-43640D01*
X75041Y-43640D01*
G37*
G36*
X74617Y-44064D02*
X74935Y-44382D01*
X74758Y-44559D01*
X74440Y-44241D01*
X74617Y-44064D01*
X74617Y-44064D01*
G37*
G54D13*
X78100Y-42600D03*
X78700Y-42600D03*
G54D10*
G36*
X81440Y-43958D02*
X81758Y-43640D01*
X81935Y-43817D01*
X81617Y-44135D01*
X81440Y-43958D01*
X81440Y-43958D01*
G37*
G36*
X81864Y-44382D02*
X82182Y-44064D01*
X82359Y-44241D01*
X82041Y-44559D01*
X81864Y-44382D01*
X81864Y-44382D01*
G37*
G54D14*
X83400Y-47900D03*
X83400Y-47300D03*
G54D10*
G36*
X81758Y-51559D02*
X81440Y-51241D01*
X81617Y-51064D01*
X81935Y-51382D01*
X81758Y-51559D01*
X81758Y-51559D01*
G37*
G36*
X82182Y-51135D02*
X81864Y-50817D01*
X82041Y-50640D01*
X82359Y-50958D01*
X82182Y-51135D01*
X82182Y-51135D01*
G37*
G54D13*
X78100Y-52600D03*
X78700Y-52600D03*
G54D10*
G36*
X74440Y-50958D02*
X74758Y-50640D01*
X74935Y-50817D01*
X74617Y-51135D01*
X74440Y-50958D01*
X74440Y-50958D01*
G37*
G36*
X74864Y-51382D02*
X75182Y-51064D01*
X75359Y-51241D01*
X75041Y-51559D01*
X74864Y-51382D01*
X74864Y-51382D01*
G37*
G54D14*
X73400Y-47900D03*
X73400Y-47300D03*
G54D15*
X84060Y-70730D03*
X83060Y-70730D03*
X82060Y-70730D03*
X81060Y-70730D03*
X80060Y-70730D03*
X79060Y-70730D03*
X78060Y-70730D03*
X77060Y-70730D03*
X76060Y-70730D03*
X75060Y-70730D03*
X74060Y-70730D03*
X73060Y-70730D03*
G54D16*
X78400Y-47600D03*
X82950Y-53300D03*
X82900Y-64380D03*
X74470Y-63670D03*
X73220Y-53300D03*
G54D17*
X78970Y-66130D03*
X78570Y-67440D03*
X77270Y-55520D03*
X81320Y-46060D03*
X79750Y-43600D03*
X75120Y-46620D03*
X83810Y-55560D03*
X75720Y-62770D03*
X75180Y-63770D03*
X72980Y-55230D03*
X79020Y-63920D03*
X79340Y-64860D03*
X75750Y-57550D03*
X75750Y-60300D03*
X72710Y-53880D03*
X83800Y-52700D03*
X79550Y-53100D03*
X82450Y-52700D03*
X81500Y-57450D03*
X81500Y-60250D03*
X82510Y-67840D03*
X79990Y-60370D03*
X74190Y-66930D03*
X73650Y-57900D03*
X81090Y-68210D03*
X76970Y-60240D03*
X83470Y-60860D03*
X83660Y-68200D03*
X82850Y-68530D03*
X77390Y-68490D03*
X79090Y-68750D03*
X80860Y-59570D03*
X83330Y-64850D03*
X82680Y-65890D03*
X82490Y-67300D03*
X82420Y-59770D03*
X74050Y-51900D03*
X74500Y-47600D03*
X75800Y-52500D03*
X75900Y-45100D03*
X76250Y-55450D03*
X78400Y-43800D03*
X82000Y-55450D03*
X78400Y-51500D03*
X80550Y-55400D03*
X78850Y-54150D03*
X75900Y-50100D03*
X75250Y-55800D03*
X80900Y-45100D03*
X80950Y-53450D03*
X82300Y-47600D03*
X81950Y-53550D03*
X80900Y-50100D03*
X78350Y-58370D03*
X82050Y-68200D03*
X74740Y-54800D03*
X75250Y-60330D03*
X74550Y-63050D03*
X74450Y-57050D03*
X78470Y-62860D03*
X79380Y-53880D03*
X82500Y-54950D03*
X79500Y-56850D03*
X79250Y-56270D03*
X80190Y-63290D03*
X77480Y-64090D03*
X75060Y-69450D03*
X73260Y-60430D03*
X73370Y-55810D03*
X78350Y-55050D03*
X79400Y-55350D03*
X80190Y-56970D03*
X80800Y-63070D03*
X78470Y-56780D03*
X78340Y-57770D03*
X76125Y-64785D03*
X76960Y-63000D03*
X76800Y-57100D03*
G54D16*
X78160Y-66060D03*
X77530Y-67440D03*
G54D18*
X82950Y-53300D02*
X82950Y-58510D01*
X82060Y-63540D02*
X82900Y-64380D01*
X82060Y-60980D02*
X82060Y-63540D01*
X81980Y-60900D02*
X82060Y-60980D01*
X81980Y-59480D02*
X81980Y-60900D01*
X82950Y-58510D02*
X81980Y-59480D01*
X73220Y-53300D02*
X73220Y-54690D01*
X73220Y-54690D02*
X73850Y-55320D01*
X73850Y-55320D02*
X73850Y-57340D01*
X73850Y-57340D02*
X74090Y-57580D01*
X74090Y-57580D02*
X74090Y-63290D01*
X74090Y-63290D02*
X74470Y-63670D01*
G54D19*
X78970Y-67040D02*
X78970Y-66130D01*
X78570Y-67440D02*
X78970Y-67040D01*
G54D20*
X83400Y-47300D02*
X82750Y-47300D01*
X81320Y-45104D02*
X82112Y-44312D01*
X81320Y-46440D02*
X81320Y-46060D01*
X81320Y-46060D02*
X81320Y-45104D01*
X81940Y-47060D02*
X81320Y-46440D01*
X82510Y-47060D02*
X81940Y-47060D01*
X82750Y-47300D02*
X82510Y-47060D01*
X78750Y-42600D02*
X79750Y-43600D01*
X78750Y-42600D02*
X78700Y-42600D01*
G54D18*
X75145Y-46595D02*
X75145Y-46585D01*
X75120Y-46620D02*
X75145Y-46595D01*
G54D20*
X74687Y-44312D02*
X74687Y-44387D01*
X74687Y-44387D02*
X75310Y-45010D01*
X75310Y-45010D02*
X75310Y-46420D01*
X75310Y-46420D02*
X75145Y-46585D01*
X73880Y-46820D02*
X73400Y-47300D01*
X75145Y-46585D02*
X74910Y-46820D01*
X74910Y-46820D02*
X73880Y-46820D01*
G54D18*
X73060Y-70730D02*
X73060Y-70510D01*
X84110Y-60770D02*
X84110Y-68630D01*
X83800Y-60460D02*
X84110Y-60770D01*
X83800Y-60460D02*
X83800Y-55560D01*
X84110Y-69340D02*
X84110Y-68630D01*
X83350Y-70100D02*
X84110Y-69340D01*
X73470Y-70100D02*
X83350Y-70100D01*
X73060Y-70510D02*
X73470Y-70100D01*
G54D19*
X77070Y-72125D02*
X78060Y-72125D01*
X78060Y-72125D02*
X79070Y-72125D01*
X79070Y-72125D02*
X80070Y-72125D01*
X80070Y-72125D02*
X81060Y-72125D01*
X81060Y-72125D02*
X82060Y-72125D01*
X82060Y-72125D02*
X83060Y-72125D01*
X83060Y-72125D02*
X84060Y-72125D01*
X73060Y-70730D02*
X73060Y-71390D01*
X73795Y-72125D02*
X77070Y-72125D01*
X73060Y-71390D02*
X73795Y-72125D01*
X83810Y-55560D02*
X83800Y-55550D01*
X83800Y-55550D02*
X83800Y-55560D01*
X75720Y-63230D02*
X75720Y-62770D01*
X75180Y-63770D02*
X75720Y-63230D01*
G54D18*
X73060Y-70440D02*
X73060Y-70730D01*
X83800Y-52900D02*
X83800Y-55560D01*
X83800Y-52700D02*
X83800Y-52900D01*
X72980Y-55230D02*
X72790Y-55420D01*
X72790Y-55420D02*
X72790Y-69390D01*
X72790Y-69390D02*
X73060Y-69660D01*
X73060Y-69660D02*
X73060Y-70730D01*
G54D19*
X79020Y-63920D02*
X79340Y-64240D01*
X79340Y-64240D02*
X79340Y-64860D01*
X75750Y-60300D02*
X75750Y-57550D01*
G54D20*
X75112Y-51312D02*
X75112Y-51687D01*
G54D19*
X72710Y-52940D02*
X72710Y-53880D01*
X73550Y-52600D02*
X72710Y-52940D01*
X74200Y-52600D02*
X73550Y-52600D01*
G54D20*
X75112Y-51687D02*
X74200Y-52600D01*
G54D18*
X83800Y-52700D02*
X83550Y-52700D01*
X83550Y-52700D02*
X83600Y-52700D01*
X83600Y-52700D02*
X82450Y-52700D01*
G54D20*
X82112Y-50887D02*
X82112Y-50912D01*
X82112Y-50912D02*
X82450Y-51250D01*
X82450Y-51250D02*
X82450Y-52700D01*
X78700Y-52600D02*
X79050Y-52600D01*
X79050Y-52600D02*
X79550Y-53100D01*
G54D19*
X81500Y-60250D02*
X81500Y-57450D01*
X82510Y-67840D02*
X83030Y-67320D01*
X83030Y-67320D02*
X83030Y-65620D01*
X83030Y-65620D02*
X81510Y-64100D01*
X81510Y-64100D02*
X81510Y-61300D01*
X81510Y-61300D02*
X80570Y-60360D01*
X80570Y-60360D02*
X79990Y-60370D01*
X74185Y-66925D02*
X74185Y-66915D01*
X74190Y-66930D02*
X74185Y-66925D01*
X73650Y-57900D02*
X73640Y-57910D01*
X73640Y-57910D02*
X73640Y-66370D01*
X73640Y-66370D02*
X74185Y-66915D01*
X74185Y-66915D02*
X74210Y-66940D01*
X81090Y-68210D02*
X81090Y-66870D01*
X79580Y-65950D02*
X79400Y-65950D01*
X79400Y-65950D02*
X78290Y-64840D01*
X78290Y-64840D02*
X78290Y-63220D01*
X78290Y-63220D02*
X76970Y-61900D01*
X76970Y-61900D02*
X76970Y-60240D01*
X80170Y-65950D02*
X79580Y-65950D01*
X81090Y-66870D02*
X80170Y-65950D01*
X83780Y-61170D02*
X83470Y-60860D01*
X83780Y-68080D02*
X83780Y-61170D01*
X83660Y-68200D02*
X83780Y-68080D01*
X82710Y-68670D02*
X82850Y-68530D01*
X80480Y-68670D02*
X82710Y-68670D01*
X80000Y-68190D02*
X80480Y-68670D01*
X77690Y-68190D02*
X80000Y-68190D01*
X77390Y-68490D02*
X77690Y-68190D01*
X83240Y-67950D02*
X83240Y-68640D01*
X82170Y-69290D02*
X79630Y-69290D01*
X79630Y-69290D02*
X79090Y-68750D01*
X83240Y-65520D02*
X83240Y-67950D01*
X81716Y-63996D02*
X83240Y-65520D01*
X81716Y-61186D02*
X81716Y-63996D01*
X81150Y-60620D02*
X81716Y-61186D01*
X81150Y-59860D02*
X81150Y-60620D01*
X80860Y-59570D02*
X81150Y-59860D01*
X82590Y-69290D02*
X82170Y-69290D01*
X83240Y-68640D02*
X82590Y-69290D01*
X83330Y-64850D02*
X83330Y-63740D01*
X82630Y-65940D02*
X82680Y-65890D01*
X82630Y-67160D02*
X82630Y-65940D01*
X82490Y-67300D02*
X82630Y-67160D01*
X82420Y-62830D02*
X82420Y-59770D01*
X83330Y-63740D02*
X82420Y-62830D01*
X73800Y-51200D02*
X73800Y-51000D01*
X74050Y-51450D02*
X73800Y-51200D01*
X74050Y-51900D02*
X74050Y-51450D01*
X74500Y-47600D02*
X74500Y-49900D01*
X74500Y-49900D02*
X73800Y-50600D01*
X73800Y-50600D02*
X73800Y-51000D01*
X73800Y-51000D02*
X73800Y-51000D01*
G54D20*
X74200Y-47900D02*
X73400Y-47900D01*
X74500Y-47600D02*
X74200Y-47900D01*
X75900Y-45100D02*
X75900Y-44675D01*
X75900Y-44675D02*
X75112Y-43887D01*
G54D19*
X75900Y-45100D02*
X75900Y-49300D01*
X76600Y-51800D02*
X75800Y-52500D01*
X76600Y-50000D02*
X76600Y-51800D01*
X75900Y-49300D02*
X76600Y-50000D01*
X76250Y-55450D02*
X76250Y-52650D01*
X78900Y-47100D02*
X78900Y-47900D01*
X78900Y-47900D02*
X78900Y-48000D01*
X78900Y-48000D02*
X78400Y-48200D01*
X78400Y-43800D02*
X78400Y-46800D01*
X78400Y-48200D02*
X78400Y-50200D01*
X78400Y-50200D02*
X77200Y-51400D01*
X78400Y-46800D02*
X78900Y-47100D01*
X77200Y-51700D02*
X77200Y-51400D01*
X76250Y-52650D02*
X77200Y-51700D01*
G54D20*
X78100Y-42600D02*
X78100Y-43500D01*
X78100Y-43500D02*
X78400Y-43800D01*
G54D19*
X78400Y-51500D02*
X78500Y-51500D01*
X81250Y-55450D02*
X82000Y-55450D01*
X80750Y-54950D02*
X81250Y-55450D01*
X80750Y-53750D02*
X80750Y-54950D01*
X78500Y-51500D02*
X80750Y-53750D01*
G54D20*
X78100Y-51800D02*
X78100Y-52600D01*
X78400Y-51500D02*
X78100Y-51800D01*
G54D19*
X80100Y-55400D02*
X80550Y-55400D01*
X78850Y-54150D02*
X80100Y-55400D01*
X74687Y-50812D02*
X74687Y-50887D01*
G54D20*
X75400Y-50100D02*
X74687Y-50812D01*
X75900Y-50100D02*
X75400Y-50100D01*
G54D19*
X77600Y-51700D02*
X77600Y-51750D01*
X80900Y-47950D02*
X79100Y-49750D01*
X79100Y-49750D02*
X79100Y-50200D01*
X79100Y-50200D02*
X77600Y-51700D01*
X80900Y-45100D02*
X80900Y-47950D01*
X76400Y-55800D02*
X75250Y-55800D01*
X76650Y-55550D02*
X76400Y-55800D01*
X76650Y-52700D02*
X76650Y-55550D01*
X77600Y-51750D02*
X76650Y-52700D01*
G54D20*
X81612Y-43887D02*
X81687Y-43887D01*
X80900Y-44600D02*
X81612Y-43887D01*
X80900Y-45100D02*
X80900Y-44600D01*
G54D19*
X82300Y-47600D02*
X82300Y-47950D01*
X79550Y-52050D02*
X80950Y-53450D01*
X79550Y-49600D02*
X79550Y-52050D01*
X80450Y-48700D02*
X79550Y-49600D01*
X81550Y-48700D02*
X80450Y-48700D01*
X82300Y-47950D02*
X81550Y-48700D01*
G54D20*
X82300Y-47600D02*
X82600Y-47900D01*
X82600Y-47900D02*
X83400Y-47900D01*
G54D19*
X80900Y-50100D02*
X80250Y-50750D01*
X81600Y-53550D02*
X81950Y-53550D01*
X80250Y-52200D02*
X81600Y-53550D01*
X80250Y-50750D02*
X80250Y-52200D01*
G54D20*
X81100Y-50724D02*
X81687Y-51312D01*
X81100Y-50300D02*
X81100Y-50724D01*
X80900Y-50100D02*
X81100Y-50300D01*
G54D19*
X82050Y-68200D02*
X82050Y-66580D01*
X78350Y-58370D02*
X78550Y-58570D01*
X78550Y-58570D02*
X78550Y-59660D01*
X78550Y-62270D02*
X78550Y-59660D01*
X78930Y-62650D02*
X78550Y-62270D01*
X78930Y-63290D02*
X78930Y-62650D01*
X78650Y-63570D02*
X78930Y-63290D01*
X78650Y-64880D02*
X78650Y-63570D01*
X79500Y-65730D02*
X78650Y-64880D01*
X80190Y-65730D02*
X79500Y-65730D01*
X81200Y-65730D02*
X80190Y-65730D01*
X82050Y-66580D02*
X81200Y-65730D01*
X84060Y-70730D02*
X84060Y-71375D01*
X83060Y-70730D02*
X83060Y-71375D01*
X82060Y-70730D02*
X82060Y-71375D01*
X81060Y-70730D02*
X81060Y-71375D01*
X80060Y-70730D02*
X80060Y-71365D01*
X80060Y-71365D02*
X80070Y-71375D01*
X79060Y-70730D02*
X79060Y-71365D01*
X79060Y-71365D02*
X79070Y-71375D01*
X78060Y-70730D02*
X78060Y-71375D01*
X77070Y-71375D02*
X77070Y-70740D01*
X77070Y-70740D02*
X77060Y-70730D01*
X74740Y-54800D02*
X74850Y-54910D01*
X74850Y-54910D02*
X74850Y-55050D01*
X74850Y-56650D02*
X74850Y-55050D01*
X75250Y-57050D02*
X74850Y-56650D01*
X75250Y-60330D02*
X75250Y-57050D01*
X74550Y-63050D02*
X74450Y-62950D01*
X74450Y-62950D02*
X74450Y-57050D01*
X77970Y-62350D02*
X77970Y-54360D01*
X78470Y-62860D02*
X77970Y-62350D01*
X77970Y-54360D02*
X78670Y-53660D01*
X78670Y-53660D02*
X79160Y-53660D01*
X79160Y-53660D02*
X79380Y-53880D01*
X82500Y-55550D02*
X82500Y-54950D01*
X82200Y-55850D02*
X82500Y-55550D01*
X80500Y-55850D02*
X82200Y-55850D01*
X79500Y-56850D02*
X80500Y-55850D01*
X78810Y-56710D02*
X79250Y-56270D01*
X78810Y-61910D02*
X78810Y-56710D01*
X80190Y-63290D02*
X78810Y-61910D01*
X75060Y-68930D02*
X75060Y-69450D01*
X77550Y-66440D02*
X75060Y-68930D01*
X77550Y-64160D02*
X77550Y-66440D01*
X77480Y-64090D02*
X77550Y-64160D01*
X73260Y-67650D02*
X75060Y-69450D01*
X73260Y-60440D02*
X73260Y-67650D01*
X73260Y-60430D02*
X73260Y-60440D01*
X73370Y-55810D02*
X73260Y-55920D01*
X73260Y-55920D02*
X73260Y-60440D01*
X78350Y-55050D02*
X78650Y-55350D01*
X78650Y-55350D02*
X79400Y-55350D01*
X79520Y-57640D02*
X80190Y-56970D01*
X79520Y-61790D02*
X79520Y-57640D01*
X80800Y-63070D02*
X79520Y-61790D01*
X78470Y-57640D02*
X78470Y-56780D01*
X78340Y-57770D02*
X78470Y-57640D01*
X76960Y-63000D02*
X76290Y-63670D01*
X76290Y-64620D02*
X76290Y-63670D01*
X76290Y-64620D02*
X76125Y-64785D01*
X76400Y-62820D02*
X76400Y-62860D01*
X76400Y-62860D02*
X76540Y-63000D01*
X76540Y-63000D02*
X76930Y-63000D01*
X76400Y-57500D02*
X76800Y-57100D01*
X76400Y-57500D02*
X76400Y-62820D01*
X76960Y-63000D02*
X76930Y-63000D01*
G54D18*
X78160Y-66810D02*
X78160Y-66060D01*
X77530Y-67440D02*
X78160Y-66810D01*
G54D10*
G36*
X78776Y-65750D02*
X78729Y-65769D01*
X78609Y-65888D01*
X78606Y-65896D01*
X78562Y-65791D01*
X78429Y-65657D01*
X78254Y-65585D01*
X78065Y-65584D01*
X77891Y-65657D01*
X77850Y-65698D01*
X77850Y-64307D01*
X77904Y-64174D01*
X77905Y-64005D01*
X77840Y-63849D01*
X77721Y-63729D01*
X77564Y-63665D01*
X77395Y-63664D01*
X77239Y-63729D01*
X77119Y-63848D01*
X77055Y-64005D01*
X77054Y-64174D01*
X77119Y-64330D01*
X77238Y-64450D01*
X77250Y-64454D01*
X77250Y-66315D01*
X74847Y-68717D01*
X74809Y-68775D01*
X73560Y-67525D01*
X73560Y-66714D01*
X73765Y-66919D01*
X73764Y-67014D01*
X73829Y-67170D01*
X73948Y-67290D01*
X74105Y-67354D01*
X74274Y-67355D01*
X74430Y-67290D01*
X74550Y-67171D01*
X74614Y-67014D01*
X74615Y-66845D01*
X74550Y-66689D01*
X74431Y-66569D01*
X74274Y-66505D01*
X74199Y-66505D01*
X73940Y-66245D01*
X73940Y-63705D01*
X73994Y-63760D01*
X73994Y-63764D01*
X74067Y-63938D01*
X74200Y-64072D01*
X74375Y-64144D01*
X74564Y-64145D01*
X74738Y-64072D01*
X74872Y-63939D01*
X74944Y-63764D01*
X74945Y-63575D01*
X74872Y-63401D01*
X74836Y-63364D01*
X74910Y-63291D01*
X74974Y-63134D01*
X74975Y-62965D01*
X74910Y-62809D01*
X74791Y-62689D01*
X74750Y-62672D01*
X74750Y-57351D01*
X74810Y-57291D01*
X74874Y-57134D01*
X74874Y-57099D01*
X74950Y-57174D01*
X74950Y-60028D01*
X74889Y-60088D01*
X74825Y-60245D01*
X74824Y-60414D01*
X74889Y-60570D01*
X75008Y-60690D01*
X75165Y-60754D01*
X75334Y-60755D01*
X75490Y-60690D01*
X75610Y-60571D01*
X75674Y-60414D01*
X75675Y-60245D01*
X75610Y-60089D01*
X75550Y-60028D01*
X75550Y-57050D01*
X75549Y-57049D01*
X75527Y-56935D01*
X75462Y-56837D01*
X75462Y-56837D01*
X75150Y-56525D01*
X75150Y-56218D01*
X75165Y-56224D01*
X75334Y-56225D01*
X75490Y-56160D01*
X75551Y-56100D01*
X76400Y-56100D01*
X76400Y-56099D01*
X76514Y-56077D01*
X76514Y-56077D01*
X76612Y-56012D01*
X76862Y-55762D01*
X76862Y-55762D01*
X76927Y-55664D01*
X76949Y-55550D01*
X76950Y-55550D01*
X76950Y-54370D01*
X77515Y-54730D01*
X77670Y-54730D01*
X77670Y-62175D01*
X77270Y-61775D01*
X77270Y-60541D01*
X77330Y-60481D01*
X77394Y-60324D01*
X77395Y-60155D01*
X77330Y-59999D01*
X77211Y-59879D01*
X77054Y-59815D01*
X76885Y-59814D01*
X76729Y-59879D01*
X76700Y-59909D01*
X76700Y-57624D01*
X76799Y-57524D01*
X76884Y-57525D01*
X77040Y-57460D01*
X77160Y-57341D01*
X77224Y-57184D01*
X77225Y-57015D01*
X77160Y-56859D01*
X77041Y-56739D01*
X76884Y-56675D01*
X76715Y-56674D01*
X76559Y-56739D01*
X76439Y-56858D01*
X76375Y-57015D01*
X76374Y-57100D01*
X76187Y-57287D01*
X76122Y-57385D01*
X76100Y-57500D01*
X76100Y-62820D01*
X76100Y-62860D01*
X76122Y-62974D01*
X76187Y-63072D01*
X76325Y-63210D01*
X76077Y-63457D01*
X76012Y-63555D01*
X75990Y-63670D01*
X75990Y-64380D01*
X75884Y-64424D01*
X75764Y-64543D01*
X75700Y-64700D01*
X75699Y-64869D01*
X75764Y-65025D01*
X75883Y-65145D01*
X76040Y-65209D01*
X76209Y-65210D01*
X76365Y-65145D01*
X76485Y-65026D01*
X76549Y-64869D01*
X76550Y-64760D01*
X76567Y-64734D01*
X76589Y-64620D01*
X76590Y-64620D01*
X76590Y-63794D01*
X76959Y-63424D01*
X77044Y-63425D01*
X77200Y-63360D01*
X77320Y-63241D01*
X77384Y-63084D01*
X77385Y-62915D01*
X77320Y-62759D01*
X77201Y-62639D01*
X77044Y-62575D01*
X76875Y-62574D01*
X76719Y-62639D01*
X76700Y-62659D01*
X76700Y-62025D01*
X76757Y-62112D01*
X77990Y-63344D01*
X77990Y-64840D01*
X78012Y-64954D01*
X78077Y-65052D01*
X78776Y-65750D01*
X78776Y-65750D01*
G37*
G54D19*
X78776Y-65750D02*
X78729Y-65769D01*
X78609Y-65888D01*
X78606Y-65896D01*
X78562Y-65791D01*
X78429Y-65657D01*
X78254Y-65585D01*
X78065Y-65584D01*
X77891Y-65657D01*
X77850Y-65698D01*
X77850Y-64307D01*
X77904Y-64174D01*
X77905Y-64005D01*
X77840Y-63849D01*
X77721Y-63729D01*
X77564Y-63665D01*
X77395Y-63664D01*
X77239Y-63729D01*
X77119Y-63848D01*
X77055Y-64005D01*
X77054Y-64174D01*
X77119Y-64330D01*
X77238Y-64450D01*
X77250Y-64454D01*
X77250Y-66315D01*
X74847Y-68717D01*
X74809Y-68775D01*
X73560Y-67525D01*
X73560Y-66714D01*
X73765Y-66919D01*
X73764Y-67014D01*
X73829Y-67170D01*
X73948Y-67290D01*
X74105Y-67354D01*
X74274Y-67355D01*
X74430Y-67290D01*
X74550Y-67171D01*
X74614Y-67014D01*
X74615Y-66845D01*
X74550Y-66689D01*
X74431Y-66569D01*
X74274Y-66505D01*
X74199Y-66505D01*
X73940Y-66245D01*
X73940Y-63705D01*
X73994Y-63760D01*
X73994Y-63764D01*
X74067Y-63938D01*
X74200Y-64072D01*
X74375Y-64144D01*
X74564Y-64145D01*
X74738Y-64072D01*
X74872Y-63939D01*
X74944Y-63764D01*
X74945Y-63575D01*
X74872Y-63401D01*
X74836Y-63364D01*
X74910Y-63291D01*
X74974Y-63134D01*
X74975Y-62965D01*
X74910Y-62809D01*
X74791Y-62689D01*
X74750Y-62672D01*
X74750Y-57351D01*
X74810Y-57291D01*
X74874Y-57134D01*
X74874Y-57099D01*
X74950Y-57174D01*
X74950Y-60028D01*
X74889Y-60088D01*
X74825Y-60245D01*
X74824Y-60414D01*
X74889Y-60570D01*
X75008Y-60690D01*
X75165Y-60754D01*
X75334Y-60755D01*
X75490Y-60690D01*
X75610Y-60571D01*
X75674Y-60414D01*
X75675Y-60245D01*
X75610Y-60089D01*
X75550Y-60028D01*
X75550Y-57050D01*
X75549Y-57049D01*
X75527Y-56935D01*
X75462Y-56837D01*
X75462Y-56837D01*
X75150Y-56525D01*
X75150Y-56218D01*
X75165Y-56224D01*
X75334Y-56225D01*
X75490Y-56160D01*
X75551Y-56100D01*
X76400Y-56100D01*
X76400Y-56099D01*
X76514Y-56077D01*
X76514Y-56077D01*
X76612Y-56012D01*
X76862Y-55762D01*
X76862Y-55762D01*
X76927Y-55664D01*
X76949Y-55550D01*
X76950Y-55550D01*
X76950Y-54370D01*
X77515Y-54730D01*
X77670Y-54730D01*
X77670Y-62175D01*
X77270Y-61775D01*
X77270Y-60541D01*
X77330Y-60481D01*
X77394Y-60324D01*
X77395Y-60155D01*
X77330Y-59999D01*
X77211Y-59879D01*
X77054Y-59815D01*
X76885Y-59814D01*
X76729Y-59879D01*
X76700Y-59909D01*
X76700Y-57624D01*
X76799Y-57524D01*
X76884Y-57525D01*
X77040Y-57460D01*
X77160Y-57341D01*
X77224Y-57184D01*
X77225Y-57015D01*
X77160Y-56859D01*
X77041Y-56739D01*
X76884Y-56675D01*
X76715Y-56674D01*
X76559Y-56739D01*
X76439Y-56858D01*
X76375Y-57015D01*
X76374Y-57100D01*
X76187Y-57287D01*
X76122Y-57385D01*
X76100Y-57500D01*
X76100Y-62820D01*
X76100Y-62860D01*
X76122Y-62974D01*
X76187Y-63072D01*
X76325Y-63210D01*
X76077Y-63457D01*
X76012Y-63555D01*
X75990Y-63670D01*
X75990Y-64380D01*
X75884Y-64424D01*
X75764Y-64543D01*
X75700Y-64700D01*
X75699Y-64869D01*
X75764Y-65025D01*
X75883Y-65145D01*
X76040Y-65209D01*
X76209Y-65210D01*
X76365Y-65145D01*
X76485Y-65026D01*
X76549Y-64869D01*
X76550Y-64760D01*
X76567Y-64734D01*
X76589Y-64620D01*
X76590Y-64620D01*
X76590Y-63794D01*
X76959Y-63424D01*
X77044Y-63425D01*
X77200Y-63360D01*
X77320Y-63241D01*
X77384Y-63084D01*
X77385Y-62915D01*
X77320Y-62759D01*
X77201Y-62639D01*
X77044Y-62575D01*
X76875Y-62574D01*
X76719Y-62639D01*
X76700Y-62659D01*
X76700Y-62025D01*
X76757Y-62112D01*
X77990Y-63344D01*
X77990Y-64840D01*
X78012Y-64954D01*
X78077Y-65052D01*
X78776Y-65750D01*
G54D10*
G36*
X82493Y-65507D02*
X82439Y-65529D01*
X82319Y-65648D01*
X82255Y-65805D01*
X82254Y-65974D01*
X82319Y-66130D01*
X82330Y-66140D01*
X82330Y-66479D01*
X82327Y-66465D01*
X82262Y-66367D01*
X81412Y-65517D01*
X81314Y-65452D01*
X81200Y-65430D01*
X80190Y-65430D01*
X79624Y-65430D01*
X78950Y-64755D01*
X78950Y-63694D01*
X79142Y-63502D01*
X79142Y-63502D01*
X79207Y-63404D01*
X79229Y-63290D01*
X79230Y-63290D01*
X79230Y-62754D01*
X79765Y-63289D01*
X79764Y-63374D01*
X79829Y-63530D01*
X79948Y-63650D01*
X80105Y-63714D01*
X80274Y-63715D01*
X80430Y-63650D01*
X80550Y-63531D01*
X80587Y-63441D01*
X80715Y-63494D01*
X80884Y-63495D01*
X81040Y-63430D01*
X81160Y-63311D01*
X81210Y-63190D01*
X81210Y-64100D01*
X81232Y-64214D01*
X81297Y-64312D01*
X82493Y-65507D01*
X82493Y-65507D01*
G37*
G54D19*
X82493Y-65507D02*
X82439Y-65529D01*
X82319Y-65648D01*
X82255Y-65805D01*
X82254Y-65974D01*
X82319Y-66130D01*
X82330Y-66140D01*
X82330Y-66479D01*
X82327Y-66465D01*
X82262Y-66367D01*
X81412Y-65517D01*
X81314Y-65452D01*
X81200Y-65430D01*
X80190Y-65430D01*
X79624Y-65430D01*
X78950Y-64755D01*
X78950Y-63694D01*
X79142Y-63502D01*
X79142Y-63502D01*
X79207Y-63404D01*
X79229Y-63290D01*
X79230Y-63290D01*
X79230Y-62754D01*
X79765Y-63289D01*
X79764Y-63374D01*
X79829Y-63530D01*
X79948Y-63650D01*
X80105Y-63714D01*
X80274Y-63715D01*
X80430Y-63650D01*
X80550Y-63531D01*
X80587Y-63441D01*
X80715Y-63494D01*
X80884Y-63495D01*
X81040Y-63430D01*
X81160Y-63311D01*
X81210Y-63190D01*
X81210Y-64100D01*
X81232Y-64214D01*
X81297Y-64312D01*
X82493Y-65507D01*
G54D10*
G36*
X82550Y-58344D02*
X81697Y-59197D01*
X81610Y-59326D01*
X81605Y-59352D01*
X81580Y-59480D01*
X81580Y-60625D01*
X81450Y-60495D01*
X81450Y-59860D01*
X81449Y-59859D01*
X81427Y-59745D01*
X81362Y-59647D01*
X81362Y-59647D01*
X81284Y-59570D01*
X81285Y-59485D01*
X81220Y-59329D01*
X81101Y-59209D01*
X80944Y-59145D01*
X80775Y-59144D01*
X80619Y-59209D01*
X80499Y-59328D01*
X80435Y-59485D01*
X80434Y-59654D01*
X80499Y-59810D01*
X80618Y-59930D01*
X80775Y-59994D01*
X80850Y-59994D01*
X80850Y-60215D01*
X80782Y-60147D01*
X80780Y-60146D01*
X80778Y-60144D01*
X80726Y-60110D01*
X80684Y-60082D01*
X80682Y-60082D01*
X80679Y-60080D01*
X80618Y-60069D01*
X80570Y-60060D01*
X80567Y-60060D01*
X80564Y-60059D01*
X80285Y-60064D01*
X80231Y-60009D01*
X80074Y-59945D01*
X79905Y-59944D01*
X79820Y-59980D01*
X79820Y-57764D01*
X80189Y-57394D01*
X80274Y-57395D01*
X80430Y-57330D01*
X80550Y-57211D01*
X80614Y-57054D01*
X80615Y-56885D01*
X80550Y-56729D01*
X80431Y-56609D01*
X80274Y-56545D01*
X80229Y-56545D01*
X80624Y-56150D01*
X82200Y-56150D01*
X82200Y-56149D01*
X82314Y-56127D01*
X82314Y-56127D01*
X82412Y-56062D01*
X82550Y-55924D01*
X82550Y-58344D01*
X82550Y-58344D01*
G37*
G54D19*
X82550Y-58344D02*
X81697Y-59197D01*
X81610Y-59326D01*
X81605Y-59352D01*
X81580Y-59480D01*
X81580Y-60625D01*
X81450Y-60495D01*
X81450Y-59860D01*
X81449Y-59859D01*
X81427Y-59745D01*
X81362Y-59647D01*
X81362Y-59647D01*
X81284Y-59570D01*
X81285Y-59485D01*
X81220Y-59329D01*
X81101Y-59209D01*
X80944Y-59145D01*
X80775Y-59144D01*
X80619Y-59209D01*
X80499Y-59328D01*
X80435Y-59485D01*
X80434Y-59654D01*
X80499Y-59810D01*
X80618Y-59930D01*
X80775Y-59994D01*
X80850Y-59994D01*
X80850Y-60215D01*
X80782Y-60147D01*
X80780Y-60146D01*
X80778Y-60144D01*
X80726Y-60110D01*
X80684Y-60082D01*
X80682Y-60082D01*
X80679Y-60080D01*
X80618Y-60069D01*
X80570Y-60060D01*
X80567Y-60060D01*
X80564Y-60059D01*
X80285Y-60064D01*
X80231Y-60009D01*
X80074Y-59945D01*
X79905Y-59944D01*
X79820Y-59980D01*
X79820Y-57764D01*
X80189Y-57394D01*
X80274Y-57395D01*
X80430Y-57330D01*
X80550Y-57211D01*
X80614Y-57054D01*
X80615Y-56885D01*
X80550Y-56729D01*
X80431Y-56609D01*
X80274Y-56545D01*
X80229Y-56545D01*
X80624Y-56150D01*
X82200Y-56150D01*
X82200Y-56149D01*
X82314Y-56127D01*
X82314Y-56127D01*
X82412Y-56062D01*
X82550Y-55924D01*
X82550Y-58344D01*
G54D10*
G36*
X84290Y-70184D02*
X83715Y-70184D01*
X83623Y-70222D01*
X83559Y-70285D01*
X83497Y-70222D01*
X83405Y-70184D01*
X83305Y-70184D01*
X82715Y-70184D01*
X82623Y-70222D01*
X82559Y-70285D01*
X82497Y-70222D01*
X82405Y-70184D01*
X82305Y-70184D01*
X81715Y-70184D01*
X81623Y-70222D01*
X81559Y-70285D01*
X81497Y-70222D01*
X81405Y-70184D01*
X81305Y-70184D01*
X80715Y-70184D01*
X80623Y-70222D01*
X80559Y-70285D01*
X80497Y-70222D01*
X80405Y-70184D01*
X80305Y-70184D01*
X79715Y-70184D01*
X79623Y-70222D01*
X79559Y-70285D01*
X79497Y-70222D01*
X79405Y-70184D01*
X79305Y-70184D01*
X78715Y-70184D01*
X78623Y-70222D01*
X78559Y-70285D01*
X78497Y-70222D01*
X78405Y-70184D01*
X78305Y-70184D01*
X77715Y-70184D01*
X77623Y-70222D01*
X77559Y-70285D01*
X77497Y-70222D01*
X77405Y-70184D01*
X77305Y-70184D01*
X76715Y-70184D01*
X76623Y-70222D01*
X76559Y-70285D01*
X76497Y-70222D01*
X76405Y-70184D01*
X76305Y-70184D01*
X75715Y-70184D01*
X75623Y-70222D01*
X75559Y-70285D01*
X75497Y-70222D01*
X75405Y-70184D01*
X75305Y-70184D01*
X74715Y-70184D01*
X74623Y-70222D01*
X74559Y-70285D01*
X74497Y-70222D01*
X74405Y-70184D01*
X74305Y-70184D01*
X73715Y-70184D01*
X73623Y-70222D01*
X73560Y-70285D01*
X73496Y-70222D01*
X73404Y-70184D01*
X73172Y-70184D01*
X73110Y-70247D01*
X73110Y-70680D01*
X73117Y-70680D01*
X73117Y-70780D01*
X73110Y-70780D01*
X73110Y-71212D01*
X73172Y-71275D01*
X73404Y-71275D01*
X73496Y-71237D01*
X73560Y-71174D01*
X73622Y-71237D01*
X73714Y-71275D01*
X73814Y-71275D01*
X74404Y-71275D01*
X74496Y-71237D01*
X74560Y-71174D01*
X74622Y-71237D01*
X74714Y-71275D01*
X74814Y-71275D01*
X75404Y-71275D01*
X75496Y-71237D01*
X75560Y-71174D01*
X75622Y-71237D01*
X75714Y-71275D01*
X75814Y-71275D01*
X76404Y-71275D01*
X76496Y-71237D01*
X76545Y-71189D01*
X76544Y-71249D01*
X76544Y-71599D01*
X76582Y-71691D01*
X76641Y-71750D01*
X76582Y-71808D01*
X76544Y-71900D01*
X76545Y-72012D01*
X76607Y-72075D01*
X77020Y-72075D01*
X77020Y-72067D01*
X77120Y-72067D01*
X77120Y-72075D01*
X77532Y-72075D01*
X77565Y-72042D01*
X77597Y-72075D01*
X78010Y-72075D01*
X78010Y-72067D01*
X78110Y-72067D01*
X78110Y-72075D01*
X78522Y-72075D01*
X78565Y-72032D01*
X78607Y-72075D01*
X79020Y-72075D01*
X79020Y-72067D01*
X79120Y-72067D01*
X79120Y-72075D01*
X79532Y-72075D01*
X79570Y-72037D01*
X79607Y-72075D01*
X80020Y-72075D01*
X80020Y-72067D01*
X80120Y-72067D01*
X80120Y-72075D01*
X80532Y-72075D01*
X80565Y-72042D01*
X80597Y-72075D01*
X81010Y-72075D01*
X81010Y-72067D01*
X81110Y-72067D01*
X81110Y-72075D01*
X81522Y-72075D01*
X81560Y-72037D01*
X81597Y-72075D01*
X82010Y-72075D01*
X82010Y-72067D01*
X82110Y-72067D01*
X82110Y-72075D01*
X82522Y-72075D01*
X82560Y-72037D01*
X82597Y-72075D01*
X83010Y-72075D01*
X83010Y-72067D01*
X83110Y-72067D01*
X83110Y-72075D01*
X83522Y-72075D01*
X83560Y-72037D01*
X83597Y-72075D01*
X84010Y-72075D01*
X84010Y-72067D01*
X84110Y-72067D01*
X84110Y-72075D01*
X84117Y-72075D01*
X84117Y-72175D01*
X84110Y-72175D01*
X84110Y-72182D01*
X84010Y-72182D01*
X84010Y-72175D01*
X83597Y-72175D01*
X83560Y-72212D01*
X83522Y-72175D01*
X83110Y-72175D01*
X83110Y-72182D01*
X83010Y-72182D01*
X83010Y-72175D01*
X82597Y-72175D01*
X82560Y-72212D01*
X82522Y-72175D01*
X82110Y-72175D01*
X82110Y-72182D01*
X82010Y-72182D01*
X82010Y-72175D01*
X81597Y-72175D01*
X81560Y-72212D01*
X81522Y-72175D01*
X81110Y-72175D01*
X81110Y-72182D01*
X81010Y-72182D01*
X81010Y-72175D01*
X80597Y-72175D01*
X80565Y-72207D01*
X80532Y-72175D01*
X80120Y-72175D01*
X80120Y-72182D01*
X80020Y-72182D01*
X80020Y-72175D01*
X79607Y-72175D01*
X79570Y-72212D01*
X79532Y-72175D01*
X79120Y-72175D01*
X79120Y-72182D01*
X79020Y-72182D01*
X79020Y-72175D01*
X78607Y-72175D01*
X78565Y-72217D01*
X78522Y-72175D01*
X78110Y-72175D01*
X78110Y-72182D01*
X78010Y-72182D01*
X78010Y-72175D01*
X77597Y-72175D01*
X77565Y-72207D01*
X77532Y-72175D01*
X77120Y-72175D01*
X77120Y-72182D01*
X77020Y-72182D01*
X77020Y-72175D01*
X76607Y-72175D01*
X76545Y-72237D01*
X76544Y-72349D01*
X76545Y-72350D01*
X72519Y-72350D01*
X72519Y-71087D01*
X72552Y-71167D01*
X72623Y-71237D01*
X72715Y-71275D01*
X72947Y-71275D01*
X73010Y-71212D01*
X73010Y-70780D01*
X73002Y-70780D01*
X73002Y-70680D01*
X73010Y-70680D01*
X73010Y-70247D01*
X72947Y-70184D01*
X72715Y-70184D01*
X72623Y-70222D01*
X72552Y-70292D01*
X72519Y-70372D01*
X72519Y-51556D01*
X75950Y-53735D01*
X75950Y-55148D01*
X75889Y-55208D01*
X75825Y-55365D01*
X75824Y-55500D01*
X75551Y-55500D01*
X75491Y-55439D01*
X75334Y-55375D01*
X75165Y-55374D01*
X75150Y-55381D01*
X75150Y-55050D01*
X75150Y-54920D01*
X75164Y-54884D01*
X75165Y-54715D01*
X75100Y-54559D01*
X74981Y-54439D01*
X74824Y-54375D01*
X74655Y-54374D01*
X74499Y-54439D01*
X74379Y-54558D01*
X74315Y-54715D01*
X74314Y-54884D01*
X74379Y-55040D01*
X74498Y-55160D01*
X74550Y-55181D01*
X74550Y-56631D01*
X74534Y-56625D01*
X74365Y-56624D01*
X74250Y-56672D01*
X74250Y-55320D01*
X74219Y-55166D01*
X74219Y-55166D01*
X74190Y-55123D01*
X74132Y-55037D01*
X74132Y-55037D01*
X73620Y-54524D01*
X73620Y-53571D01*
X73622Y-53569D01*
X73694Y-53394D01*
X73695Y-53205D01*
X73622Y-53031D01*
X73489Y-52897D01*
X73314Y-52825D01*
X73125Y-52824D01*
X72951Y-52897D01*
X72817Y-53030D01*
X72745Y-53205D01*
X72744Y-53394D01*
X72817Y-53568D01*
X72820Y-53571D01*
X72820Y-54690D01*
X72845Y-54817D01*
X72850Y-54843D01*
X72937Y-54972D01*
X73349Y-55384D01*
X73285Y-55384D01*
X73129Y-55449D01*
X73009Y-55568D01*
X72945Y-55725D01*
X72944Y-55894D01*
X72960Y-55930D01*
X72960Y-60128D01*
X72899Y-60188D01*
X72835Y-60345D01*
X72834Y-60514D01*
X72899Y-60670D01*
X72960Y-60731D01*
X72960Y-67650D01*
X72982Y-67764D01*
X73047Y-67862D01*
X74635Y-69449D01*
X74634Y-69534D01*
X74699Y-69690D01*
X74818Y-69810D01*
X74975Y-69874D01*
X75144Y-69875D01*
X75300Y-69810D01*
X75420Y-69691D01*
X75484Y-69534D01*
X75485Y-69365D01*
X75420Y-69209D01*
X75360Y-69148D01*
X75360Y-69054D01*
X77055Y-67359D01*
X77054Y-67534D01*
X77127Y-67708D01*
X77260Y-67842D01*
X77435Y-67914D01*
X77571Y-67915D01*
X77477Y-67977D01*
X77390Y-68065D01*
X77305Y-68064D01*
X77149Y-68129D01*
X77029Y-68248D01*
X76965Y-68405D01*
X76964Y-68574D01*
X77029Y-68730D01*
X77148Y-68850D01*
X77305Y-68914D01*
X77474Y-68915D01*
X77630Y-68850D01*
X77750Y-68731D01*
X77814Y-68574D01*
X77815Y-68490D01*
X78748Y-68490D01*
X78729Y-68508D01*
X78665Y-68665D01*
X78664Y-68834D01*
X78729Y-68990D01*
X78848Y-69110D01*
X79005Y-69174D01*
X79090Y-69175D01*
X79417Y-69502D01*
X79417Y-69502D01*
X79515Y-69567D01*
X79630Y-69590D01*
X82170Y-69590D01*
X82590Y-69590D01*
X82590Y-69589D01*
X82704Y-69567D01*
X82704Y-69567D01*
X82802Y-69502D01*
X83452Y-68852D01*
X83452Y-68852D01*
X83517Y-68754D01*
X83539Y-68640D01*
X83540Y-68640D01*
X83540Y-68610D01*
X83575Y-68624D01*
X83744Y-68625D01*
X83900Y-68560D01*
X84020Y-68441D01*
X84084Y-68284D01*
X84085Y-68115D01*
X84076Y-68095D01*
X84079Y-68080D01*
X84080Y-68080D01*
X84080Y-61170D01*
X84079Y-61169D01*
X84057Y-61055D01*
X83992Y-60957D01*
X83992Y-60957D01*
X83894Y-60860D01*
X83895Y-60775D01*
X83830Y-60619D01*
X83711Y-60499D01*
X83554Y-60435D01*
X83385Y-60434D01*
X83229Y-60499D01*
X83109Y-60618D01*
X83045Y-60775D01*
X83044Y-60944D01*
X83109Y-61100D01*
X83228Y-61220D01*
X83385Y-61284D01*
X83470Y-61285D01*
X83480Y-61294D01*
X83480Y-63465D01*
X82720Y-62705D01*
X82720Y-60071D01*
X82780Y-60011D01*
X82844Y-59854D01*
X82845Y-59685D01*
X82780Y-59529D01*
X82661Y-59409D01*
X82629Y-59396D01*
X83232Y-58792D01*
X83232Y-58792D01*
X83290Y-58706D01*
X83319Y-58663D01*
X83319Y-58663D01*
X83349Y-58510D01*
X83350Y-58510D01*
X83350Y-53571D01*
X83352Y-53569D01*
X83424Y-53394D01*
X83425Y-53205D01*
X83352Y-53031D01*
X83219Y-52897D01*
X83044Y-52825D01*
X82855Y-52824D01*
X82681Y-52897D01*
X82547Y-53030D01*
X82475Y-53205D01*
X82474Y-53394D01*
X82547Y-53568D01*
X82550Y-53571D01*
X82550Y-54525D01*
X82415Y-54524D01*
X82259Y-54589D01*
X82139Y-54708D01*
X82075Y-54865D01*
X82074Y-55025D01*
X81915Y-55024D01*
X81759Y-55089D01*
X81698Y-55150D01*
X81374Y-55150D01*
X81050Y-54825D01*
X81050Y-53868D01*
X81190Y-53810D01*
X81310Y-53691D01*
X81312Y-53686D01*
X81387Y-53762D01*
X81387Y-53762D01*
X81485Y-53827D01*
X81600Y-53850D01*
X81648Y-53850D01*
X81708Y-53910D01*
X81865Y-53974D01*
X82034Y-53975D01*
X82190Y-53910D01*
X82310Y-53791D01*
X82374Y-53634D01*
X82375Y-53465D01*
X82310Y-53309D01*
X82191Y-53189D01*
X82034Y-53125D01*
X81870Y-53124D01*
X84290Y-51394D01*
X84290Y-70184D01*
X84290Y-70184D01*
G37*
G54D19*
X84290Y-70184D02*
X83715Y-70184D01*
X83623Y-70222D01*
X83559Y-70285D01*
X83497Y-70222D01*
X83405Y-70184D01*
X83305Y-70184D01*
X82715Y-70184D01*
X82623Y-70222D01*
X82559Y-70285D01*
X82497Y-70222D01*
X82405Y-70184D01*
X82305Y-70184D01*
X81715Y-70184D01*
X81623Y-70222D01*
X81559Y-70285D01*
X81497Y-70222D01*
X81405Y-70184D01*
X81305Y-70184D01*
X80715Y-70184D01*
X80623Y-70222D01*
X80559Y-70285D01*
X80497Y-70222D01*
X80405Y-70184D01*
X80305Y-70184D01*
X79715Y-70184D01*
X79623Y-70222D01*
X79559Y-70285D01*
X79497Y-70222D01*
X79405Y-70184D01*
X79305Y-70184D01*
X78715Y-70184D01*
X78623Y-70222D01*
X78559Y-70285D01*
X78497Y-70222D01*
X78405Y-70184D01*
X78305Y-70184D01*
X77715Y-70184D01*
X77623Y-70222D01*
X77559Y-70285D01*
X77497Y-70222D01*
X77405Y-70184D01*
X77305Y-70184D01*
X76715Y-70184D01*
X76623Y-70222D01*
X76559Y-70285D01*
X76497Y-70222D01*
X76405Y-70184D01*
X76305Y-70184D01*
X75715Y-70184D01*
X75623Y-70222D01*
X75559Y-70285D01*
X75497Y-70222D01*
X75405Y-70184D01*
X75305Y-70184D01*
X74715Y-70184D01*
X74623Y-70222D01*
X74559Y-70285D01*
X74497Y-70222D01*
X74405Y-70184D01*
X74305Y-70184D01*
X73715Y-70184D01*
X73623Y-70222D01*
X73560Y-70285D01*
X73496Y-70222D01*
X73404Y-70184D01*
X73172Y-70184D01*
X73110Y-70247D01*
X73110Y-70680D01*
X73117Y-70680D01*
X73117Y-70780D01*
X73110Y-70780D01*
X73110Y-71212D01*
X73172Y-71275D01*
X73404Y-71275D01*
X73496Y-71237D01*
X73560Y-71174D01*
X73622Y-71237D01*
X73714Y-71275D01*
X73814Y-71275D01*
X74404Y-71275D01*
X74496Y-71237D01*
X74560Y-71174D01*
X74622Y-71237D01*
X74714Y-71275D01*
X74814Y-71275D01*
X75404Y-71275D01*
X75496Y-71237D01*
X75560Y-71174D01*
X75622Y-71237D01*
X75714Y-71275D01*
X75814Y-71275D01*
X76404Y-71275D01*
X76496Y-71237D01*
X76545Y-71189D01*
X76544Y-71249D01*
X76544Y-71599D01*
X76582Y-71691D01*
X76641Y-71750D01*
X76582Y-71808D01*
X76544Y-71900D01*
X76545Y-72012D01*
X76607Y-72075D01*
X77020Y-72075D01*
X77020Y-72067D01*
X77120Y-72067D01*
X77120Y-72075D01*
X77532Y-72075D01*
X77565Y-72042D01*
X77597Y-72075D01*
X78010Y-72075D01*
X78010Y-72067D01*
X78110Y-72067D01*
X78110Y-72075D01*
X78522Y-72075D01*
X78565Y-72032D01*
X78607Y-72075D01*
X79020Y-72075D01*
X79020Y-72067D01*
X79120Y-72067D01*
X79120Y-72075D01*
X79532Y-72075D01*
X79570Y-72037D01*
X79607Y-72075D01*
X80020Y-72075D01*
X80020Y-72067D01*
X80120Y-72067D01*
X80120Y-72075D01*
X80532Y-72075D01*
X80565Y-72042D01*
X80597Y-72075D01*
X81010Y-72075D01*
X81010Y-72067D01*
X81110Y-72067D01*
X81110Y-72075D01*
X81522Y-72075D01*
X81560Y-72037D01*
X81597Y-72075D01*
X82010Y-72075D01*
X82010Y-72067D01*
X82110Y-72067D01*
X82110Y-72075D01*
X82522Y-72075D01*
X82560Y-72037D01*
X82597Y-72075D01*
X83010Y-72075D01*
X83010Y-72067D01*
X83110Y-72067D01*
X83110Y-72075D01*
X83522Y-72075D01*
X83560Y-72037D01*
X83597Y-72075D01*
X84010Y-72075D01*
X84010Y-72067D01*
X84110Y-72067D01*
X84110Y-72075D01*
X84117Y-72075D01*
X84117Y-72175D01*
X84110Y-72175D01*
X84110Y-72182D01*
X84010Y-72182D01*
X84010Y-72175D01*
X83597Y-72175D01*
X83560Y-72212D01*
X83522Y-72175D01*
X83110Y-72175D01*
X83110Y-72182D01*
X83010Y-72182D01*
X83010Y-72175D01*
X82597Y-72175D01*
X82560Y-72212D01*
X82522Y-72175D01*
X82110Y-72175D01*
X82110Y-72182D01*
X82010Y-72182D01*
X82010Y-72175D01*
X81597Y-72175D01*
X81560Y-72212D01*
X81522Y-72175D01*
X81110Y-72175D01*
X81110Y-72182D01*
X81010Y-72182D01*
X81010Y-72175D01*
X80597Y-72175D01*
X80565Y-72207D01*
X80532Y-72175D01*
X80120Y-72175D01*
X80120Y-72182D01*
X80020Y-72182D01*
X80020Y-72175D01*
X79607Y-72175D01*
X79570Y-72212D01*
X79532Y-72175D01*
X79120Y-72175D01*
X79120Y-72182D01*
X79020Y-72182D01*
X79020Y-72175D01*
X78607Y-72175D01*
X78565Y-72217D01*
X78522Y-72175D01*
X78110Y-72175D01*
X78110Y-72182D01*
X78010Y-72182D01*
X78010Y-72175D01*
X77597Y-72175D01*
X77565Y-72207D01*
X77532Y-72175D01*
X77120Y-72175D01*
X77120Y-72182D01*
X77020Y-72182D01*
X77020Y-72175D01*
X76607Y-72175D01*
X76545Y-72237D01*
X76544Y-72349D01*
X76545Y-72350D01*
X72519Y-72350D01*
X72519Y-71087D01*
X72552Y-71167D01*
X72623Y-71237D01*
X72715Y-71275D01*
X72947Y-71275D01*
X73010Y-71212D01*
X73010Y-70780D01*
X73002Y-70780D01*
X73002Y-70680D01*
X73010Y-70680D01*
X73010Y-70247D01*
X72947Y-70184D01*
X72715Y-70184D01*
X72623Y-70222D01*
X72552Y-70292D01*
X72519Y-70372D01*
X72519Y-51556D01*
X75950Y-53735D01*
X75950Y-55148D01*
X75889Y-55208D01*
X75825Y-55365D01*
X75824Y-55500D01*
X75551Y-55500D01*
X75491Y-55439D01*
X75334Y-55375D01*
X75165Y-55374D01*
X75150Y-55381D01*
X75150Y-55050D01*
X75150Y-54920D01*
X75164Y-54884D01*
X75165Y-54715D01*
X75100Y-54559D01*
X74981Y-54439D01*
X74824Y-54375D01*
X74655Y-54374D01*
X74499Y-54439D01*
X74379Y-54558D01*
X74315Y-54715D01*
X74314Y-54884D01*
X74379Y-55040D01*
X74498Y-55160D01*
X74550Y-55181D01*
X74550Y-56631D01*
X74534Y-56625D01*
X74365Y-56624D01*
X74250Y-56672D01*
X74250Y-55320D01*
X74219Y-55166D01*
X74219Y-55166D01*
X74190Y-55123D01*
X74132Y-55037D01*
X74132Y-55037D01*
X73620Y-54524D01*
X73620Y-53571D01*
X73622Y-53569D01*
X73694Y-53394D01*
X73695Y-53205D01*
X73622Y-53031D01*
X73489Y-52897D01*
X73314Y-52825D01*
X73125Y-52824D01*
X72951Y-52897D01*
X72817Y-53030D01*
X72745Y-53205D01*
X72744Y-53394D01*
X72817Y-53568D01*
X72820Y-53571D01*
X72820Y-54690D01*
X72845Y-54817D01*
X72850Y-54843D01*
X72937Y-54972D01*
X73349Y-55384D01*
X73285Y-55384D01*
X73129Y-55449D01*
X73009Y-55568D01*
X72945Y-55725D01*
X72944Y-55894D01*
X72960Y-55930D01*
X72960Y-60128D01*
X72899Y-60188D01*
X72835Y-60345D01*
X72834Y-60514D01*
X72899Y-60670D01*
X72960Y-60731D01*
X72960Y-67650D01*
X72982Y-67764D01*
X73047Y-67862D01*
X74635Y-69449D01*
X74634Y-69534D01*
X74699Y-69690D01*
X74818Y-69810D01*
X74975Y-69874D01*
X75144Y-69875D01*
X75300Y-69810D01*
X75420Y-69691D01*
X75484Y-69534D01*
X75485Y-69365D01*
X75420Y-69209D01*
X75360Y-69148D01*
X75360Y-69054D01*
X77055Y-67359D01*
X77054Y-67534D01*
X77127Y-67708D01*
X77260Y-67842D01*
X77435Y-67914D01*
X77571Y-67915D01*
X77477Y-67977D01*
X77390Y-68065D01*
X77305Y-68064D01*
X77149Y-68129D01*
X77029Y-68248D01*
X76965Y-68405D01*
X76964Y-68574D01*
X77029Y-68730D01*
X77148Y-68850D01*
X77305Y-68914D01*
X77474Y-68915D01*
X77630Y-68850D01*
X77750Y-68731D01*
X77814Y-68574D01*
X77815Y-68490D01*
X78748Y-68490D01*
X78729Y-68508D01*
X78665Y-68665D01*
X78664Y-68834D01*
X78729Y-68990D01*
X78848Y-69110D01*
X79005Y-69174D01*
X79090Y-69175D01*
X79417Y-69502D01*
X79417Y-69502D01*
X79515Y-69567D01*
X79630Y-69590D01*
X82170Y-69590D01*
X82590Y-69590D01*
X82590Y-69589D01*
X82704Y-69567D01*
X82704Y-69567D01*
X82802Y-69502D01*
X83452Y-68852D01*
X83452Y-68852D01*
X83517Y-68754D01*
X83539Y-68640D01*
X83540Y-68640D01*
X83540Y-68610D01*
X83575Y-68624D01*
X83744Y-68625D01*
X83900Y-68560D01*
X84020Y-68441D01*
X84084Y-68284D01*
X84085Y-68115D01*
X84076Y-68095D01*
X84079Y-68080D01*
X84080Y-68080D01*
X84080Y-61170D01*
X84079Y-61169D01*
X84057Y-61055D01*
X83992Y-60957D01*
X83992Y-60957D01*
X83894Y-60860D01*
X83895Y-60775D01*
X83830Y-60619D01*
X83711Y-60499D01*
X83554Y-60435D01*
X83385Y-60434D01*
X83229Y-60499D01*
X83109Y-60618D01*
X83045Y-60775D01*
X83044Y-60944D01*
X83109Y-61100D01*
X83228Y-61220D01*
X83385Y-61284D01*
X83470Y-61285D01*
X83480Y-61294D01*
X83480Y-63465D01*
X82720Y-62705D01*
X82720Y-60071D01*
X82780Y-60011D01*
X82844Y-59854D01*
X82845Y-59685D01*
X82780Y-59529D01*
X82661Y-59409D01*
X82629Y-59396D01*
X83232Y-58792D01*
X83232Y-58792D01*
X83290Y-58706D01*
X83319Y-58663D01*
X83319Y-58663D01*
X83349Y-58510D01*
X83350Y-58510D01*
X83350Y-53571D01*
X83352Y-53569D01*
X83424Y-53394D01*
X83425Y-53205D01*
X83352Y-53031D01*
X83219Y-52897D01*
X83044Y-52825D01*
X82855Y-52824D01*
X82681Y-52897D01*
X82547Y-53030D01*
X82475Y-53205D01*
X82474Y-53394D01*
X82547Y-53568D01*
X82550Y-53571D01*
X82550Y-54525D01*
X82415Y-54524D01*
X82259Y-54589D01*
X82139Y-54708D01*
X82075Y-54865D01*
X82074Y-55025D01*
X81915Y-55024D01*
X81759Y-55089D01*
X81698Y-55150D01*
X81374Y-55150D01*
X81050Y-54825D01*
X81050Y-53868D01*
X81190Y-53810D01*
X81310Y-53691D01*
X81312Y-53686D01*
X81387Y-53762D01*
X81387Y-53762D01*
X81485Y-53827D01*
X81600Y-53850D01*
X81648Y-53850D01*
X81708Y-53910D01*
X81865Y-53974D01*
X82034Y-53975D01*
X82190Y-53910D01*
X82310Y-53791D01*
X82374Y-53634D01*
X82375Y-53465D01*
X82310Y-53309D01*
X82191Y-53189D01*
X82034Y-53125D01*
X81870Y-53124D01*
X84290Y-51394D01*
X84290Y-70184D01*
M02*
