G04 (created by PCBNEW (2013-07-07 BZR 4022)-stable) date 12/18/2014 6:53:22 AM*
%MOIN*%
G04 Gerber Fmt 3.4, Leading zero omitted, Abs format*
%FSLAX34Y34*%
G01*
G70*
G90*
G04 APERTURE LIST*
%ADD10C,0.005*%
%ADD11C,0.00393701*%
%ADD12C,0.00787402*%
%ADD13C,0.011811*%
G04 APERTURE END LIST*
G54D10*
G54D11*
X84560Y-42040D02*
X72250Y-42040D01*
X72250Y-72620D02*
X72250Y-42040D01*
X84560Y-72620D02*
X72250Y-72620D01*
X84560Y-42040D02*
X84560Y-72620D01*
G54D12*
X73430Y-45290D02*
X74130Y-45990D01*
X74130Y-45290D02*
X73430Y-45990D01*
X82660Y-45330D02*
X83360Y-46030D01*
X83360Y-45330D02*
X82660Y-46030D01*
G54D13*
X73298Y-74416D02*
X73298Y-73235D01*
X73580Y-73235D01*
X73748Y-73292D01*
X73861Y-73404D01*
X73917Y-73517D01*
X73973Y-73742D01*
X73973Y-73910D01*
X73917Y-74135D01*
X73861Y-74248D01*
X73748Y-74360D01*
X73580Y-74416D01*
X73298Y-74416D01*
X74480Y-74416D02*
X74480Y-73629D01*
X74480Y-73854D02*
X74536Y-73742D01*
X74592Y-73685D01*
X74705Y-73629D01*
X74817Y-73629D01*
X75211Y-74416D02*
X75211Y-73629D01*
X75211Y-73235D02*
X75154Y-73292D01*
X75211Y-73348D01*
X75267Y-73292D01*
X75211Y-73235D01*
X75211Y-73348D01*
X75942Y-74416D02*
X75829Y-74360D01*
X75773Y-74248D01*
X75773Y-73235D01*
X76561Y-74416D02*
X76448Y-74360D01*
X76392Y-74248D01*
X76392Y-73235D01*
X77910Y-74416D02*
X77910Y-73235D01*
X78304Y-74079D01*
X78698Y-73235D01*
X78698Y-74416D01*
X79766Y-74416D02*
X79766Y-73798D01*
X79710Y-73685D01*
X79598Y-73629D01*
X79373Y-73629D01*
X79260Y-73685D01*
X79766Y-74360D02*
X79654Y-74416D01*
X79373Y-74416D01*
X79260Y-74360D01*
X79204Y-74248D01*
X79204Y-74135D01*
X79260Y-74023D01*
X79373Y-73967D01*
X79654Y-73967D01*
X79766Y-73910D01*
X80329Y-73629D02*
X80329Y-74810D01*
X80329Y-73685D02*
X80441Y-73629D01*
X80666Y-73629D01*
X80779Y-73685D01*
X80835Y-73742D01*
X80891Y-73854D01*
X80891Y-74191D01*
X80835Y-74304D01*
X80779Y-74360D01*
X80666Y-74416D01*
X80441Y-74416D01*
X80329Y-74360D01*
X81397Y-74304D02*
X81454Y-74360D01*
X81397Y-74416D01*
X81341Y-74360D01*
X81397Y-74304D01*
X81397Y-74416D01*
X81397Y-73685D02*
X81454Y-73742D01*
X81397Y-73798D01*
X81341Y-73742D01*
X81397Y-73685D01*
X81397Y-73798D01*
X71530Y-76069D02*
X72230Y-76769D01*
X72230Y-76069D02*
X71530Y-76769D01*
X73917Y-76897D02*
X73242Y-76897D01*
X73580Y-76897D02*
X73580Y-75716D01*
X73467Y-75884D01*
X73355Y-75997D01*
X73242Y-76053D01*
X74423Y-76784D02*
X74480Y-76841D01*
X74423Y-76897D01*
X74367Y-76841D01*
X74423Y-76784D01*
X74423Y-76897D01*
X74873Y-75716D02*
X75661Y-75716D01*
X75154Y-76897D01*
X76279Y-76222D02*
X76167Y-76166D01*
X76111Y-76109D01*
X76054Y-75997D01*
X76054Y-75941D01*
X76111Y-75828D01*
X76167Y-75772D01*
X76279Y-75716D01*
X76504Y-75716D01*
X76617Y-75772D01*
X76673Y-75828D01*
X76729Y-75941D01*
X76729Y-75997D01*
X76673Y-76109D01*
X76617Y-76166D01*
X76504Y-76222D01*
X76279Y-76222D01*
X76167Y-76278D01*
X76111Y-76334D01*
X76054Y-76447D01*
X76054Y-76672D01*
X76111Y-76784D01*
X76167Y-76841D01*
X76279Y-76897D01*
X76504Y-76897D01*
X76617Y-76841D01*
X76673Y-76784D01*
X76729Y-76672D01*
X76729Y-76447D01*
X76673Y-76334D01*
X76617Y-76278D01*
X76504Y-76222D01*
X77235Y-76897D02*
X77235Y-76109D01*
X77235Y-76222D02*
X77292Y-76166D01*
X77404Y-76109D01*
X77573Y-76109D01*
X77685Y-76166D01*
X77742Y-76278D01*
X77742Y-76897D01*
X77742Y-76278D02*
X77798Y-76166D01*
X77910Y-76109D01*
X78079Y-76109D01*
X78192Y-76166D01*
X78248Y-76278D01*
X78248Y-76897D01*
X78810Y-76897D02*
X78810Y-76109D01*
X78810Y-76222D02*
X78866Y-76166D01*
X78979Y-76109D01*
X79148Y-76109D01*
X79260Y-76166D01*
X79316Y-76278D01*
X79316Y-76897D01*
X79316Y-76278D02*
X79373Y-76166D01*
X79485Y-76109D01*
X79654Y-76109D01*
X79766Y-76166D01*
X79823Y-76278D01*
X79823Y-76897D01*
X82129Y-75659D02*
X81116Y-77178D01*
X83647Y-75716D02*
X83760Y-75716D01*
X83872Y-75772D01*
X83928Y-75828D01*
X83985Y-75941D01*
X84041Y-76166D01*
X84041Y-76447D01*
X83985Y-76672D01*
X83928Y-76784D01*
X83872Y-76841D01*
X83760Y-76897D01*
X83647Y-76897D01*
X83535Y-76841D01*
X83478Y-76784D01*
X83422Y-76672D01*
X83366Y-76447D01*
X83366Y-76166D01*
X83422Y-75941D01*
X83478Y-75828D01*
X83535Y-75772D01*
X83647Y-75716D01*
X84547Y-76784D02*
X84603Y-76841D01*
X84547Y-76897D01*
X84491Y-76841D01*
X84547Y-76784D01*
X84547Y-76897D01*
X85334Y-75716D02*
X85447Y-75716D01*
X85559Y-75772D01*
X85616Y-75828D01*
X85672Y-75941D01*
X85728Y-76166D01*
X85728Y-76447D01*
X85672Y-76672D01*
X85616Y-76784D01*
X85559Y-76841D01*
X85447Y-76897D01*
X85334Y-76897D01*
X85222Y-76841D01*
X85166Y-76784D01*
X85109Y-76672D01*
X85053Y-76447D01*
X85053Y-76166D01*
X85109Y-75941D01*
X85166Y-75828D01*
X85222Y-75772D01*
X85334Y-75716D01*
X86122Y-75716D02*
X86909Y-75716D01*
X86403Y-76897D01*
X87584Y-75716D02*
X87697Y-75716D01*
X87809Y-75772D01*
X87865Y-75828D01*
X87922Y-75941D01*
X87978Y-76166D01*
X87978Y-76447D01*
X87922Y-76672D01*
X87865Y-76784D01*
X87809Y-76841D01*
X87697Y-76897D01*
X87584Y-76897D01*
X87472Y-76841D01*
X87415Y-76784D01*
X87359Y-76672D01*
X87303Y-76447D01*
X87303Y-76166D01*
X87359Y-75941D01*
X87415Y-75828D01*
X87472Y-75772D01*
X87584Y-75716D01*
X88428Y-75716D02*
X88428Y-75941D01*
X88878Y-75716D02*
X88878Y-75941D01*
X90621Y-77347D02*
X90565Y-77290D01*
X90453Y-77122D01*
X90396Y-77009D01*
X90340Y-76841D01*
X90284Y-76559D01*
X90284Y-76334D01*
X90340Y-76053D01*
X90396Y-75884D01*
X90453Y-75772D01*
X90565Y-75603D01*
X90621Y-75547D01*
X91015Y-75828D02*
X91071Y-75772D01*
X91184Y-75716D01*
X91465Y-75716D01*
X91577Y-75772D01*
X91634Y-75828D01*
X91690Y-75941D01*
X91690Y-76053D01*
X91634Y-76222D01*
X90959Y-76897D01*
X91690Y-76897D01*
X93096Y-76897D02*
X93096Y-75716D01*
X93602Y-76897D02*
X93602Y-76278D01*
X93546Y-76166D01*
X93433Y-76109D01*
X93265Y-76109D01*
X93152Y-76166D01*
X93096Y-76222D01*
X94333Y-76897D02*
X94221Y-76841D01*
X94165Y-76784D01*
X94108Y-76672D01*
X94108Y-76334D01*
X94165Y-76222D01*
X94221Y-76166D01*
X94333Y-76109D01*
X94502Y-76109D01*
X94615Y-76166D01*
X94671Y-76222D01*
X94727Y-76334D01*
X94727Y-76672D01*
X94671Y-76784D01*
X94615Y-76841D01*
X94502Y-76897D01*
X94333Y-76897D01*
X95402Y-76897D02*
X95289Y-76841D01*
X95233Y-76728D01*
X95233Y-75716D01*
X96302Y-76841D02*
X96189Y-76897D01*
X95964Y-76897D01*
X95852Y-76841D01*
X95796Y-76728D01*
X95796Y-76278D01*
X95852Y-76166D01*
X95964Y-76109D01*
X96189Y-76109D01*
X96302Y-76166D01*
X96358Y-76278D01*
X96358Y-76391D01*
X95796Y-76503D01*
X96808Y-76841D02*
X96920Y-76897D01*
X97145Y-76897D01*
X97258Y-76841D01*
X97314Y-76728D01*
X97314Y-76672D01*
X97258Y-76559D01*
X97145Y-76503D01*
X96977Y-76503D01*
X96864Y-76447D01*
X96808Y-76334D01*
X96808Y-76278D01*
X96864Y-76166D01*
X96977Y-76109D01*
X97145Y-76109D01*
X97258Y-76166D01*
X97708Y-77347D02*
X97764Y-77290D01*
X97877Y-77122D01*
X97933Y-77009D01*
X97989Y-76841D01*
X98045Y-76559D01*
X98045Y-76334D01*
X97989Y-76053D01*
X97933Y-75884D01*
X97877Y-75772D01*
X97764Y-75603D01*
X97708Y-75547D01*
M02*
