G04 (created by PCBNEW (2013-07-07 BZR 4022)-stable) date 12/18/2014 6:53:03 AM*
%MOIN*%
G04 Gerber Fmt 3.4, Leading zero omitted, Abs format*
%FSLAX34Y34*%
G01*
G70*
G90*
G04 APERTURE LIST*
%ADD10C,0.00590551*%
%ADD11C,0.00787402*%
%ADD12C,0.015*%
%ADD13C,0.0039*%
%ADD14C,0.005*%
%ADD15C,0.0043*%
%ADD16C,0.0045*%
G04 APERTURE END LIST*
G54D10*
G54D11*
X83400Y-47600D02*
G75*
G03X83400Y-47600I-5000J0D01*
G74*
G01*
G54D12*
X83610Y-45680D02*
G75*
G03X83610Y-45680I-600J0D01*
G74*
G01*
X74380Y-45640D02*
G75*
G03X74380Y-45640I-600J0D01*
G74*
G01*
G54D13*
X80810Y-71100D02*
G75*
G03X80810Y-71100I-50J0D01*
G74*
G01*
X80760Y-71550D02*
X80760Y-71150D01*
X80760Y-71150D02*
X81360Y-71150D01*
X81360Y-71150D02*
X81360Y-71550D01*
X81360Y-71950D02*
X81360Y-72350D01*
X81360Y-72350D02*
X80760Y-72350D01*
X80760Y-72350D02*
X80760Y-71950D01*
X79820Y-71100D02*
G75*
G03X79820Y-71100I-50J0D01*
G74*
G01*
X79770Y-71550D02*
X79770Y-71150D01*
X79770Y-71150D02*
X80370Y-71150D01*
X80370Y-71150D02*
X80370Y-71550D01*
X80370Y-71950D02*
X80370Y-72350D01*
X80370Y-72350D02*
X79770Y-72350D01*
X79770Y-72350D02*
X79770Y-71950D01*
X81810Y-71100D02*
G75*
G03X81810Y-71100I-50J0D01*
G74*
G01*
X81760Y-71550D02*
X81760Y-71150D01*
X81760Y-71150D02*
X82360Y-71150D01*
X82360Y-71150D02*
X82360Y-71550D01*
X82360Y-71950D02*
X82360Y-72350D01*
X82360Y-72350D02*
X81760Y-72350D01*
X81760Y-72350D02*
X81760Y-71950D01*
X78820Y-71100D02*
G75*
G03X78820Y-71100I-50J0D01*
G74*
G01*
X78770Y-71550D02*
X78770Y-71150D01*
X78770Y-71150D02*
X79370Y-71150D01*
X79370Y-71150D02*
X79370Y-71550D01*
X79370Y-71950D02*
X79370Y-72350D01*
X79370Y-72350D02*
X78770Y-72350D01*
X78770Y-72350D02*
X78770Y-71950D01*
X82810Y-71100D02*
G75*
G03X82810Y-71100I-50J0D01*
G74*
G01*
X82760Y-71550D02*
X82760Y-71150D01*
X82760Y-71150D02*
X83360Y-71150D01*
X83360Y-71150D02*
X83360Y-71550D01*
X83360Y-71950D02*
X83360Y-72350D01*
X83360Y-72350D02*
X82760Y-72350D01*
X82760Y-72350D02*
X82760Y-71950D01*
X77810Y-71100D02*
G75*
G03X77810Y-71100I-50J0D01*
G74*
G01*
X77760Y-71550D02*
X77760Y-71150D01*
X77760Y-71150D02*
X78360Y-71150D01*
X78360Y-71150D02*
X78360Y-71550D01*
X78360Y-71950D02*
X78360Y-72350D01*
X78360Y-72350D02*
X77760Y-72350D01*
X77760Y-72350D02*
X77760Y-71950D01*
X83810Y-71100D02*
G75*
G03X83810Y-71100I-50J0D01*
G74*
G01*
X83760Y-71550D02*
X83760Y-71150D01*
X83760Y-71150D02*
X84360Y-71150D01*
X84360Y-71150D02*
X84360Y-71550D01*
X84360Y-71950D02*
X84360Y-72350D01*
X84360Y-72350D02*
X83760Y-72350D01*
X83760Y-72350D02*
X83760Y-71950D01*
X76820Y-71100D02*
G75*
G03X76820Y-71100I-50J0D01*
G74*
G01*
X76770Y-71550D02*
X76770Y-71150D01*
X76770Y-71150D02*
X77370Y-71150D01*
X77370Y-71150D02*
X77370Y-71550D01*
X77370Y-71950D02*
X77370Y-72350D01*
X77370Y-72350D02*
X76770Y-72350D01*
X76770Y-72350D02*
X76770Y-71950D01*
G54D14*
X75394Y-43958D02*
X74758Y-44594D01*
X74758Y-44594D02*
X74405Y-44241D01*
X74405Y-44241D02*
X75041Y-43605D01*
X75041Y-43605D02*
X75394Y-43958D01*
X77950Y-42350D02*
X78850Y-42350D01*
X78850Y-42350D02*
X78850Y-42850D01*
X78850Y-42850D02*
X77950Y-42850D01*
X77950Y-42850D02*
X77950Y-42350D01*
X81758Y-43605D02*
X82394Y-44241D01*
X82394Y-44241D02*
X82041Y-44594D01*
X82041Y-44594D02*
X81405Y-43958D01*
X81405Y-43958D02*
X81758Y-43605D01*
X83150Y-48050D02*
X83150Y-47150D01*
X83150Y-47150D02*
X83650Y-47150D01*
X83650Y-47150D02*
X83650Y-48050D01*
X83650Y-48050D02*
X83150Y-48050D01*
X81405Y-51241D02*
X82041Y-50605D01*
X82041Y-50605D02*
X82394Y-50958D01*
X82394Y-50958D02*
X81758Y-51594D01*
X81758Y-51594D02*
X81405Y-51241D01*
X77950Y-52350D02*
X78850Y-52350D01*
X78850Y-52350D02*
X78850Y-52850D01*
X78850Y-52850D02*
X77950Y-52850D01*
X77950Y-52850D02*
X77950Y-52350D01*
X74758Y-50605D02*
X75394Y-51241D01*
X75394Y-51241D02*
X75041Y-51594D01*
X75041Y-51594D02*
X74405Y-50958D01*
X74405Y-50958D02*
X74758Y-50605D01*
X73150Y-48050D02*
X73150Y-47150D01*
X73150Y-47150D02*
X73650Y-47150D01*
X73650Y-47150D02*
X73650Y-48050D01*
X73650Y-48050D02*
X73150Y-48050D01*
G54D15*
X81245Y-71782D02*
X81255Y-71792D01*
X81264Y-71820D01*
X81264Y-71839D01*
X81255Y-71867D01*
X81236Y-71886D01*
X81217Y-71895D01*
X81180Y-71904D01*
X81152Y-71904D01*
X81114Y-71895D01*
X81095Y-71886D01*
X81077Y-71867D01*
X81067Y-71839D01*
X81067Y-71820D01*
X81077Y-71792D01*
X81086Y-71782D01*
X81067Y-71717D02*
X81067Y-71595D01*
X81142Y-71660D01*
X81142Y-71632D01*
X81152Y-71613D01*
X81161Y-71604D01*
X81180Y-71595D01*
X81227Y-71595D01*
X81245Y-71604D01*
X81255Y-71613D01*
X81264Y-71632D01*
X81264Y-71689D01*
X81255Y-71707D01*
X81245Y-71717D01*
X80255Y-71782D02*
X80265Y-71792D01*
X80274Y-71820D01*
X80274Y-71839D01*
X80265Y-71867D01*
X80246Y-71886D01*
X80227Y-71895D01*
X80190Y-71904D01*
X80162Y-71904D01*
X80124Y-71895D01*
X80105Y-71886D01*
X80087Y-71867D01*
X80077Y-71839D01*
X80077Y-71820D01*
X80087Y-71792D01*
X80096Y-71782D01*
X80162Y-71670D02*
X80152Y-71689D01*
X80143Y-71698D01*
X80124Y-71707D01*
X80115Y-71707D01*
X80096Y-71698D01*
X80087Y-71689D01*
X80077Y-71670D01*
X80077Y-71632D01*
X80087Y-71613D01*
X80096Y-71604D01*
X80115Y-71595D01*
X80124Y-71595D01*
X80143Y-71604D01*
X80152Y-71613D01*
X80162Y-71632D01*
X80162Y-71670D01*
X80171Y-71689D01*
X80180Y-71698D01*
X80199Y-71707D01*
X80237Y-71707D01*
X80255Y-71698D01*
X80265Y-71689D01*
X80274Y-71670D01*
X80274Y-71632D01*
X80265Y-71613D01*
X80255Y-71604D01*
X80237Y-71595D01*
X80199Y-71595D01*
X80180Y-71604D01*
X80171Y-71613D01*
X80162Y-71632D01*
X82245Y-71782D02*
X82255Y-71792D01*
X82264Y-71820D01*
X82264Y-71839D01*
X82255Y-71867D01*
X82236Y-71886D01*
X82217Y-71895D01*
X82180Y-71904D01*
X82152Y-71904D01*
X82114Y-71895D01*
X82095Y-71886D01*
X82077Y-71867D01*
X82067Y-71839D01*
X82067Y-71820D01*
X82077Y-71792D01*
X82086Y-71782D01*
X82086Y-71707D02*
X82077Y-71698D01*
X82067Y-71679D01*
X82067Y-71632D01*
X82077Y-71613D01*
X82086Y-71604D01*
X82105Y-71595D01*
X82124Y-71595D01*
X82152Y-71604D01*
X82264Y-71717D01*
X82264Y-71595D01*
X79255Y-71782D02*
X79265Y-71792D01*
X79274Y-71820D01*
X79274Y-71839D01*
X79265Y-71867D01*
X79246Y-71886D01*
X79227Y-71895D01*
X79190Y-71904D01*
X79162Y-71904D01*
X79124Y-71895D01*
X79105Y-71886D01*
X79087Y-71867D01*
X79077Y-71839D01*
X79077Y-71820D01*
X79087Y-71792D01*
X79096Y-71782D01*
X79077Y-71604D02*
X79077Y-71698D01*
X79171Y-71707D01*
X79162Y-71698D01*
X79152Y-71679D01*
X79152Y-71632D01*
X79162Y-71613D01*
X79171Y-71604D01*
X79190Y-71595D01*
X79237Y-71595D01*
X79255Y-71604D01*
X79265Y-71613D01*
X79274Y-71632D01*
X79274Y-71679D01*
X79265Y-71698D01*
X79255Y-71707D01*
X83245Y-71782D02*
X83255Y-71792D01*
X83264Y-71820D01*
X83264Y-71839D01*
X83255Y-71867D01*
X83236Y-71886D01*
X83217Y-71895D01*
X83180Y-71904D01*
X83152Y-71904D01*
X83114Y-71895D01*
X83095Y-71886D01*
X83077Y-71867D01*
X83067Y-71839D01*
X83067Y-71820D01*
X83077Y-71792D01*
X83086Y-71782D01*
X83264Y-71595D02*
X83264Y-71707D01*
X83264Y-71651D02*
X83067Y-71651D01*
X83095Y-71670D01*
X83114Y-71689D01*
X83124Y-71707D01*
X78245Y-71782D02*
X78255Y-71792D01*
X78264Y-71820D01*
X78264Y-71839D01*
X78255Y-71867D01*
X78236Y-71886D01*
X78217Y-71895D01*
X78180Y-71904D01*
X78152Y-71904D01*
X78114Y-71895D01*
X78095Y-71886D01*
X78077Y-71867D01*
X78067Y-71839D01*
X78067Y-71820D01*
X78077Y-71792D01*
X78086Y-71782D01*
X78067Y-71613D02*
X78067Y-71651D01*
X78077Y-71670D01*
X78086Y-71679D01*
X78114Y-71698D01*
X78152Y-71707D01*
X78227Y-71707D01*
X78245Y-71698D01*
X78255Y-71689D01*
X78264Y-71670D01*
X78264Y-71632D01*
X78255Y-71613D01*
X78245Y-71604D01*
X78227Y-71595D01*
X78180Y-71595D01*
X78161Y-71604D01*
X78152Y-71613D01*
X78142Y-71632D01*
X78142Y-71670D01*
X78152Y-71689D01*
X78161Y-71698D01*
X78180Y-71707D01*
X84245Y-71782D02*
X84255Y-71792D01*
X84264Y-71820D01*
X84264Y-71839D01*
X84255Y-71867D01*
X84236Y-71886D01*
X84217Y-71895D01*
X84180Y-71904D01*
X84152Y-71904D01*
X84114Y-71895D01*
X84095Y-71886D01*
X84077Y-71867D01*
X84067Y-71839D01*
X84067Y-71820D01*
X84077Y-71792D01*
X84086Y-71782D01*
X84133Y-71613D02*
X84264Y-71613D01*
X84058Y-71660D02*
X84199Y-71707D01*
X84199Y-71585D01*
X77255Y-71782D02*
X77265Y-71792D01*
X77274Y-71820D01*
X77274Y-71839D01*
X77265Y-71867D01*
X77246Y-71886D01*
X77227Y-71895D01*
X77190Y-71904D01*
X77162Y-71904D01*
X77124Y-71895D01*
X77105Y-71886D01*
X77087Y-71867D01*
X77077Y-71839D01*
X77077Y-71820D01*
X77087Y-71792D01*
X77096Y-71782D01*
X77077Y-71717D02*
X77077Y-71585D01*
X77274Y-71670D01*
G54D16*
X74652Y-44179D02*
X74724Y-44106D01*
X74829Y-44284D02*
X74688Y-44143D01*
X74908Y-44205D02*
X74767Y-44064D01*
X74834Y-44131D02*
X74907Y-44058D01*
X74981Y-44132D02*
X74840Y-43991D01*
X74908Y-43950D02*
X74907Y-43937D01*
X74912Y-43918D01*
X74943Y-43888D01*
X74961Y-43883D01*
X74974Y-43883D01*
X74994Y-43891D01*
X75007Y-43904D01*
X75021Y-43930D01*
X75029Y-44084D01*
X75108Y-44005D01*
X78168Y-42480D02*
X78271Y-42480D01*
X78220Y-42680D02*
X78220Y-42480D01*
X78331Y-42680D02*
X78331Y-42480D01*
X78331Y-42576D02*
X78434Y-42576D01*
X78434Y-42680D02*
X78434Y-42480D01*
X78502Y-42480D02*
X78614Y-42480D01*
X78554Y-42557D01*
X78580Y-42557D01*
X78597Y-42566D01*
X78605Y-42576D01*
X78614Y-42595D01*
X78614Y-42642D01*
X78605Y-42661D01*
X78597Y-42671D01*
X78580Y-42680D01*
X78528Y-42680D01*
X78511Y-42671D01*
X78502Y-42661D01*
X81820Y-43852D02*
X81893Y-43924D01*
X81715Y-44029D02*
X81856Y-43888D01*
X81794Y-44108D02*
X81935Y-43967D01*
X81868Y-44034D02*
X81941Y-44107D01*
X81867Y-44181D02*
X82008Y-44040D01*
X82076Y-44202D02*
X81982Y-44296D01*
X82100Y-44118D02*
X81968Y-44188D01*
X82047Y-44267D01*
X83280Y-47831D02*
X83280Y-47728D01*
X83480Y-47780D02*
X83280Y-47780D01*
X83480Y-47668D02*
X83280Y-47668D01*
X83376Y-47668D02*
X83376Y-47565D01*
X83480Y-47565D02*
X83280Y-47565D01*
X83280Y-47394D02*
X83280Y-47480D01*
X83376Y-47488D01*
X83366Y-47480D01*
X83357Y-47462D01*
X83357Y-47420D01*
X83366Y-47402D01*
X83376Y-47394D01*
X83395Y-47385D01*
X83442Y-47385D01*
X83461Y-47394D01*
X83471Y-47402D01*
X83480Y-47420D01*
X83480Y-47462D01*
X83471Y-47480D01*
X83461Y-47488D01*
X81652Y-51179D02*
X81724Y-51106D01*
X81829Y-51284D02*
X81688Y-51143D01*
X81908Y-51205D02*
X81767Y-51064D01*
X81834Y-51131D02*
X81907Y-51058D01*
X81981Y-51132D02*
X81840Y-50991D01*
X81955Y-50876D02*
X81930Y-50900D01*
X81925Y-50919D01*
X81926Y-50932D01*
X81934Y-50964D01*
X81955Y-50997D01*
X82009Y-51051D01*
X82028Y-51058D01*
X82041Y-51059D01*
X82060Y-51054D01*
X82084Y-51029D01*
X82089Y-51011D01*
X82089Y-50998D01*
X82081Y-50978D01*
X82048Y-50945D01*
X82028Y-50937D01*
X82015Y-50937D01*
X81996Y-50942D01*
X81972Y-50966D01*
X81967Y-50985D01*
X81968Y-50998D01*
X81975Y-51017D01*
X78168Y-52480D02*
X78271Y-52480D01*
X78220Y-52680D02*
X78220Y-52480D01*
X78331Y-52680D02*
X78331Y-52480D01*
X78331Y-52576D02*
X78434Y-52576D01*
X78434Y-52680D02*
X78434Y-52480D01*
X78502Y-52480D02*
X78622Y-52480D01*
X78545Y-52680D01*
X74820Y-50852D02*
X74893Y-50924D01*
X74715Y-51029D02*
X74856Y-50888D01*
X74794Y-51108D02*
X74935Y-50967D01*
X74868Y-51034D02*
X74941Y-51107D01*
X74867Y-51181D02*
X75008Y-51040D01*
X75026Y-51179D02*
X75021Y-51160D01*
X75021Y-51147D01*
X75029Y-51128D01*
X75036Y-51121D01*
X75055Y-51114D01*
X75068Y-51113D01*
X75087Y-51118D01*
X75111Y-51143D01*
X75116Y-51161D01*
X75116Y-51174D01*
X75108Y-51194D01*
X75102Y-51201D01*
X75082Y-51208D01*
X75069Y-51209D01*
X75050Y-51203D01*
X75026Y-51179D01*
X75007Y-51174D01*
X74994Y-51174D01*
X74975Y-51182D01*
X74948Y-51209D01*
X74941Y-51228D01*
X74940Y-51241D01*
X74945Y-51260D01*
X74970Y-51284D01*
X74988Y-51289D01*
X75001Y-51289D01*
X75021Y-51281D01*
X75048Y-51254D01*
X75055Y-51235D01*
X75056Y-51222D01*
X75050Y-51203D01*
X73280Y-47831D02*
X73280Y-47728D01*
X73480Y-47780D02*
X73280Y-47780D01*
X73480Y-47668D02*
X73280Y-47668D01*
X73376Y-47668D02*
X73376Y-47565D01*
X73480Y-47565D02*
X73280Y-47565D01*
X73480Y-47385D02*
X73480Y-47488D01*
X73480Y-47437D02*
X73280Y-47437D01*
X73309Y-47454D01*
X73328Y-47471D01*
X73338Y-47488D01*
G54D10*
X81769Y-69889D02*
X81769Y-69495D01*
X81919Y-69495D01*
X81956Y-69514D01*
X81975Y-69533D01*
X81994Y-69570D01*
X81994Y-69626D01*
X81975Y-69664D01*
X81956Y-69683D01*
X81919Y-69701D01*
X81769Y-69701D01*
X82369Y-69889D02*
X82144Y-69889D01*
X82256Y-69889D02*
X82256Y-69495D01*
X82219Y-69551D01*
X82181Y-69589D01*
X82144Y-69608D01*
M02*
