G04 (created by PCBNEW (2013-07-07 BZR 4022)-stable) date 12/18/2014 6:53:03 AM*
%MOIN*%
G04 Gerber Fmt 3.4, Leading zero omitted, Abs format*
%FSLAX34Y34*%
G01*
G70*
G90*
G04 APERTURE LIST*
%ADD10C,0.00590551*%
%ADD11C,0.09*%
%ADD12R,0.023622X0.0590551*%
%ADD13R,0.03X0.02*%
%ADD14R,0.0315X0.0394*%
%ADD15R,0.08X0.06*%
%ADD16R,0.06X0.08*%
%ADD17R,0.035X0.055*%
%ADD18R,0.055X0.035*%
%ADD19R,0.045X0.025*%
%ADD20R,0.025X0.045*%
%ADD21R,0.0590551X0.0590551*%
%ADD22C,0.045*%
%ADD23C,0.035*%
%ADD24C,0.03*%
%ADD25C,0.01*%
%ADD26C,0.007*%
G04 APERTURE END LIST*
G54D10*
G54D11*
X83010Y-45680D03*
X73780Y-45640D03*
G54D12*
X74228Y-54287D03*
X74728Y-54287D03*
X75228Y-54287D03*
X75728Y-54287D03*
X76228Y-54287D03*
X76728Y-54287D03*
X77228Y-54287D03*
X77228Y-56412D03*
X76728Y-56412D03*
X76228Y-56412D03*
X75728Y-56412D03*
X75228Y-56412D03*
X74728Y-56412D03*
X74228Y-56412D03*
G54D13*
X76680Y-64555D03*
X76680Y-65305D03*
X75680Y-64555D03*
X76680Y-64930D03*
X75680Y-65305D03*
G54D14*
X78550Y-64417D03*
X78175Y-65283D03*
X78925Y-65283D03*
G54D15*
X78400Y-49450D03*
X78400Y-50750D03*
G54D10*
G36*
X77288Y-48145D02*
X77854Y-48711D01*
X77430Y-49135D01*
X76864Y-48569D01*
X77288Y-48145D01*
X77288Y-48145D01*
G37*
G36*
X76369Y-49064D02*
X76935Y-49630D01*
X76511Y-50054D01*
X75945Y-49488D01*
X76369Y-49064D01*
X76369Y-49064D01*
G37*
G36*
X78945Y-48711D02*
X79511Y-48145D01*
X79935Y-48569D01*
X79369Y-49135D01*
X78945Y-48711D01*
X78945Y-48711D01*
G37*
G36*
X79864Y-49630D02*
X80430Y-49064D01*
X80854Y-49488D01*
X80288Y-50054D01*
X79864Y-49630D01*
X79864Y-49630D01*
G37*
G54D16*
X80250Y-47600D03*
X81550Y-47600D03*
G54D10*
G36*
X79511Y-47054D02*
X78945Y-46488D01*
X79369Y-46064D01*
X79935Y-46630D01*
X79511Y-47054D01*
X79511Y-47054D01*
G37*
G36*
X80430Y-46135D02*
X79864Y-45569D01*
X80288Y-45145D01*
X80854Y-45711D01*
X80430Y-46135D01*
X80430Y-46135D01*
G37*
G54D15*
X78400Y-45750D03*
X78400Y-44450D03*
G54D10*
G36*
X77854Y-46488D02*
X77288Y-47054D01*
X76864Y-46630D01*
X77430Y-46064D01*
X77854Y-46488D01*
X77854Y-46488D01*
G37*
G36*
X76935Y-45569D02*
X76369Y-46135D01*
X75945Y-45711D01*
X76511Y-45145D01*
X76935Y-45569D01*
X76935Y-45569D01*
G37*
G54D16*
X76550Y-47600D03*
X75250Y-47600D03*
G54D17*
X76635Y-63820D03*
X75885Y-63820D03*
G54D18*
X81600Y-53075D03*
X81600Y-52325D03*
G54D17*
X75225Y-53250D03*
X74475Y-53250D03*
G54D18*
X79900Y-65175D03*
X79900Y-64425D03*
X79140Y-60045D03*
X79140Y-60795D03*
X77930Y-60055D03*
X77930Y-60805D03*
G54D19*
X82000Y-62250D03*
X82000Y-61650D03*
X79500Y-61650D03*
X79500Y-62250D03*
X80060Y-69870D03*
X80060Y-69270D03*
X82700Y-61650D03*
X82700Y-62250D03*
X80200Y-61650D03*
X80200Y-62250D03*
X80900Y-62250D03*
X80900Y-61650D03*
X79500Y-58050D03*
X79500Y-57450D03*
X79400Y-58750D03*
X79400Y-59350D03*
X79070Y-69880D03*
X79070Y-69280D03*
X80200Y-58050D03*
X80200Y-57450D03*
X80900Y-57450D03*
X80900Y-58050D03*
X83400Y-58050D03*
X83400Y-57450D03*
X83600Y-58650D03*
X83600Y-59250D03*
X78070Y-69890D03*
X78070Y-69290D03*
X80750Y-65800D03*
X80750Y-65200D03*
X82700Y-58050D03*
X82700Y-57450D03*
X82000Y-57450D03*
X82000Y-58050D03*
X77070Y-69890D03*
X77070Y-69290D03*
X83400Y-62850D03*
X83400Y-63450D03*
X77050Y-58150D03*
X77050Y-57550D03*
X83400Y-61650D03*
X83400Y-62250D03*
G54D20*
X73730Y-59490D03*
X73130Y-59490D03*
G54D19*
X74850Y-66050D03*
X74850Y-65450D03*
X74850Y-64950D03*
X74850Y-64350D03*
X73550Y-62950D03*
X73550Y-63550D03*
X73550Y-61750D03*
X73550Y-62350D03*
X84050Y-69850D03*
X84050Y-69250D03*
X74450Y-61750D03*
X74450Y-62350D03*
X75150Y-62350D03*
X75150Y-61750D03*
X79500Y-62850D03*
X79500Y-63450D03*
G54D20*
X73130Y-58810D03*
X73730Y-58810D03*
G54D19*
X83100Y-69850D03*
X83100Y-69250D03*
X74450Y-58150D03*
X74450Y-57550D03*
X75150Y-57550D03*
X75150Y-58150D03*
X77810Y-57030D03*
X77810Y-56430D03*
X77850Y-58850D03*
X77850Y-59450D03*
X82060Y-69850D03*
X82060Y-69250D03*
X76350Y-57550D03*
X76350Y-58150D03*
X77650Y-62950D03*
X77650Y-63550D03*
X77650Y-61750D03*
X77650Y-62350D03*
X81080Y-69850D03*
X81080Y-69250D03*
X76950Y-61750D03*
X76950Y-62350D03*
X76250Y-62350D03*
X76250Y-61750D03*
G54D21*
X84060Y-70730D03*
X83060Y-70730D03*
X82060Y-70730D03*
X81060Y-70730D03*
X80060Y-70730D03*
X79060Y-70730D03*
X78060Y-70730D03*
X77060Y-70730D03*
X76060Y-70730D03*
X75060Y-70730D03*
X74060Y-70730D03*
X73060Y-70730D03*
G54D12*
X74228Y-58887D03*
X74728Y-58887D03*
X75228Y-58887D03*
X75728Y-58887D03*
X76228Y-58887D03*
X76728Y-58887D03*
X77228Y-58887D03*
X77228Y-61012D03*
X76728Y-61012D03*
X76228Y-61012D03*
X75728Y-61012D03*
X75228Y-61012D03*
X74728Y-61012D03*
X74228Y-61012D03*
X79978Y-54187D03*
X80478Y-54187D03*
X80978Y-54187D03*
X81478Y-54187D03*
X81978Y-54187D03*
X82478Y-54187D03*
X82978Y-54187D03*
X82978Y-56312D03*
X82478Y-56312D03*
X81978Y-56312D03*
X81478Y-56312D03*
X80978Y-56312D03*
X80478Y-56312D03*
X79978Y-56312D03*
X79978Y-58787D03*
X80478Y-58787D03*
X80978Y-58787D03*
X81478Y-58787D03*
X81978Y-58787D03*
X82478Y-58787D03*
X82978Y-58787D03*
X82978Y-60912D03*
X82478Y-60912D03*
X81978Y-60912D03*
X81478Y-60912D03*
X80978Y-60912D03*
X80478Y-60912D03*
X79978Y-60912D03*
G54D22*
X78400Y-47600D03*
X82950Y-53300D03*
X82900Y-64380D03*
X74470Y-63670D03*
X73220Y-53300D03*
G54D23*
X78970Y-66130D03*
X78570Y-67440D03*
X77270Y-55520D03*
X81320Y-46060D03*
X79750Y-43600D03*
X75120Y-46620D03*
X83810Y-55560D03*
X75720Y-62770D03*
X75180Y-63770D03*
X72980Y-55230D03*
X79020Y-63920D03*
X79340Y-64860D03*
X75750Y-57550D03*
X75750Y-60300D03*
X72710Y-53880D03*
X83800Y-52700D03*
X79550Y-53100D03*
X82450Y-52700D03*
X81500Y-57450D03*
X81500Y-60250D03*
X82510Y-67840D03*
X79990Y-60370D03*
X74190Y-66930D03*
X73650Y-57900D03*
X81090Y-68210D03*
X76970Y-60240D03*
X83470Y-60860D03*
X83660Y-68200D03*
X82850Y-68530D03*
X77390Y-68490D03*
X79090Y-68750D03*
X80860Y-59570D03*
X83330Y-64850D03*
X82680Y-65890D03*
X82490Y-67300D03*
X82420Y-59770D03*
X74050Y-51900D03*
X74500Y-47600D03*
X75800Y-52500D03*
X75900Y-45100D03*
X76250Y-55450D03*
X78400Y-43800D03*
X82000Y-55450D03*
X78400Y-51500D03*
X80550Y-55400D03*
X78850Y-54150D03*
X75900Y-50100D03*
X75250Y-55800D03*
X80900Y-45100D03*
X80950Y-53450D03*
X82300Y-47600D03*
X81950Y-53550D03*
X80900Y-50100D03*
X78350Y-58370D03*
X82050Y-68200D03*
X74740Y-54800D03*
X75250Y-60330D03*
X74550Y-63050D03*
X74450Y-57050D03*
X78470Y-62860D03*
X79380Y-53880D03*
X82500Y-54950D03*
X79500Y-56850D03*
X79250Y-56270D03*
X80190Y-63290D03*
X77480Y-64090D03*
X75060Y-69450D03*
X73260Y-60430D03*
X73370Y-55810D03*
X78350Y-55050D03*
X79400Y-55350D03*
X80190Y-56970D03*
X80800Y-63070D03*
X78470Y-56780D03*
X78340Y-57770D03*
X76125Y-64785D03*
X76960Y-63000D03*
X76800Y-57100D03*
G54D22*
X78160Y-66060D03*
X77530Y-67440D03*
G54D24*
X78400Y-47600D02*
X78400Y-49450D01*
X80250Y-47850D02*
X81650Y-49250D01*
X81650Y-49250D02*
X82600Y-49250D01*
X82600Y-49250D02*
X83350Y-50000D01*
X82950Y-52050D02*
X82950Y-53300D01*
X80250Y-47600D02*
X80250Y-47850D01*
X83350Y-51350D02*
X83350Y-50000D01*
X82950Y-51750D02*
X83350Y-51350D01*
X82950Y-52050D02*
X82950Y-51750D01*
X76700Y-66050D02*
X77550Y-65200D01*
X77550Y-65200D02*
X77550Y-64700D01*
X77550Y-64700D02*
X77833Y-64417D01*
X77833Y-64417D02*
X79892Y-64417D01*
X79892Y-64417D02*
X79909Y-64400D01*
X79909Y-64400D02*
X82950Y-64400D01*
X76700Y-66050D02*
X74850Y-66050D01*
X82880Y-64400D02*
X82950Y-64400D01*
X82900Y-64380D02*
X82880Y-64400D01*
X74470Y-63670D02*
X74320Y-63820D01*
X74320Y-63820D02*
X74320Y-65970D01*
X74320Y-65970D02*
X74400Y-66050D01*
X76550Y-47850D02*
X75300Y-49100D01*
X75300Y-49100D02*
X74500Y-49100D01*
X74500Y-49100D02*
X73550Y-50050D01*
X73550Y-50050D02*
X73550Y-52200D01*
X73550Y-52200D02*
X73950Y-52600D01*
X73950Y-52600D02*
X73220Y-53300D01*
X76550Y-47850D02*
X76550Y-47600D01*
X74850Y-66050D02*
X74400Y-66050D01*
X76550Y-47600D02*
X78300Y-47600D01*
X78300Y-47600D02*
X78400Y-47600D01*
X77359Y-46559D02*
X78400Y-47600D01*
X77359Y-48640D02*
X78400Y-47600D01*
X78400Y-47600D02*
X79440Y-46559D01*
X80250Y-47600D02*
X78400Y-47600D01*
X78400Y-47200D02*
X78400Y-47600D01*
X78400Y-45750D02*
X78400Y-47200D01*
X79440Y-48640D02*
X78400Y-47600D01*
G54D25*
X77359Y-48640D02*
X77359Y-48540D01*
X78970Y-66130D02*
X80420Y-66130D01*
X80420Y-66130D02*
X80750Y-65800D01*
X76060Y-70730D02*
X76060Y-68670D01*
X78925Y-66085D02*
X78925Y-65283D01*
X78970Y-66130D02*
X78925Y-66085D01*
X78130Y-67880D02*
X78570Y-67440D01*
X76850Y-67880D02*
X78130Y-67880D01*
X76060Y-68670D02*
X76850Y-67880D01*
G54D26*
X81320Y-46060D02*
X81340Y-46080D01*
G54D24*
X82800Y-47220D02*
X82550Y-46970D01*
X82550Y-46970D02*
X82230Y-46970D01*
X82230Y-46970D02*
X82040Y-46780D01*
X82040Y-46780D02*
X81630Y-46780D01*
X81630Y-46780D02*
X81340Y-46490D01*
X81340Y-46490D02*
X81340Y-46080D01*
X80100Y-43600D02*
X81360Y-44860D01*
X81340Y-46080D02*
X81340Y-44880D01*
X81340Y-44880D02*
X81360Y-44860D01*
X79750Y-43600D02*
X80100Y-43600D01*
X74050Y-47260D02*
X74050Y-47240D01*
X74050Y-47260D02*
X74050Y-48900D01*
X74050Y-48900D02*
X73100Y-49850D01*
X73100Y-49850D02*
X73100Y-52650D01*
X73100Y-52650D02*
X72710Y-52940D01*
X72710Y-53830D02*
X72710Y-52940D01*
X72710Y-53880D02*
X72710Y-53830D01*
X74670Y-46620D02*
X75120Y-46620D01*
X74050Y-47240D02*
X74670Y-46620D01*
G54D25*
X79900Y-65175D02*
X80725Y-65175D01*
X80725Y-65175D02*
X80750Y-65200D01*
X81478Y-56312D02*
X81478Y-55371D01*
X81478Y-55371D02*
X81840Y-55010D01*
X81840Y-55010D02*
X82050Y-55010D01*
X82050Y-55010D02*
X82580Y-55540D01*
X82580Y-55540D02*
X83790Y-55540D01*
X83790Y-55540D02*
X83810Y-55560D01*
X75885Y-63820D02*
X75230Y-63820D01*
X75728Y-62761D02*
X75728Y-62271D01*
X75720Y-62770D02*
X75728Y-62761D01*
X75230Y-63820D02*
X75180Y-63770D01*
G54D24*
X72710Y-53880D02*
X72710Y-54960D01*
X72710Y-54960D02*
X72980Y-55230D01*
G54D25*
X79140Y-60795D02*
X79425Y-60795D01*
X81300Y-60450D02*
X81500Y-60250D01*
X80470Y-60450D02*
X81300Y-60450D01*
X80330Y-60310D02*
X80470Y-60450D01*
X80330Y-60230D02*
X80330Y-60310D01*
X80130Y-60030D02*
X80330Y-60230D01*
X79850Y-60030D02*
X80130Y-60030D01*
X79630Y-60250D02*
X79850Y-60030D01*
X79630Y-60590D02*
X79630Y-60250D01*
X79425Y-60795D02*
X79630Y-60590D01*
X75750Y-60300D02*
X75750Y-60110D01*
X77500Y-60375D02*
X77930Y-60805D01*
X77500Y-60020D02*
X77500Y-60375D01*
X77271Y-59791D02*
X77500Y-60020D01*
X76068Y-59791D02*
X77271Y-59791D01*
X75750Y-60110D02*
X76068Y-59791D01*
X77930Y-60805D02*
X79130Y-60805D01*
X79130Y-60805D02*
X79140Y-60795D01*
X77930Y-60805D02*
X77930Y-61210D01*
X77930Y-61210D02*
X78100Y-61380D01*
X78100Y-61380D02*
X78100Y-63000D01*
X78100Y-63000D02*
X79020Y-63920D01*
X79340Y-64860D02*
X79655Y-65175D01*
X79655Y-65175D02*
X79900Y-65175D01*
X75885Y-63820D02*
X75885Y-63935D01*
X75885Y-63935D02*
X75470Y-64350D01*
X75680Y-64555D02*
X75675Y-64555D01*
X75470Y-64350D02*
X74850Y-64350D01*
X75675Y-64555D02*
X75470Y-64350D01*
X75728Y-62271D02*
X75728Y-62198D01*
X75728Y-62198D02*
X75560Y-62030D01*
X75560Y-62030D02*
X75560Y-61181D01*
X75560Y-61181D02*
X75728Y-61012D01*
X74475Y-53250D02*
X74475Y-53475D01*
X72810Y-53780D02*
X72710Y-53880D01*
X74200Y-53750D02*
X72810Y-53780D01*
X74475Y-53475D02*
X74200Y-53750D01*
X81600Y-52325D02*
X82075Y-52325D01*
X82075Y-52325D02*
X82450Y-52700D01*
X75750Y-57550D02*
X75750Y-56434D01*
X75750Y-56434D02*
X75728Y-56412D01*
X75728Y-61012D02*
X75728Y-60321D01*
X75728Y-60321D02*
X75750Y-60300D01*
X75750Y-57550D02*
X76350Y-57550D01*
X76350Y-57550D02*
X75150Y-57550D01*
G54D24*
X82800Y-47200D02*
X82800Y-47220D01*
X82800Y-47220D02*
X82800Y-48700D01*
X82800Y-48700D02*
X83800Y-49700D01*
X83800Y-49700D02*
X83800Y-52700D01*
G54D25*
X79550Y-53100D02*
X79950Y-52700D01*
X79950Y-52700D02*
X82450Y-52700D01*
X81500Y-57450D02*
X81500Y-56334D01*
X81500Y-56334D02*
X81478Y-56312D01*
X81500Y-57450D02*
X82000Y-57450D01*
X81478Y-60912D02*
X81478Y-60271D01*
X81478Y-60271D02*
X81500Y-60250D01*
X81500Y-57450D02*
X80900Y-57450D01*
X81478Y-62171D02*
X81521Y-62171D01*
X81600Y-62250D02*
X82000Y-62250D01*
X81521Y-62171D02*
X81600Y-62250D01*
X81478Y-60912D02*
X81478Y-62171D01*
X81400Y-62250D02*
X80900Y-62250D01*
X81478Y-62171D02*
X81400Y-62250D01*
X76250Y-62350D02*
X75807Y-62350D01*
X75807Y-62350D02*
X75728Y-62271D01*
X75650Y-62350D02*
X75150Y-62350D01*
X75728Y-62271D02*
X75650Y-62350D01*
X76350Y-58150D02*
X77050Y-58150D01*
X77050Y-58150D02*
X76728Y-58471D01*
X76728Y-58471D02*
X76728Y-58887D01*
X79500Y-62250D02*
X79500Y-62020D01*
X80978Y-61128D02*
X80978Y-60912D01*
X81278Y-61428D02*
X80978Y-61128D01*
X81278Y-61850D02*
X81278Y-61428D01*
X81168Y-61960D02*
X81278Y-61850D01*
X79560Y-61960D02*
X81168Y-61960D01*
X79500Y-62020D02*
X79560Y-61960D01*
X79500Y-62850D02*
X79500Y-62250D01*
X79978Y-60912D02*
X79978Y-60381D01*
X80060Y-68510D02*
X80730Y-67840D01*
X80730Y-67840D02*
X82510Y-67840D01*
X80060Y-68510D02*
X80060Y-69270D01*
X79978Y-60381D02*
X79990Y-60370D01*
X79978Y-60631D02*
X79978Y-60912D01*
X79500Y-61650D02*
X79500Y-61571D01*
X79500Y-61571D02*
X80048Y-61022D01*
X76250Y-61750D02*
X76950Y-61750D01*
X76950Y-61750D02*
X76950Y-61550D01*
X76728Y-61328D02*
X76728Y-61012D01*
X76950Y-61550D02*
X76728Y-61328D01*
X73730Y-58810D02*
X73730Y-59490D01*
X73730Y-59490D02*
X75040Y-59490D01*
X75228Y-59301D02*
X75228Y-58887D01*
X75040Y-59490D02*
X75228Y-59301D01*
X80220Y-66950D02*
X74210Y-66950D01*
X74210Y-66950D02*
X74190Y-66930D01*
X73920Y-58340D02*
X73920Y-58170D01*
X73920Y-58170D02*
X73650Y-57900D01*
X82460Y-68610D02*
X83100Y-69250D01*
X82460Y-68420D02*
X82460Y-68610D01*
X82970Y-67910D02*
X82460Y-68420D01*
X82970Y-67150D02*
X82970Y-67910D01*
X82770Y-66950D02*
X82970Y-67150D01*
X80210Y-66950D02*
X80220Y-66950D01*
X80220Y-66950D02*
X82770Y-66950D01*
X80200Y-66940D02*
X80210Y-66950D01*
X73130Y-58810D02*
X73130Y-58670D01*
X74228Y-58648D02*
X74228Y-58887D01*
X73920Y-58340D02*
X74228Y-58648D01*
X73460Y-58340D02*
X73920Y-58340D01*
X73130Y-58670D02*
X73460Y-58340D01*
X74450Y-61750D02*
X74450Y-61650D01*
X74728Y-61371D02*
X74728Y-61012D01*
X74450Y-61650D02*
X74728Y-61371D01*
X74450Y-61750D02*
X75150Y-61750D01*
X74750Y-61034D02*
X74728Y-61012D01*
X76680Y-65305D02*
X76445Y-65305D01*
X75070Y-65670D02*
X74850Y-65450D01*
X76080Y-65670D02*
X75070Y-65670D01*
X76445Y-65305D02*
X76080Y-65670D01*
X74850Y-64950D02*
X74850Y-65450D01*
X75150Y-58150D02*
X74450Y-58150D01*
X74728Y-58887D02*
X74728Y-58428D01*
X74728Y-58428D02*
X74450Y-58150D01*
X83400Y-62850D02*
X83600Y-62850D01*
X81978Y-60471D02*
X81978Y-60912D01*
X81990Y-60460D02*
X81978Y-60471D01*
X83700Y-60460D02*
X81990Y-60460D01*
X83800Y-60560D02*
X83700Y-60460D01*
X83800Y-62650D02*
X83800Y-60560D01*
X83600Y-62850D02*
X83800Y-62650D01*
X83400Y-62250D02*
X83400Y-62850D01*
X76970Y-60240D02*
X77228Y-60498D01*
X77228Y-60498D02*
X77228Y-61012D01*
X81080Y-69250D02*
X81090Y-68210D01*
X81090Y-68210D02*
X81090Y-68210D01*
X77650Y-61750D02*
X77650Y-61434D01*
X77650Y-61434D02*
X77228Y-61012D01*
X77070Y-69290D02*
X77070Y-68810D01*
X83417Y-60912D02*
X82978Y-60912D01*
X83470Y-60860D02*
X83417Y-60912D01*
X83180Y-68200D02*
X83660Y-68200D01*
X82850Y-68530D02*
X83180Y-68200D01*
X77070Y-68810D02*
X77390Y-68490D01*
X83400Y-61650D02*
X83400Y-61334D01*
X83400Y-61334D02*
X82978Y-60912D01*
X82000Y-61650D02*
X82700Y-61650D01*
X82478Y-60912D02*
X82478Y-60928D01*
X82700Y-61150D02*
X82700Y-61650D01*
X82478Y-60928D02*
X82700Y-61150D01*
X82000Y-58050D02*
X82700Y-58050D01*
X82478Y-58787D02*
X82478Y-58271D01*
X82478Y-58271D02*
X82700Y-58050D01*
X80978Y-58787D02*
X80978Y-59178D01*
X79549Y-59350D02*
X79400Y-59350D01*
X79809Y-59610D02*
X79549Y-59350D01*
X80390Y-59610D02*
X79809Y-59610D01*
X80740Y-59960D02*
X80390Y-59610D01*
X80970Y-59960D02*
X80740Y-59960D01*
X81228Y-59701D02*
X80970Y-59960D01*
X81228Y-59428D02*
X81228Y-59701D01*
X80978Y-59178D02*
X81228Y-59428D01*
X79500Y-58050D02*
X79300Y-58050D01*
X79100Y-59350D02*
X79400Y-59350D01*
X79000Y-59150D02*
X79100Y-59350D01*
X79000Y-58450D02*
X79000Y-59150D01*
X79300Y-58050D02*
X79000Y-58450D01*
X79090Y-68750D02*
X79070Y-68770D01*
X79070Y-69280D02*
X79070Y-68770D01*
X79978Y-59148D02*
X79978Y-58787D01*
X80690Y-59400D02*
X80860Y-59570D01*
X80230Y-59400D02*
X80690Y-59400D01*
X79978Y-59148D02*
X80230Y-59400D01*
X79070Y-69130D02*
X79070Y-69280D01*
X79400Y-58750D02*
X79941Y-58750D01*
X79941Y-58750D02*
X79978Y-58787D01*
X80200Y-61650D02*
X80900Y-61650D01*
X80200Y-61650D02*
X80200Y-61550D01*
X80478Y-61271D02*
X80478Y-60912D01*
X80200Y-61550D02*
X80478Y-61271D01*
X80200Y-58050D02*
X80900Y-58050D01*
X80200Y-58050D02*
X80200Y-58150D01*
X80478Y-58428D02*
X80478Y-58787D01*
X80200Y-58150D02*
X80478Y-58428D01*
X81978Y-58787D02*
X81978Y-59968D01*
X83600Y-60180D02*
X83600Y-59250D01*
X83580Y-60200D02*
X83600Y-60180D01*
X82210Y-60200D02*
X83580Y-60200D01*
X81978Y-59968D02*
X82210Y-60200D01*
X83400Y-58050D02*
X83700Y-58050D01*
X83900Y-59250D02*
X83600Y-59250D01*
X84000Y-59150D02*
X83900Y-59250D01*
X84000Y-58350D02*
X84000Y-59150D01*
X83700Y-58050D02*
X84000Y-58350D01*
X78070Y-69290D02*
X78070Y-68780D01*
X83330Y-65240D02*
X83330Y-64850D01*
X82680Y-65890D02*
X83330Y-65240D01*
X79550Y-67300D02*
X82490Y-67300D01*
X78070Y-68780D02*
X79550Y-67300D01*
X82978Y-59211D02*
X82978Y-58787D01*
X82420Y-59770D02*
X82978Y-59211D01*
X82978Y-58787D02*
X83462Y-58787D01*
X83462Y-58787D02*
X83600Y-58650D01*
X75228Y-54287D02*
X75228Y-54128D01*
X74850Y-52700D02*
X74650Y-52500D01*
X74850Y-53750D02*
X74850Y-52700D01*
X75228Y-54128D02*
X74850Y-53750D01*
X74650Y-52500D02*
X74050Y-51900D01*
X75250Y-47600D02*
X74500Y-47600D01*
X75800Y-52500D02*
X75800Y-52950D01*
X76200Y-53450D02*
X76228Y-53450D01*
X76228Y-53421D02*
X76200Y-53450D01*
X76228Y-53378D02*
X76228Y-53421D01*
X75800Y-52950D02*
X76228Y-53378D01*
X76228Y-53371D02*
X76228Y-53450D01*
X76228Y-53450D02*
X76228Y-54287D01*
X75800Y-52500D02*
X75778Y-52521D01*
X76440Y-45640D02*
X75900Y-45100D01*
X76228Y-55471D02*
X76228Y-56412D01*
X76250Y-55450D02*
X76228Y-55471D01*
X78400Y-43800D02*
X78400Y-44450D01*
X84050Y-69250D02*
X84050Y-67590D01*
X73850Y-61750D02*
X73550Y-61750D01*
X74000Y-61900D02*
X73850Y-61750D01*
X74000Y-64070D02*
X74000Y-61900D01*
X73730Y-64340D02*
X74000Y-64070D01*
X73730Y-66060D02*
X73730Y-64340D01*
X74220Y-66550D02*
X73730Y-66060D01*
X83010Y-66550D02*
X74220Y-66550D01*
X84050Y-67590D02*
X83010Y-66550D01*
X73550Y-61750D02*
X73550Y-61350D01*
X73887Y-61012D02*
X74228Y-61012D01*
X73550Y-61350D02*
X73887Y-61012D01*
X75228Y-61012D02*
X75228Y-60838D01*
X73090Y-61890D02*
X73550Y-62350D01*
X73090Y-61470D02*
X73090Y-61890D01*
X74010Y-60550D02*
X73090Y-61470D01*
X74940Y-60550D02*
X74010Y-60550D01*
X75228Y-60838D02*
X74940Y-60550D01*
X73550Y-62950D02*
X73550Y-62350D01*
X82000Y-55450D02*
X81978Y-55471D01*
X81978Y-55471D02*
X81978Y-56312D01*
X78400Y-50750D02*
X78400Y-51500D01*
X77650Y-62350D02*
X77650Y-62320D01*
X76228Y-61341D02*
X76228Y-61012D01*
X76100Y-61470D02*
X76228Y-61341D01*
X75910Y-61470D02*
X76100Y-61470D01*
X75780Y-61600D02*
X75910Y-61470D01*
X75780Y-61929D02*
X75780Y-61600D01*
X75888Y-62038D02*
X75780Y-61929D01*
X77368Y-62038D02*
X75888Y-62038D01*
X77650Y-62320D02*
X77368Y-62038D01*
X77650Y-62950D02*
X77650Y-62350D01*
X75900Y-50100D02*
X75900Y-51650D01*
X80978Y-55828D02*
X80978Y-56312D01*
X80550Y-55400D02*
X80978Y-55828D01*
X78400Y-54150D02*
X78850Y-54150D01*
X75900Y-51650D02*
X78400Y-54150D01*
X76440Y-49559D02*
X75900Y-50100D01*
X75228Y-55821D02*
X75228Y-56412D01*
X75250Y-55800D02*
X75228Y-55821D01*
X80359Y-45640D02*
X80900Y-45100D01*
X80978Y-53478D02*
X80978Y-54187D01*
X80950Y-53450D02*
X80978Y-53478D01*
X81550Y-47600D02*
X82300Y-47600D01*
X81978Y-53578D02*
X81978Y-54187D01*
X81950Y-53550D02*
X81978Y-53578D01*
X80359Y-49559D02*
X80900Y-50100D01*
X76228Y-58887D02*
X76228Y-59158D01*
X77770Y-59370D02*
X77850Y-59450D01*
X76440Y-59370D02*
X77770Y-59370D01*
X76228Y-59158D02*
X76440Y-59370D01*
X77810Y-57030D02*
X78140Y-57030D01*
X78300Y-59450D02*
X77850Y-59450D01*
X78710Y-59040D02*
X78300Y-59450D01*
X78710Y-57600D02*
X78710Y-59040D01*
X78140Y-57030D02*
X78710Y-57600D01*
X77870Y-58850D02*
X78350Y-58370D01*
X82060Y-69250D02*
X82060Y-68200D01*
X82060Y-68200D02*
X82050Y-68200D01*
X77870Y-58850D02*
X77850Y-58850D01*
X77850Y-58850D02*
X77265Y-58850D01*
X77265Y-58850D02*
X77228Y-58887D01*
X84060Y-70730D02*
X84060Y-69860D01*
X84060Y-69860D02*
X84050Y-69850D01*
X83060Y-70730D02*
X83060Y-69890D01*
X83060Y-69890D02*
X83100Y-69850D01*
X82060Y-69850D02*
X82060Y-70730D01*
X81060Y-70730D02*
X81060Y-69870D01*
X81060Y-69870D02*
X81080Y-69850D01*
X80060Y-69870D02*
X80060Y-70730D01*
X79070Y-69880D02*
X79070Y-70720D01*
X79070Y-70720D02*
X79060Y-70730D01*
X78070Y-69890D02*
X78070Y-70720D01*
X78070Y-70720D02*
X78060Y-70730D01*
X77070Y-69890D02*
X77070Y-70720D01*
X77070Y-70720D02*
X77060Y-70730D01*
X75250Y-60330D02*
X73930Y-60330D01*
X74728Y-54788D02*
X74740Y-54800D01*
X73550Y-63550D02*
X73260Y-63550D01*
X72880Y-63170D02*
X72880Y-61380D01*
X73260Y-63550D02*
X72880Y-63170D01*
X74728Y-54788D02*
X74728Y-54287D01*
X73930Y-60330D02*
X72880Y-61380D01*
X74228Y-54287D02*
X74728Y-54287D01*
X77228Y-54287D02*
X77228Y-54811D01*
X72810Y-59170D02*
X73130Y-59490D01*
X72810Y-57160D02*
X72810Y-59170D01*
X74070Y-55900D02*
X72810Y-57160D01*
X74680Y-55900D02*
X74070Y-55900D01*
X75110Y-55470D02*
X74680Y-55900D01*
X75750Y-55470D02*
X75110Y-55470D01*
X76110Y-55110D02*
X75750Y-55470D01*
X76930Y-55110D02*
X76110Y-55110D01*
X77228Y-54811D02*
X76930Y-55110D01*
X73130Y-59490D02*
X73130Y-59470D01*
X76728Y-54287D02*
X77228Y-54287D01*
X77228Y-56412D02*
X77792Y-56412D01*
X77792Y-56412D02*
X77810Y-56430D01*
X76728Y-56412D02*
X77228Y-56412D01*
X74550Y-63050D02*
X74820Y-63050D01*
X74450Y-57050D02*
X74228Y-56828D01*
X74228Y-56412D02*
X74228Y-56828D01*
X77470Y-63370D02*
X77650Y-63550D01*
X75140Y-63370D02*
X77470Y-63370D01*
X74820Y-63050D02*
X75140Y-63370D01*
X74228Y-56412D02*
X74728Y-56412D01*
X79070Y-63450D02*
X78470Y-62860D01*
X79380Y-53880D02*
X79687Y-54187D01*
X79978Y-54187D02*
X79687Y-54187D01*
X79070Y-63450D02*
X79500Y-63450D01*
X79978Y-54187D02*
X80478Y-54187D01*
X79500Y-57450D02*
X79500Y-56850D01*
X82478Y-54928D02*
X82478Y-54187D01*
X82500Y-54950D02*
X82478Y-54928D01*
X82478Y-54187D02*
X82978Y-54187D01*
X83400Y-57450D02*
X83400Y-56734D01*
X83400Y-56734D02*
X82978Y-56312D01*
X82978Y-56312D02*
X82478Y-56312D01*
X83400Y-63450D02*
X80350Y-63450D01*
X79292Y-56312D02*
X79978Y-56312D01*
X79250Y-56270D02*
X79292Y-56312D01*
X80350Y-63450D02*
X80190Y-63290D01*
X80478Y-56312D02*
X79978Y-56312D01*
X77140Y-64130D02*
X77440Y-64130D01*
X77440Y-64130D02*
X77480Y-64090D01*
X75060Y-69450D02*
X75060Y-70730D01*
X75728Y-58887D02*
X75728Y-59301D01*
X73610Y-60080D02*
X73260Y-60430D01*
X74950Y-60080D02*
X73610Y-60080D01*
X75728Y-59301D02*
X74950Y-60080D01*
X75728Y-54287D02*
X75728Y-54811D01*
X75728Y-54811D02*
X75340Y-55200D01*
X75340Y-55200D02*
X73980Y-55200D01*
X73980Y-55200D02*
X73370Y-55810D01*
X81478Y-58787D02*
X81478Y-59791D01*
X79365Y-59820D02*
X79140Y-60045D01*
X80250Y-59820D02*
X79365Y-59820D01*
X80660Y-60230D02*
X80250Y-59820D01*
X81040Y-60230D02*
X80660Y-60230D01*
X81478Y-59791D02*
X81040Y-60230D01*
X75728Y-58887D02*
X75728Y-59028D01*
X77885Y-60055D02*
X77930Y-60055D01*
X77410Y-59580D02*
X77885Y-60055D01*
X76280Y-59580D02*
X77410Y-59580D01*
X75728Y-59028D02*
X76280Y-59580D01*
X79140Y-60045D02*
X77940Y-60045D01*
X77940Y-60045D02*
X77930Y-60055D01*
X76635Y-63820D02*
X76840Y-63820D01*
X77000Y-64930D02*
X76680Y-64930D01*
X77140Y-64790D02*
X77000Y-64930D01*
X77140Y-64120D02*
X77140Y-64130D01*
X77140Y-64130D02*
X77140Y-64790D01*
X76840Y-63820D02*
X77140Y-64120D01*
X75225Y-53250D02*
X75250Y-53250D01*
X75250Y-53250D02*
X75728Y-53728D01*
X81600Y-53075D02*
X81600Y-53450D01*
X81478Y-53571D02*
X81478Y-54187D01*
X81600Y-53450D02*
X81478Y-53571D01*
X75728Y-54287D02*
X75728Y-53728D01*
X75728Y-53728D02*
X75728Y-53378D01*
X75728Y-53378D02*
X75550Y-53200D01*
X75550Y-53200D02*
X75550Y-52750D01*
X75550Y-52750D02*
X75350Y-52550D01*
X75350Y-52550D02*
X75350Y-52250D01*
X75350Y-52250D02*
X75500Y-52100D01*
X75500Y-52100D02*
X75950Y-52100D01*
X75950Y-52100D02*
X78350Y-54500D01*
X78350Y-54500D02*
X78350Y-55050D01*
X79400Y-55350D02*
X79750Y-55000D01*
X79750Y-55000D02*
X81350Y-55000D01*
X81350Y-55000D02*
X81478Y-54871D01*
X81478Y-54871D02*
X81478Y-54850D01*
X81478Y-54850D02*
X81478Y-54187D01*
X81050Y-62650D02*
X81050Y-62820D01*
X80200Y-56980D02*
X80200Y-57450D01*
X80190Y-56970D02*
X80200Y-56980D01*
X81050Y-62820D02*
X80800Y-63070D01*
X77050Y-57550D02*
X78120Y-57550D01*
X80040Y-57760D02*
X80200Y-57600D01*
X79130Y-57760D02*
X80040Y-57760D01*
X79010Y-57640D02*
X79130Y-57760D01*
X79010Y-57320D02*
X79010Y-57640D01*
X78470Y-56780D02*
X79010Y-57320D01*
X78120Y-57550D02*
X78340Y-57770D01*
X76950Y-62350D02*
X76950Y-62990D01*
X76950Y-62990D02*
X76960Y-63000D01*
X76960Y-63000D02*
X76619Y-63000D01*
X74450Y-62370D02*
X74450Y-62350D01*
X75220Y-63140D02*
X74450Y-62370D01*
X76479Y-63140D02*
X75220Y-63140D01*
X76619Y-63000D02*
X76479Y-63140D01*
X76680Y-64555D02*
X76355Y-64555D01*
X76355Y-64555D02*
X76125Y-64785D01*
X75680Y-65230D02*
X75680Y-65305D01*
X76125Y-64785D02*
X75680Y-65230D01*
X77050Y-57550D02*
X77050Y-57350D01*
X77050Y-57350D02*
X76800Y-57100D01*
X80200Y-57600D02*
X80200Y-57450D01*
X80200Y-57600D02*
X80350Y-57750D01*
X82400Y-57750D02*
X82700Y-57450D01*
X81650Y-57750D02*
X82400Y-57750D01*
X81550Y-57850D02*
X81650Y-57750D01*
X81400Y-57850D02*
X81550Y-57850D01*
X81300Y-57750D02*
X81400Y-57850D01*
X80350Y-57750D02*
X81300Y-57750D01*
X80200Y-62250D02*
X80200Y-62350D01*
X80200Y-62350D02*
X80500Y-62650D01*
X80500Y-62650D02*
X81050Y-62650D01*
X81050Y-62650D02*
X81450Y-62650D01*
X82300Y-62650D02*
X82700Y-62250D01*
X81450Y-62650D02*
X82300Y-62650D01*
X74450Y-57550D02*
X74450Y-57600D01*
X76750Y-57850D02*
X77050Y-57550D01*
X76000Y-57850D02*
X76750Y-57850D01*
X75850Y-58000D02*
X76000Y-57850D01*
X75650Y-58000D02*
X75850Y-58000D01*
X75500Y-57850D02*
X75650Y-58000D01*
X74700Y-57850D02*
X75500Y-57850D01*
X74450Y-57600D02*
X74700Y-57850D01*
G54D24*
X74060Y-70730D02*
X74060Y-68910D01*
X78175Y-66045D02*
X78175Y-65283D01*
X78160Y-66060D02*
X78175Y-66045D01*
X75530Y-67440D02*
X77530Y-67440D01*
X74060Y-68910D02*
X75530Y-67440D01*
G54D10*
G36*
X74532Y-53300D02*
X74525Y-53300D01*
X74525Y-53307D01*
X74425Y-53307D01*
X74425Y-53300D01*
X74112Y-53300D01*
X74050Y-53362D01*
X74049Y-53475D01*
X74050Y-53574D01*
X74088Y-53666D01*
X74158Y-53737D01*
X74169Y-53741D01*
X74061Y-53741D01*
X73969Y-53779D01*
X73898Y-53849D01*
X73860Y-53941D01*
X73860Y-54041D01*
X73860Y-54631D01*
X73898Y-54723D01*
X73968Y-54794D01*
X74060Y-54832D01*
X74160Y-54832D01*
X74314Y-54832D01*
X74314Y-54884D01*
X74321Y-54900D01*
X73980Y-54900D01*
X73865Y-54922D01*
X73767Y-54987D01*
X73370Y-55385D01*
X73285Y-55384D01*
X73129Y-55449D01*
X73009Y-55568D01*
X72945Y-55725D01*
X72944Y-55894D01*
X73009Y-56050D01*
X73128Y-56170D01*
X73285Y-56234D01*
X73310Y-56234D01*
X72597Y-56947D01*
X72532Y-57045D01*
X72519Y-57111D01*
X72519Y-51556D01*
X73150Y-51957D01*
X73150Y-52200D01*
X73175Y-52327D01*
X73180Y-52353D01*
X73267Y-52482D01*
X73378Y-52593D01*
X73137Y-52824D01*
X73125Y-52824D01*
X72951Y-52897D01*
X72817Y-53030D01*
X72745Y-53205D01*
X72744Y-53394D01*
X72817Y-53568D01*
X72950Y-53702D01*
X73125Y-53774D01*
X73314Y-53775D01*
X73488Y-53702D01*
X73622Y-53569D01*
X73692Y-53401D01*
X74049Y-53058D01*
X74050Y-53137D01*
X74112Y-53200D01*
X74425Y-53200D01*
X74425Y-53192D01*
X74525Y-53192D01*
X74525Y-53200D01*
X74532Y-53200D01*
X74532Y-53300D01*
X74532Y-53300D01*
G37*
G54D25*
X74532Y-53300D02*
X74525Y-53300D01*
X74525Y-53307D01*
X74425Y-53307D01*
X74425Y-53300D01*
X74112Y-53300D01*
X74050Y-53362D01*
X74049Y-53475D01*
X74050Y-53574D01*
X74088Y-53666D01*
X74158Y-53737D01*
X74169Y-53741D01*
X74061Y-53741D01*
X73969Y-53779D01*
X73898Y-53849D01*
X73860Y-53941D01*
X73860Y-54041D01*
X73860Y-54631D01*
X73898Y-54723D01*
X73968Y-54794D01*
X74060Y-54832D01*
X74160Y-54832D01*
X74314Y-54832D01*
X74314Y-54884D01*
X74321Y-54900D01*
X73980Y-54900D01*
X73865Y-54922D01*
X73767Y-54987D01*
X73370Y-55385D01*
X73285Y-55384D01*
X73129Y-55449D01*
X73009Y-55568D01*
X72945Y-55725D01*
X72944Y-55894D01*
X73009Y-56050D01*
X73128Y-56170D01*
X73285Y-56234D01*
X73310Y-56234D01*
X72597Y-56947D01*
X72532Y-57045D01*
X72519Y-57111D01*
X72519Y-51556D01*
X73150Y-51957D01*
X73150Y-52200D01*
X73175Y-52327D01*
X73180Y-52353D01*
X73267Y-52482D01*
X73378Y-52593D01*
X73137Y-52824D01*
X73125Y-52824D01*
X72951Y-52897D01*
X72817Y-53030D01*
X72745Y-53205D01*
X72744Y-53394D01*
X72817Y-53568D01*
X72950Y-53702D01*
X73125Y-53774D01*
X73314Y-53775D01*
X73488Y-53702D01*
X73622Y-53569D01*
X73692Y-53401D01*
X74049Y-53058D01*
X74050Y-53137D01*
X74112Y-53200D01*
X74425Y-53200D01*
X74425Y-53192D01*
X74525Y-53192D01*
X74525Y-53200D01*
X74532Y-53200D01*
X74532Y-53300D01*
G54D10*
G36*
X75737Y-64605D02*
X75730Y-64605D01*
X75730Y-64612D01*
X75630Y-64612D01*
X75630Y-64605D01*
X75622Y-64605D01*
X75622Y-64505D01*
X75630Y-64505D01*
X75630Y-64497D01*
X75730Y-64497D01*
X75730Y-64505D01*
X75737Y-64505D01*
X75737Y-64605D01*
X75737Y-64605D01*
G37*
G54D25*
X75737Y-64605D02*
X75730Y-64605D01*
X75730Y-64612D01*
X75630Y-64612D01*
X75630Y-64605D01*
X75622Y-64605D01*
X75622Y-64505D01*
X75630Y-64505D01*
X75630Y-64497D01*
X75730Y-64497D01*
X75730Y-64505D01*
X75737Y-64505D01*
X75737Y-64605D01*
G54D10*
G36*
X75942Y-63870D02*
X75935Y-63870D01*
X75935Y-63877D01*
X75835Y-63877D01*
X75835Y-63870D01*
X75522Y-63870D01*
X75460Y-63932D01*
X75459Y-64045D01*
X75460Y-64144D01*
X75484Y-64205D01*
X75480Y-64205D01*
X75388Y-64243D01*
X75325Y-64306D01*
X75325Y-64306D01*
X75325Y-64299D01*
X75262Y-64299D01*
X75325Y-64237D01*
X75325Y-64175D01*
X75287Y-64083D01*
X75216Y-64013D01*
X75124Y-63975D01*
X75025Y-63974D01*
X74962Y-63975D01*
X74900Y-64037D01*
X74900Y-64300D01*
X74907Y-64300D01*
X74907Y-64400D01*
X74900Y-64400D01*
X74900Y-64407D01*
X74800Y-64407D01*
X74800Y-64400D01*
X74792Y-64400D01*
X74792Y-64300D01*
X74800Y-64300D01*
X74800Y-64037D01*
X74787Y-64024D01*
X74872Y-63939D01*
X74944Y-63764D01*
X74945Y-63593D01*
X75025Y-63647D01*
X75139Y-63669D01*
X75140Y-63670D01*
X75459Y-63670D01*
X75460Y-63707D01*
X75522Y-63770D01*
X75835Y-63770D01*
X75835Y-63762D01*
X75935Y-63762D01*
X75935Y-63770D01*
X75942Y-63770D01*
X75942Y-63870D01*
X75942Y-63870D01*
G37*
G54D25*
X75942Y-63870D02*
X75935Y-63870D01*
X75935Y-63877D01*
X75835Y-63877D01*
X75835Y-63870D01*
X75522Y-63870D01*
X75460Y-63932D01*
X75459Y-64045D01*
X75460Y-64144D01*
X75484Y-64205D01*
X75480Y-64205D01*
X75388Y-64243D01*
X75325Y-64306D01*
X75325Y-64306D01*
X75325Y-64299D01*
X75262Y-64299D01*
X75325Y-64237D01*
X75325Y-64175D01*
X75287Y-64083D01*
X75216Y-64013D01*
X75124Y-63975D01*
X75025Y-63974D01*
X74962Y-63975D01*
X74900Y-64037D01*
X74900Y-64300D01*
X74907Y-64300D01*
X74907Y-64400D01*
X74900Y-64400D01*
X74900Y-64407D01*
X74800Y-64407D01*
X74800Y-64400D01*
X74792Y-64400D01*
X74792Y-64300D01*
X74800Y-64300D01*
X74800Y-64037D01*
X74787Y-64024D01*
X74872Y-63939D01*
X74944Y-63764D01*
X74945Y-63593D01*
X75025Y-63647D01*
X75139Y-63669D01*
X75140Y-63670D01*
X75459Y-63670D01*
X75460Y-63707D01*
X75522Y-63770D01*
X75835Y-63770D01*
X75835Y-63762D01*
X75935Y-63762D01*
X75935Y-63770D01*
X75942Y-63770D01*
X75942Y-63870D01*
G54D10*
G36*
X76407Y-57550D02*
X76300Y-57550D01*
X76300Y-57500D01*
X76300Y-57237D01*
X76237Y-57175D01*
X76174Y-57174D01*
X76075Y-57175D01*
X75983Y-57213D01*
X75912Y-57283D01*
X75874Y-57375D01*
X75875Y-57437D01*
X75937Y-57500D01*
X76300Y-57500D01*
X76300Y-57550D01*
X76000Y-57550D01*
X75885Y-57572D01*
X75787Y-57637D01*
X75749Y-57675D01*
X75712Y-57637D01*
X75625Y-57579D01*
X75625Y-57375D01*
X75587Y-57283D01*
X75516Y-57213D01*
X75424Y-57175D01*
X75325Y-57174D01*
X75262Y-57175D01*
X75200Y-57237D01*
X75200Y-57500D01*
X75562Y-57500D01*
X75625Y-57437D01*
X75625Y-57375D01*
X75625Y-57579D01*
X75614Y-57572D01*
X75500Y-57550D01*
X75092Y-57550D01*
X75092Y-57500D01*
X75100Y-57500D01*
X75100Y-57237D01*
X75037Y-57175D01*
X74974Y-57174D01*
X74875Y-57175D01*
X74854Y-57183D01*
X74874Y-57134D01*
X74875Y-56965D01*
X74871Y-56958D01*
X74896Y-56958D01*
X74978Y-56924D01*
X75060Y-56958D01*
X75160Y-56958D01*
X75396Y-56958D01*
X75478Y-56924D01*
X75561Y-56958D01*
X75616Y-56958D01*
X75678Y-56895D01*
X75678Y-56462D01*
X75670Y-56462D01*
X75670Y-56362D01*
X75678Y-56362D01*
X75678Y-55930D01*
X75662Y-55914D01*
X75674Y-55884D01*
X75675Y-55770D01*
X75750Y-55770D01*
X75750Y-55769D01*
X75864Y-55747D01*
X75864Y-55747D01*
X75913Y-55714D01*
X75928Y-55729D01*
X75928Y-55881D01*
X75896Y-55867D01*
X75841Y-55867D01*
X75778Y-55930D01*
X75778Y-56362D01*
X75786Y-56362D01*
X75786Y-56462D01*
X75778Y-56462D01*
X75778Y-56895D01*
X75841Y-56958D01*
X75896Y-56958D01*
X75978Y-56924D01*
X76060Y-56958D01*
X76160Y-56958D01*
X76396Y-56958D01*
X76399Y-56957D01*
X76375Y-57015D01*
X76374Y-57184D01*
X76400Y-57244D01*
X76400Y-57500D01*
X76407Y-57500D01*
X76407Y-57550D01*
X76407Y-57550D01*
G37*
G54D25*
X76407Y-57550D02*
X76300Y-57550D01*
X76300Y-57500D01*
X76300Y-57237D01*
X76237Y-57175D01*
X76174Y-57174D01*
X76075Y-57175D01*
X75983Y-57213D01*
X75912Y-57283D01*
X75874Y-57375D01*
X75875Y-57437D01*
X75937Y-57500D01*
X76300Y-57500D01*
X76300Y-57550D01*
X76000Y-57550D01*
X75885Y-57572D01*
X75787Y-57637D01*
X75749Y-57675D01*
X75712Y-57637D01*
X75625Y-57579D01*
X75625Y-57375D01*
X75587Y-57283D01*
X75516Y-57213D01*
X75424Y-57175D01*
X75325Y-57174D01*
X75262Y-57175D01*
X75200Y-57237D01*
X75200Y-57500D01*
X75562Y-57500D01*
X75625Y-57437D01*
X75625Y-57375D01*
X75625Y-57579D01*
X75614Y-57572D01*
X75500Y-57550D01*
X75092Y-57550D01*
X75092Y-57500D01*
X75100Y-57500D01*
X75100Y-57237D01*
X75037Y-57175D01*
X74974Y-57174D01*
X74875Y-57175D01*
X74854Y-57183D01*
X74874Y-57134D01*
X74875Y-56965D01*
X74871Y-56958D01*
X74896Y-56958D01*
X74978Y-56924D01*
X75060Y-56958D01*
X75160Y-56958D01*
X75396Y-56958D01*
X75478Y-56924D01*
X75561Y-56958D01*
X75616Y-56958D01*
X75678Y-56895D01*
X75678Y-56462D01*
X75670Y-56462D01*
X75670Y-56362D01*
X75678Y-56362D01*
X75678Y-55930D01*
X75662Y-55914D01*
X75674Y-55884D01*
X75675Y-55770D01*
X75750Y-55770D01*
X75750Y-55769D01*
X75864Y-55747D01*
X75864Y-55747D01*
X75913Y-55714D01*
X75928Y-55729D01*
X75928Y-55881D01*
X75896Y-55867D01*
X75841Y-55867D01*
X75778Y-55930D01*
X75778Y-56362D01*
X75786Y-56362D01*
X75786Y-56462D01*
X75778Y-56462D01*
X75778Y-56895D01*
X75841Y-56958D01*
X75896Y-56958D01*
X75978Y-56924D01*
X76060Y-56958D01*
X76160Y-56958D01*
X76396Y-56958D01*
X76399Y-56957D01*
X76375Y-57015D01*
X76374Y-57184D01*
X76400Y-57244D01*
X76400Y-57500D01*
X76407Y-57500D01*
X76407Y-57550D01*
G54D10*
G36*
X76501Y-62724D02*
X76407Y-62787D01*
X76355Y-62840D01*
X76200Y-62840D01*
X76200Y-62662D01*
X76200Y-62400D01*
X75837Y-62400D01*
X75775Y-62462D01*
X75774Y-62524D01*
X75812Y-62616D01*
X75883Y-62686D01*
X75975Y-62724D01*
X76074Y-62725D01*
X76137Y-62725D01*
X76200Y-62662D01*
X76200Y-62840D01*
X75625Y-62840D01*
X75344Y-62840D01*
X75200Y-62695D01*
X75200Y-62662D01*
X75262Y-62725D01*
X75325Y-62725D01*
X75424Y-62724D01*
X75516Y-62686D01*
X75587Y-62616D01*
X75625Y-62524D01*
X75625Y-62462D01*
X75562Y-62400D01*
X75200Y-62400D01*
X75200Y-62407D01*
X75100Y-62407D01*
X75100Y-62400D01*
X75092Y-62400D01*
X75092Y-62300D01*
X75100Y-62300D01*
X75100Y-62292D01*
X75200Y-62292D01*
X75200Y-62300D01*
X75562Y-62300D01*
X75625Y-62237D01*
X75625Y-62199D01*
X75676Y-62250D01*
X75676Y-62250D01*
X75773Y-62315D01*
X75888Y-62338D01*
X75888Y-62338D01*
X76307Y-62338D01*
X76307Y-62400D01*
X76300Y-62400D01*
X76300Y-62662D01*
X76362Y-62725D01*
X76425Y-62725D01*
X76501Y-62724D01*
X76501Y-62724D01*
G37*
G54D25*
X76501Y-62724D02*
X76407Y-62787D01*
X76355Y-62840D01*
X76200Y-62840D01*
X76200Y-62662D01*
X76200Y-62400D01*
X75837Y-62400D01*
X75775Y-62462D01*
X75774Y-62524D01*
X75812Y-62616D01*
X75883Y-62686D01*
X75975Y-62724D01*
X76074Y-62725D01*
X76137Y-62725D01*
X76200Y-62662D01*
X76200Y-62840D01*
X75625Y-62840D01*
X75344Y-62840D01*
X75200Y-62695D01*
X75200Y-62662D01*
X75262Y-62725D01*
X75325Y-62725D01*
X75424Y-62724D01*
X75516Y-62686D01*
X75587Y-62616D01*
X75625Y-62524D01*
X75625Y-62462D01*
X75562Y-62400D01*
X75200Y-62400D01*
X75200Y-62407D01*
X75100Y-62407D01*
X75100Y-62400D01*
X75092Y-62400D01*
X75092Y-62300D01*
X75100Y-62300D01*
X75100Y-62292D01*
X75200Y-62292D01*
X75200Y-62300D01*
X75562Y-62300D01*
X75625Y-62237D01*
X75625Y-62199D01*
X75676Y-62250D01*
X75676Y-62250D01*
X75773Y-62315D01*
X75888Y-62338D01*
X75888Y-62338D01*
X76307Y-62338D01*
X76307Y-62400D01*
X76300Y-62400D01*
X76300Y-62662D01*
X76362Y-62725D01*
X76425Y-62725D01*
X76501Y-62724D01*
G54D10*
G36*
X76729Y-59880D02*
X76609Y-59998D01*
X76545Y-60155D01*
X76544Y-60324D01*
X76604Y-60467D01*
X76561Y-60467D01*
X76478Y-60501D01*
X76396Y-60467D01*
X76297Y-60467D01*
X76061Y-60467D01*
X75978Y-60501D01*
X75896Y-60467D01*
X75841Y-60467D01*
X75778Y-60530D01*
X75778Y-60962D01*
X75786Y-60962D01*
X75786Y-61062D01*
X75778Y-61062D01*
X75778Y-61070D01*
X75678Y-61070D01*
X75678Y-61062D01*
X75670Y-61062D01*
X75670Y-60962D01*
X75678Y-60962D01*
X75678Y-60530D01*
X75642Y-60493D01*
X75674Y-60414D01*
X75675Y-60245D01*
X75610Y-60089D01*
X75491Y-59969D01*
X75486Y-59967D01*
X75865Y-59589D01*
X76067Y-59792D01*
X76067Y-59792D01*
X76165Y-59857D01*
X76279Y-59879D01*
X76280Y-59880D01*
X76729Y-59880D01*
X76729Y-59880D01*
G37*
G54D25*
X76729Y-59880D02*
X76609Y-59998D01*
X76545Y-60155D01*
X76544Y-60324D01*
X76604Y-60467D01*
X76561Y-60467D01*
X76478Y-60501D01*
X76396Y-60467D01*
X76297Y-60467D01*
X76061Y-60467D01*
X75978Y-60501D01*
X75896Y-60467D01*
X75841Y-60467D01*
X75778Y-60530D01*
X75778Y-60962D01*
X75786Y-60962D01*
X75786Y-61062D01*
X75778Y-61062D01*
X75778Y-61070D01*
X75678Y-61070D01*
X75678Y-61062D01*
X75670Y-61062D01*
X75670Y-60962D01*
X75678Y-60962D01*
X75678Y-60530D01*
X75642Y-60493D01*
X75674Y-60414D01*
X75675Y-60245D01*
X75610Y-60089D01*
X75491Y-59969D01*
X75486Y-59967D01*
X75865Y-59589D01*
X76067Y-59792D01*
X76067Y-59792D01*
X76165Y-59857D01*
X76279Y-59879D01*
X76280Y-59880D01*
X76729Y-59880D01*
G54D10*
G36*
X79427Y-61219D02*
X79372Y-61274D01*
X79225Y-61274D01*
X79133Y-61312D01*
X79090Y-61356D01*
X79090Y-61157D01*
X79090Y-60845D01*
X78677Y-60845D01*
X78615Y-60907D01*
X78614Y-61019D01*
X78652Y-61111D01*
X78723Y-61181D01*
X78815Y-61219D01*
X78914Y-61220D01*
X79027Y-61220D01*
X79090Y-61157D01*
X79090Y-61356D01*
X79063Y-61383D01*
X79025Y-61475D01*
X79024Y-61574D01*
X79024Y-61824D01*
X79062Y-61916D01*
X79096Y-61949D01*
X79063Y-61983D01*
X79025Y-62075D01*
X79024Y-62174D01*
X79024Y-62424D01*
X79062Y-62516D01*
X79096Y-62549D01*
X79063Y-62583D01*
X79025Y-62675D01*
X79024Y-62774D01*
X79024Y-62984D01*
X78895Y-62857D01*
X78895Y-62775D01*
X78830Y-62619D01*
X78711Y-62499D01*
X78554Y-62435D01*
X78455Y-62434D01*
X78455Y-61029D01*
X78455Y-60917D01*
X78392Y-60855D01*
X77980Y-60855D01*
X77980Y-61167D01*
X78042Y-61230D01*
X78155Y-61230D01*
X78254Y-61229D01*
X78346Y-61191D01*
X78417Y-61121D01*
X78455Y-61029D01*
X78455Y-62434D01*
X78385Y-62434D01*
X78229Y-62499D01*
X78109Y-62618D01*
X78084Y-62680D01*
X78053Y-62650D01*
X78086Y-62616D01*
X78124Y-62524D01*
X78125Y-62425D01*
X78125Y-62175D01*
X78087Y-62083D01*
X78053Y-62050D01*
X78086Y-62016D01*
X78124Y-61924D01*
X78125Y-61825D01*
X78125Y-61575D01*
X78087Y-61483D01*
X78016Y-61413D01*
X77939Y-61381D01*
X77939Y-61381D01*
X77927Y-61319D01*
X77862Y-61222D01*
X77862Y-61222D01*
X77843Y-61203D01*
X77880Y-61167D01*
X77880Y-60855D01*
X77872Y-60855D01*
X77872Y-60755D01*
X77880Y-60755D01*
X77880Y-60747D01*
X77980Y-60747D01*
X77980Y-60755D01*
X78392Y-60755D01*
X78455Y-60692D01*
X78455Y-60580D01*
X78417Y-60488D01*
X78358Y-60429D01*
X78416Y-60371D01*
X78427Y-60345D01*
X78646Y-60345D01*
X78652Y-60361D01*
X78711Y-60420D01*
X78652Y-60478D01*
X78614Y-60570D01*
X78615Y-60682D01*
X78677Y-60745D01*
X79090Y-60745D01*
X79090Y-60737D01*
X79190Y-60737D01*
X79190Y-60745D01*
X79197Y-60745D01*
X79197Y-60845D01*
X79190Y-60845D01*
X79190Y-61157D01*
X79252Y-61220D01*
X79365Y-61220D01*
X79427Y-61219D01*
X79427Y-61219D01*
G37*
G54D25*
X79427Y-61219D02*
X79372Y-61274D01*
X79225Y-61274D01*
X79133Y-61312D01*
X79090Y-61356D01*
X79090Y-61157D01*
X79090Y-60845D01*
X78677Y-60845D01*
X78615Y-60907D01*
X78614Y-61019D01*
X78652Y-61111D01*
X78723Y-61181D01*
X78815Y-61219D01*
X78914Y-61220D01*
X79027Y-61220D01*
X79090Y-61157D01*
X79090Y-61356D01*
X79063Y-61383D01*
X79025Y-61475D01*
X79024Y-61574D01*
X79024Y-61824D01*
X79062Y-61916D01*
X79096Y-61949D01*
X79063Y-61983D01*
X79025Y-62075D01*
X79024Y-62174D01*
X79024Y-62424D01*
X79062Y-62516D01*
X79096Y-62549D01*
X79063Y-62583D01*
X79025Y-62675D01*
X79024Y-62774D01*
X79024Y-62984D01*
X78895Y-62857D01*
X78895Y-62775D01*
X78830Y-62619D01*
X78711Y-62499D01*
X78554Y-62435D01*
X78455Y-62434D01*
X78455Y-61029D01*
X78455Y-60917D01*
X78392Y-60855D01*
X77980Y-60855D01*
X77980Y-61167D01*
X78042Y-61230D01*
X78155Y-61230D01*
X78254Y-61229D01*
X78346Y-61191D01*
X78417Y-61121D01*
X78455Y-61029D01*
X78455Y-62434D01*
X78385Y-62434D01*
X78229Y-62499D01*
X78109Y-62618D01*
X78084Y-62680D01*
X78053Y-62650D01*
X78086Y-62616D01*
X78124Y-62524D01*
X78125Y-62425D01*
X78125Y-62175D01*
X78087Y-62083D01*
X78053Y-62050D01*
X78086Y-62016D01*
X78124Y-61924D01*
X78125Y-61825D01*
X78125Y-61575D01*
X78087Y-61483D01*
X78016Y-61413D01*
X77939Y-61381D01*
X77939Y-61381D01*
X77927Y-61319D01*
X77862Y-61222D01*
X77862Y-61222D01*
X77843Y-61203D01*
X77880Y-61167D01*
X77880Y-60855D01*
X77872Y-60855D01*
X77872Y-60755D01*
X77880Y-60755D01*
X77880Y-60747D01*
X77980Y-60747D01*
X77980Y-60755D01*
X78392Y-60755D01*
X78455Y-60692D01*
X78455Y-60580D01*
X78417Y-60488D01*
X78358Y-60429D01*
X78416Y-60371D01*
X78427Y-60345D01*
X78646Y-60345D01*
X78652Y-60361D01*
X78711Y-60420D01*
X78652Y-60478D01*
X78614Y-60570D01*
X78615Y-60682D01*
X78677Y-60745D01*
X79090Y-60745D01*
X79090Y-60737D01*
X79190Y-60737D01*
X79190Y-60745D01*
X79197Y-60745D01*
X79197Y-60845D01*
X79190Y-60845D01*
X79190Y-61157D01*
X79252Y-61220D01*
X79365Y-61220D01*
X79427Y-61219D01*
G54D10*
G36*
X80327Y-55767D02*
X80311Y-55767D01*
X80228Y-55801D01*
X80146Y-55767D01*
X80047Y-55767D01*
X79811Y-55767D01*
X79719Y-55805D01*
X79648Y-55875D01*
X79610Y-55967D01*
X79610Y-56012D01*
X79593Y-56012D01*
X79491Y-55909D01*
X79334Y-55845D01*
X79165Y-55844D01*
X79009Y-55909D01*
X78889Y-56028D01*
X78825Y-56185D01*
X78824Y-56354D01*
X78889Y-56510D01*
X79008Y-56630D01*
X79113Y-56673D01*
X79075Y-56765D01*
X79074Y-56934D01*
X79093Y-56979D01*
X78894Y-56780D01*
X78895Y-56695D01*
X78830Y-56539D01*
X78711Y-56419D01*
X78554Y-56355D01*
X78385Y-56354D01*
X78285Y-56396D01*
X78285Y-56255D01*
X78247Y-56163D01*
X78176Y-56093D01*
X78084Y-56055D01*
X77985Y-56054D01*
X77591Y-56054D01*
X77558Y-55976D01*
X77488Y-55905D01*
X77396Y-55867D01*
X77297Y-55867D01*
X77061Y-55867D01*
X76978Y-55901D01*
X76896Y-55867D01*
X76797Y-55867D01*
X76561Y-55867D01*
X76528Y-55881D01*
X76528Y-55772D01*
X76610Y-55691D01*
X76674Y-55534D01*
X76675Y-55410D01*
X76930Y-55410D01*
X76930Y-55409D01*
X77044Y-55387D01*
X77044Y-55387D01*
X77142Y-55322D01*
X77440Y-55023D01*
X77440Y-55023D01*
X77505Y-54926D01*
X77528Y-54811D01*
X77528Y-54811D01*
X77528Y-54753D01*
X77552Y-54730D01*
X78050Y-54730D01*
X78050Y-54748D01*
X77989Y-54808D01*
X77925Y-54965D01*
X77924Y-55134D01*
X77989Y-55290D01*
X78108Y-55410D01*
X78265Y-55474D01*
X78434Y-55475D01*
X78590Y-55410D01*
X78710Y-55291D01*
X78774Y-55134D01*
X78775Y-54965D01*
X78710Y-54809D01*
X78650Y-54748D01*
X78650Y-54730D01*
X79624Y-54730D01*
X79537Y-54787D01*
X79400Y-54925D01*
X79315Y-54924D01*
X79159Y-54989D01*
X79039Y-55108D01*
X78975Y-55265D01*
X78974Y-55434D01*
X79039Y-55590D01*
X79158Y-55710D01*
X79315Y-55774D01*
X79484Y-55775D01*
X79640Y-55710D01*
X79760Y-55591D01*
X79824Y-55434D01*
X79825Y-55349D01*
X79874Y-55300D01*
X80131Y-55300D01*
X80125Y-55315D01*
X80124Y-55484D01*
X80189Y-55640D01*
X80308Y-55760D01*
X80327Y-55767D01*
X80327Y-55767D01*
G37*
G54D25*
X80327Y-55767D02*
X80311Y-55767D01*
X80228Y-55801D01*
X80146Y-55767D01*
X80047Y-55767D01*
X79811Y-55767D01*
X79719Y-55805D01*
X79648Y-55875D01*
X79610Y-55967D01*
X79610Y-56012D01*
X79593Y-56012D01*
X79491Y-55909D01*
X79334Y-55845D01*
X79165Y-55844D01*
X79009Y-55909D01*
X78889Y-56028D01*
X78825Y-56185D01*
X78824Y-56354D01*
X78889Y-56510D01*
X79008Y-56630D01*
X79113Y-56673D01*
X79075Y-56765D01*
X79074Y-56934D01*
X79093Y-56979D01*
X78894Y-56780D01*
X78895Y-56695D01*
X78830Y-56539D01*
X78711Y-56419D01*
X78554Y-56355D01*
X78385Y-56354D01*
X78285Y-56396D01*
X78285Y-56255D01*
X78247Y-56163D01*
X78176Y-56093D01*
X78084Y-56055D01*
X77985Y-56054D01*
X77591Y-56054D01*
X77558Y-55976D01*
X77488Y-55905D01*
X77396Y-55867D01*
X77297Y-55867D01*
X77061Y-55867D01*
X76978Y-55901D01*
X76896Y-55867D01*
X76797Y-55867D01*
X76561Y-55867D01*
X76528Y-55881D01*
X76528Y-55772D01*
X76610Y-55691D01*
X76674Y-55534D01*
X76675Y-55410D01*
X76930Y-55410D01*
X76930Y-55409D01*
X77044Y-55387D01*
X77044Y-55387D01*
X77142Y-55322D01*
X77440Y-55023D01*
X77440Y-55023D01*
X77505Y-54926D01*
X77528Y-54811D01*
X77528Y-54811D01*
X77528Y-54753D01*
X77552Y-54730D01*
X78050Y-54730D01*
X78050Y-54748D01*
X77989Y-54808D01*
X77925Y-54965D01*
X77924Y-55134D01*
X77989Y-55290D01*
X78108Y-55410D01*
X78265Y-55474D01*
X78434Y-55475D01*
X78590Y-55410D01*
X78710Y-55291D01*
X78774Y-55134D01*
X78775Y-54965D01*
X78710Y-54809D01*
X78650Y-54748D01*
X78650Y-54730D01*
X79624Y-54730D01*
X79537Y-54787D01*
X79400Y-54925D01*
X79315Y-54924D01*
X79159Y-54989D01*
X79039Y-55108D01*
X78975Y-55265D01*
X78974Y-55434D01*
X79039Y-55590D01*
X79158Y-55710D01*
X79315Y-55774D01*
X79484Y-55775D01*
X79640Y-55710D01*
X79760Y-55591D01*
X79824Y-55434D01*
X79825Y-55349D01*
X79874Y-55300D01*
X80131Y-55300D01*
X80125Y-55315D01*
X80124Y-55484D01*
X80189Y-55640D01*
X80308Y-55760D01*
X80327Y-55767D01*
G54D10*
G36*
X81811Y-60225D02*
X81777Y-60247D01*
X81766Y-60259D01*
X81701Y-60356D01*
X81695Y-60387D01*
X81695Y-60387D01*
X81646Y-60367D01*
X81591Y-60367D01*
X81528Y-60430D01*
X81528Y-60862D01*
X81536Y-60862D01*
X81536Y-60962D01*
X81528Y-60962D01*
X81528Y-60970D01*
X81428Y-60970D01*
X81428Y-60962D01*
X81420Y-60962D01*
X81420Y-60862D01*
X81428Y-60862D01*
X81428Y-60430D01*
X81366Y-60367D01*
X81326Y-60367D01*
X81686Y-60007D01*
X81701Y-60083D01*
X81766Y-60180D01*
X81811Y-60225D01*
X81811Y-60225D01*
X81811Y-60225D01*
G37*
G54D25*
X81811Y-60225D02*
X81777Y-60247D01*
X81766Y-60259D01*
X81701Y-60356D01*
X81695Y-60387D01*
X81695Y-60387D01*
X81646Y-60367D01*
X81591Y-60367D01*
X81528Y-60430D01*
X81528Y-60862D01*
X81536Y-60862D01*
X81536Y-60962D01*
X81528Y-60962D01*
X81528Y-60970D01*
X81428Y-60970D01*
X81428Y-60962D01*
X81420Y-60962D01*
X81420Y-60862D01*
X81428Y-60862D01*
X81428Y-60430D01*
X81366Y-60367D01*
X81326Y-60367D01*
X81686Y-60007D01*
X81701Y-60083D01*
X81766Y-60180D01*
X81811Y-60225D01*
X81811Y-60225D01*
G54D10*
G36*
X82057Y-62300D02*
X82050Y-62300D01*
X82050Y-62307D01*
X81950Y-62307D01*
X81950Y-62300D01*
X81587Y-62300D01*
X81537Y-62350D01*
X81450Y-62350D01*
X81362Y-62350D01*
X81312Y-62300D01*
X80950Y-62300D01*
X80950Y-62307D01*
X80850Y-62307D01*
X80850Y-62300D01*
X80842Y-62300D01*
X80842Y-62260D01*
X81168Y-62260D01*
X81168Y-62259D01*
X81283Y-62237D01*
X81283Y-62237D01*
X81380Y-62172D01*
X81490Y-62062D01*
X81490Y-62062D01*
X81555Y-61964D01*
X81565Y-61918D01*
X81596Y-61950D01*
X81562Y-61983D01*
X81524Y-62075D01*
X81525Y-62137D01*
X81587Y-62200D01*
X81950Y-62200D01*
X81950Y-62192D01*
X82050Y-62192D01*
X82050Y-62200D01*
X82057Y-62200D01*
X82057Y-62300D01*
X82057Y-62300D01*
G37*
G54D25*
X82057Y-62300D02*
X82050Y-62300D01*
X82050Y-62307D01*
X81950Y-62307D01*
X81950Y-62300D01*
X81587Y-62300D01*
X81537Y-62350D01*
X81450Y-62350D01*
X81362Y-62350D01*
X81312Y-62300D01*
X80950Y-62300D01*
X80950Y-62307D01*
X80850Y-62307D01*
X80850Y-62300D01*
X80842Y-62300D01*
X80842Y-62260D01*
X81168Y-62260D01*
X81168Y-62259D01*
X81283Y-62237D01*
X81283Y-62237D01*
X81380Y-62172D01*
X81490Y-62062D01*
X81490Y-62062D01*
X81555Y-61964D01*
X81565Y-61918D01*
X81596Y-61950D01*
X81562Y-61983D01*
X81524Y-62075D01*
X81525Y-62137D01*
X81587Y-62200D01*
X81950Y-62200D01*
X81950Y-62192D01*
X82050Y-62192D01*
X82050Y-62200D01*
X82057Y-62200D01*
X82057Y-62300D01*
G54D10*
G36*
X83012Y-65133D02*
X82680Y-65465D01*
X82595Y-65464D01*
X82439Y-65529D01*
X82319Y-65648D01*
X82255Y-65805D01*
X82254Y-65974D01*
X82319Y-66130D01*
X82438Y-66250D01*
X80724Y-66250D01*
X80799Y-66175D01*
X81024Y-66175D01*
X81116Y-66137D01*
X81186Y-66066D01*
X81224Y-65974D01*
X81225Y-65875D01*
X81225Y-65625D01*
X81187Y-65533D01*
X81153Y-65500D01*
X81187Y-65466D01*
X81225Y-65374D01*
X81225Y-65025D01*
X81187Y-64933D01*
X81116Y-64863D01*
X81024Y-64825D01*
X80925Y-64824D01*
X80862Y-64825D01*
X80800Y-64887D01*
X80800Y-65150D01*
X81162Y-65150D01*
X81225Y-65087D01*
X81225Y-65025D01*
X81225Y-65374D01*
X81225Y-65312D01*
X81162Y-65250D01*
X80800Y-65250D01*
X80800Y-65257D01*
X80700Y-65257D01*
X80700Y-65250D01*
X80387Y-65250D01*
X80362Y-65225D01*
X79950Y-65225D01*
X79950Y-65537D01*
X80012Y-65600D01*
X80125Y-65600D01*
X80224Y-65599D01*
X80298Y-65569D01*
X80275Y-65625D01*
X80274Y-65724D01*
X80274Y-65830D01*
X79850Y-65830D01*
X79850Y-65537D01*
X79850Y-65225D01*
X79437Y-65225D01*
X79375Y-65287D01*
X79374Y-65399D01*
X79412Y-65491D01*
X79483Y-65561D01*
X79575Y-65599D01*
X79674Y-65600D01*
X79787Y-65600D01*
X79850Y-65537D01*
X79850Y-65830D01*
X79271Y-65830D01*
X79225Y-65783D01*
X79225Y-65690D01*
X79294Y-65621D01*
X79332Y-65529D01*
X79332Y-65430D01*
X79332Y-65036D01*
X79294Y-64944D01*
X79224Y-64874D01*
X79132Y-64836D01*
X79032Y-64835D01*
X78824Y-64835D01*
X78848Y-64826D01*
X78858Y-64817D01*
X79454Y-64817D01*
X79412Y-64858D01*
X79374Y-64950D01*
X79375Y-65062D01*
X79437Y-65125D01*
X79850Y-65125D01*
X79850Y-65117D01*
X79950Y-65117D01*
X79950Y-65125D01*
X80312Y-65125D01*
X80337Y-65150D01*
X80700Y-65150D01*
X80700Y-64887D01*
X80637Y-64825D01*
X80574Y-64824D01*
X80475Y-64825D01*
X80388Y-64861D01*
X80387Y-64858D01*
X80328Y-64800D01*
X82672Y-64800D01*
X82805Y-64854D01*
X82904Y-64855D01*
X82904Y-64934D01*
X82969Y-65090D01*
X83012Y-65133D01*
X83012Y-65133D01*
G37*
G54D25*
X83012Y-65133D02*
X82680Y-65465D01*
X82595Y-65464D01*
X82439Y-65529D01*
X82319Y-65648D01*
X82255Y-65805D01*
X82254Y-65974D01*
X82319Y-66130D01*
X82438Y-66250D01*
X80724Y-66250D01*
X80799Y-66175D01*
X81024Y-66175D01*
X81116Y-66137D01*
X81186Y-66066D01*
X81224Y-65974D01*
X81225Y-65875D01*
X81225Y-65625D01*
X81187Y-65533D01*
X81153Y-65500D01*
X81187Y-65466D01*
X81225Y-65374D01*
X81225Y-65025D01*
X81187Y-64933D01*
X81116Y-64863D01*
X81024Y-64825D01*
X80925Y-64824D01*
X80862Y-64825D01*
X80800Y-64887D01*
X80800Y-65150D01*
X81162Y-65150D01*
X81225Y-65087D01*
X81225Y-65025D01*
X81225Y-65374D01*
X81225Y-65312D01*
X81162Y-65250D01*
X80800Y-65250D01*
X80800Y-65257D01*
X80700Y-65257D01*
X80700Y-65250D01*
X80387Y-65250D01*
X80362Y-65225D01*
X79950Y-65225D01*
X79950Y-65537D01*
X80012Y-65600D01*
X80125Y-65600D01*
X80224Y-65599D01*
X80298Y-65569D01*
X80275Y-65625D01*
X80274Y-65724D01*
X80274Y-65830D01*
X79850Y-65830D01*
X79850Y-65537D01*
X79850Y-65225D01*
X79437Y-65225D01*
X79375Y-65287D01*
X79374Y-65399D01*
X79412Y-65491D01*
X79483Y-65561D01*
X79575Y-65599D01*
X79674Y-65600D01*
X79787Y-65600D01*
X79850Y-65537D01*
X79850Y-65830D01*
X79271Y-65830D01*
X79225Y-65783D01*
X79225Y-65690D01*
X79294Y-65621D01*
X79332Y-65529D01*
X79332Y-65430D01*
X79332Y-65036D01*
X79294Y-64944D01*
X79224Y-64874D01*
X79132Y-64836D01*
X79032Y-64835D01*
X78824Y-64835D01*
X78848Y-64826D01*
X78858Y-64817D01*
X79454Y-64817D01*
X79412Y-64858D01*
X79374Y-64950D01*
X79375Y-65062D01*
X79437Y-65125D01*
X79850Y-65125D01*
X79850Y-65117D01*
X79950Y-65117D01*
X79950Y-65125D01*
X80312Y-65125D01*
X80337Y-65150D01*
X80700Y-65150D01*
X80700Y-64887D01*
X80637Y-64825D01*
X80574Y-64824D01*
X80475Y-64825D01*
X80388Y-64861D01*
X80387Y-64858D01*
X80328Y-64800D01*
X82672Y-64800D01*
X82805Y-64854D01*
X82904Y-64855D01*
X82904Y-64934D01*
X82969Y-65090D01*
X83012Y-65133D01*
G54D10*
G36*
X83100Y-57085D02*
X83049Y-57106D01*
X82974Y-57075D01*
X82875Y-57074D01*
X82425Y-57074D01*
X82349Y-57106D01*
X82274Y-57075D01*
X82175Y-57074D01*
X82112Y-57075D01*
X82050Y-57137D01*
X82050Y-57400D01*
X82057Y-57400D01*
X82057Y-57450D01*
X81950Y-57450D01*
X81950Y-57400D01*
X81950Y-57137D01*
X81887Y-57075D01*
X81824Y-57074D01*
X81725Y-57075D01*
X81633Y-57113D01*
X81562Y-57183D01*
X81524Y-57275D01*
X81525Y-57337D01*
X81587Y-57400D01*
X81950Y-57400D01*
X81950Y-57450D01*
X81650Y-57450D01*
X81535Y-57472D01*
X81475Y-57513D01*
X81474Y-57513D01*
X81414Y-57472D01*
X81375Y-57464D01*
X81375Y-57275D01*
X81337Y-57183D01*
X81266Y-57113D01*
X81174Y-57075D01*
X81075Y-57074D01*
X81012Y-57075D01*
X80950Y-57137D01*
X80950Y-57400D01*
X81312Y-57400D01*
X81375Y-57337D01*
X81375Y-57275D01*
X81375Y-57464D01*
X81300Y-57450D01*
X80842Y-57450D01*
X80842Y-57400D01*
X80850Y-57400D01*
X80850Y-57137D01*
X80787Y-57075D01*
X80724Y-57074D01*
X80625Y-57075D01*
X80602Y-57084D01*
X80614Y-57054D01*
X80615Y-56885D01*
X80603Y-56858D01*
X80646Y-56858D01*
X80728Y-56824D01*
X80810Y-56858D01*
X80910Y-56858D01*
X81146Y-56858D01*
X81228Y-56824D01*
X81311Y-56858D01*
X81366Y-56858D01*
X81428Y-56795D01*
X81428Y-56362D01*
X81420Y-56362D01*
X81420Y-56262D01*
X81428Y-56262D01*
X81428Y-55830D01*
X81366Y-55767D01*
X81311Y-55767D01*
X81269Y-55784D01*
X81255Y-55713D01*
X81190Y-55616D01*
X81190Y-55616D01*
X80974Y-55400D01*
X80975Y-55315D01*
X80968Y-55300D01*
X81350Y-55300D01*
X81350Y-55299D01*
X81464Y-55277D01*
X81464Y-55277D01*
X81562Y-55212D01*
X81690Y-55083D01*
X81690Y-55083D01*
X81755Y-54986D01*
X81778Y-54871D01*
X81778Y-54871D01*
X81778Y-54850D01*
X81778Y-54718D01*
X81810Y-54732D01*
X81910Y-54732D01*
X82130Y-54732D01*
X82075Y-54865D01*
X82074Y-55025D01*
X81915Y-55024D01*
X81759Y-55089D01*
X81639Y-55208D01*
X81575Y-55365D01*
X81574Y-55534D01*
X81639Y-55690D01*
X81678Y-55729D01*
X81678Y-55781D01*
X81646Y-55767D01*
X81591Y-55767D01*
X81528Y-55830D01*
X81528Y-56262D01*
X81536Y-56262D01*
X81536Y-56362D01*
X81528Y-56362D01*
X81528Y-56795D01*
X81591Y-56858D01*
X81646Y-56858D01*
X81728Y-56824D01*
X81810Y-56858D01*
X81910Y-56858D01*
X82146Y-56858D01*
X82228Y-56824D01*
X82310Y-56858D01*
X82410Y-56858D01*
X82646Y-56858D01*
X82728Y-56824D01*
X82810Y-56858D01*
X82910Y-56858D01*
X83099Y-56858D01*
X83100Y-56858D01*
X83100Y-57085D01*
X83100Y-57085D01*
G37*
G54D25*
X83100Y-57085D02*
X83049Y-57106D01*
X82974Y-57075D01*
X82875Y-57074D01*
X82425Y-57074D01*
X82349Y-57106D01*
X82274Y-57075D01*
X82175Y-57074D01*
X82112Y-57075D01*
X82050Y-57137D01*
X82050Y-57400D01*
X82057Y-57400D01*
X82057Y-57450D01*
X81950Y-57450D01*
X81950Y-57400D01*
X81950Y-57137D01*
X81887Y-57075D01*
X81824Y-57074D01*
X81725Y-57075D01*
X81633Y-57113D01*
X81562Y-57183D01*
X81524Y-57275D01*
X81525Y-57337D01*
X81587Y-57400D01*
X81950Y-57400D01*
X81950Y-57450D01*
X81650Y-57450D01*
X81535Y-57472D01*
X81475Y-57513D01*
X81474Y-57513D01*
X81414Y-57472D01*
X81375Y-57464D01*
X81375Y-57275D01*
X81337Y-57183D01*
X81266Y-57113D01*
X81174Y-57075D01*
X81075Y-57074D01*
X81012Y-57075D01*
X80950Y-57137D01*
X80950Y-57400D01*
X81312Y-57400D01*
X81375Y-57337D01*
X81375Y-57275D01*
X81375Y-57464D01*
X81300Y-57450D01*
X80842Y-57450D01*
X80842Y-57400D01*
X80850Y-57400D01*
X80850Y-57137D01*
X80787Y-57075D01*
X80724Y-57074D01*
X80625Y-57075D01*
X80602Y-57084D01*
X80614Y-57054D01*
X80615Y-56885D01*
X80603Y-56858D01*
X80646Y-56858D01*
X80728Y-56824D01*
X80810Y-56858D01*
X80910Y-56858D01*
X81146Y-56858D01*
X81228Y-56824D01*
X81311Y-56858D01*
X81366Y-56858D01*
X81428Y-56795D01*
X81428Y-56362D01*
X81420Y-56362D01*
X81420Y-56262D01*
X81428Y-56262D01*
X81428Y-55830D01*
X81366Y-55767D01*
X81311Y-55767D01*
X81269Y-55784D01*
X81255Y-55713D01*
X81190Y-55616D01*
X81190Y-55616D01*
X80974Y-55400D01*
X80975Y-55315D01*
X80968Y-55300D01*
X81350Y-55300D01*
X81350Y-55299D01*
X81464Y-55277D01*
X81464Y-55277D01*
X81562Y-55212D01*
X81690Y-55083D01*
X81690Y-55083D01*
X81755Y-54986D01*
X81778Y-54871D01*
X81778Y-54871D01*
X81778Y-54850D01*
X81778Y-54718D01*
X81810Y-54732D01*
X81910Y-54732D01*
X82130Y-54732D01*
X82075Y-54865D01*
X82074Y-55025D01*
X81915Y-55024D01*
X81759Y-55089D01*
X81639Y-55208D01*
X81575Y-55365D01*
X81574Y-55534D01*
X81639Y-55690D01*
X81678Y-55729D01*
X81678Y-55781D01*
X81646Y-55767D01*
X81591Y-55767D01*
X81528Y-55830D01*
X81528Y-56262D01*
X81536Y-56262D01*
X81536Y-56362D01*
X81528Y-56362D01*
X81528Y-56795D01*
X81591Y-56858D01*
X81646Y-56858D01*
X81728Y-56824D01*
X81810Y-56858D01*
X81910Y-56858D01*
X82146Y-56858D01*
X82228Y-56824D01*
X82310Y-56858D01*
X82410Y-56858D01*
X82646Y-56858D01*
X82728Y-56824D01*
X82810Y-56858D01*
X82910Y-56858D01*
X83099Y-56858D01*
X83100Y-56858D01*
X83100Y-57085D01*
G54D10*
G36*
X84290Y-58301D02*
X84277Y-58235D01*
X84212Y-58137D01*
X84212Y-58137D01*
X83912Y-57837D01*
X83839Y-57789D01*
X83837Y-57783D01*
X83803Y-57750D01*
X83836Y-57716D01*
X83874Y-57624D01*
X83875Y-57525D01*
X83875Y-57275D01*
X83837Y-57183D01*
X83766Y-57113D01*
X83700Y-57085D01*
X83700Y-56734D01*
X83677Y-56619D01*
X83612Y-56522D01*
X83612Y-56522D01*
X83346Y-56256D01*
X83346Y-55968D01*
X83308Y-55876D01*
X83238Y-55805D01*
X83146Y-55767D01*
X83047Y-55767D01*
X82811Y-55767D01*
X82728Y-55801D01*
X82646Y-55767D01*
X82547Y-55767D01*
X82311Y-55767D01*
X82278Y-55781D01*
X82278Y-55772D01*
X82360Y-55691D01*
X82424Y-55534D01*
X82425Y-55374D01*
X82584Y-55375D01*
X82740Y-55310D01*
X82860Y-55191D01*
X82924Y-55034D01*
X82925Y-54865D01*
X82869Y-54732D01*
X82910Y-54732D01*
X83146Y-54732D01*
X83238Y-54694D01*
X83308Y-54624D01*
X83346Y-54532D01*
X83346Y-54432D01*
X83346Y-53842D01*
X83308Y-53750D01*
X83240Y-53681D01*
X83352Y-53569D01*
X83424Y-53394D01*
X83425Y-53205D01*
X83352Y-53031D01*
X83350Y-53028D01*
X83350Y-52066D01*
X84290Y-51394D01*
X84290Y-58301D01*
X84290Y-58301D01*
G37*
G54D25*
X84290Y-58301D02*
X84277Y-58235D01*
X84212Y-58137D01*
X84212Y-58137D01*
X83912Y-57837D01*
X83839Y-57789D01*
X83837Y-57783D01*
X83803Y-57750D01*
X83836Y-57716D01*
X83874Y-57624D01*
X83875Y-57525D01*
X83875Y-57275D01*
X83837Y-57183D01*
X83766Y-57113D01*
X83700Y-57085D01*
X83700Y-56734D01*
X83677Y-56619D01*
X83612Y-56522D01*
X83612Y-56522D01*
X83346Y-56256D01*
X83346Y-55968D01*
X83308Y-55876D01*
X83238Y-55805D01*
X83146Y-55767D01*
X83047Y-55767D01*
X82811Y-55767D01*
X82728Y-55801D01*
X82646Y-55767D01*
X82547Y-55767D01*
X82311Y-55767D01*
X82278Y-55781D01*
X82278Y-55772D01*
X82360Y-55691D01*
X82424Y-55534D01*
X82425Y-55374D01*
X82584Y-55375D01*
X82740Y-55310D01*
X82860Y-55191D01*
X82924Y-55034D01*
X82925Y-54865D01*
X82869Y-54732D01*
X82910Y-54732D01*
X83146Y-54732D01*
X83238Y-54694D01*
X83308Y-54624D01*
X83346Y-54532D01*
X83346Y-54432D01*
X83346Y-53842D01*
X83308Y-53750D01*
X83240Y-53681D01*
X83352Y-53569D01*
X83424Y-53394D01*
X83425Y-53205D01*
X83352Y-53031D01*
X83350Y-53028D01*
X83350Y-52066D01*
X84290Y-51394D01*
X84290Y-58301D01*
G54D10*
G36*
X84290Y-67420D02*
X84262Y-67377D01*
X84262Y-67377D01*
X83222Y-66337D01*
X83124Y-66272D01*
X83010Y-66250D01*
X82920Y-66250D01*
X83040Y-66131D01*
X83104Y-65974D01*
X83105Y-65889D01*
X83542Y-65452D01*
X83542Y-65452D01*
X83607Y-65354D01*
X83629Y-65240D01*
X83630Y-65240D01*
X83630Y-65151D01*
X83690Y-65091D01*
X83754Y-64934D01*
X83755Y-64765D01*
X83690Y-64609D01*
X83571Y-64489D01*
X83414Y-64425D01*
X83374Y-64425D01*
X83375Y-64285D01*
X83302Y-64111D01*
X83169Y-63977D01*
X82994Y-63905D01*
X82805Y-63904D01*
X82631Y-63977D01*
X82608Y-64000D01*
X80174Y-64000D01*
X80125Y-63999D01*
X79575Y-63999D01*
X79534Y-64017D01*
X78858Y-64017D01*
X78849Y-64008D01*
X78757Y-63970D01*
X78657Y-63969D01*
X78342Y-63969D01*
X78251Y-64007D01*
X78241Y-64017D01*
X77905Y-64017D01*
X77905Y-64005D01*
X77871Y-63925D01*
X77924Y-63925D01*
X78016Y-63887D01*
X78086Y-63816D01*
X78124Y-63724D01*
X78125Y-63625D01*
X78125Y-63375D01*
X78087Y-63283D01*
X78053Y-63250D01*
X78086Y-63216D01*
X78124Y-63124D01*
X78124Y-63115D01*
X78228Y-63220D01*
X78385Y-63284D01*
X78474Y-63285D01*
X78857Y-63661D01*
X78857Y-63662D01*
X78859Y-63662D01*
X78859Y-63663D01*
X78882Y-63678D01*
X78955Y-63727D01*
X78957Y-63727D01*
X78957Y-63727D01*
X78988Y-63733D01*
X79070Y-63750D01*
X79096Y-63750D01*
X79133Y-63786D01*
X79225Y-63824D01*
X79324Y-63825D01*
X79774Y-63825D01*
X79866Y-63787D01*
X79936Y-63716D01*
X79962Y-63655D01*
X80105Y-63714D01*
X80217Y-63715D01*
X80235Y-63727D01*
X80350Y-63750D01*
X82996Y-63750D01*
X83033Y-63786D01*
X83125Y-63824D01*
X83224Y-63825D01*
X83674Y-63825D01*
X83766Y-63787D01*
X83836Y-63716D01*
X83874Y-63624D01*
X83875Y-63525D01*
X83875Y-63275D01*
X83837Y-63183D01*
X83803Y-63150D01*
X83836Y-63116D01*
X83874Y-63024D01*
X83874Y-62999D01*
X84012Y-62862D01*
X84012Y-62862D01*
X84077Y-62764D01*
X84099Y-62650D01*
X84100Y-62650D01*
X84100Y-60560D01*
X84077Y-60445D01*
X84012Y-60347D01*
X84012Y-60347D01*
X83912Y-60247D01*
X83889Y-60232D01*
X83899Y-60180D01*
X83900Y-60180D01*
X83900Y-59614D01*
X83966Y-59587D01*
X84036Y-59516D01*
X84039Y-59510D01*
X84039Y-59510D01*
X84112Y-59462D01*
X84212Y-59362D01*
X84212Y-59362D01*
X84277Y-59264D01*
X84290Y-59198D01*
X84290Y-67420D01*
X84290Y-67420D01*
G37*
G54D25*
X84290Y-67420D02*
X84262Y-67377D01*
X84262Y-67377D01*
X83222Y-66337D01*
X83124Y-66272D01*
X83010Y-66250D01*
X82920Y-66250D01*
X83040Y-66131D01*
X83104Y-65974D01*
X83105Y-65889D01*
X83542Y-65452D01*
X83542Y-65452D01*
X83607Y-65354D01*
X83629Y-65240D01*
X83630Y-65240D01*
X83630Y-65151D01*
X83690Y-65091D01*
X83754Y-64934D01*
X83755Y-64765D01*
X83690Y-64609D01*
X83571Y-64489D01*
X83414Y-64425D01*
X83374Y-64425D01*
X83375Y-64285D01*
X83302Y-64111D01*
X83169Y-63977D01*
X82994Y-63905D01*
X82805Y-63904D01*
X82631Y-63977D01*
X82608Y-64000D01*
X80174Y-64000D01*
X80125Y-63999D01*
X79575Y-63999D01*
X79534Y-64017D01*
X78858Y-64017D01*
X78849Y-64008D01*
X78757Y-63970D01*
X78657Y-63969D01*
X78342Y-63969D01*
X78251Y-64007D01*
X78241Y-64017D01*
X77905Y-64017D01*
X77905Y-64005D01*
X77871Y-63925D01*
X77924Y-63925D01*
X78016Y-63887D01*
X78086Y-63816D01*
X78124Y-63724D01*
X78125Y-63625D01*
X78125Y-63375D01*
X78087Y-63283D01*
X78053Y-63250D01*
X78086Y-63216D01*
X78124Y-63124D01*
X78124Y-63115D01*
X78228Y-63220D01*
X78385Y-63284D01*
X78474Y-63285D01*
X78857Y-63661D01*
X78857Y-63662D01*
X78859Y-63662D01*
X78859Y-63663D01*
X78882Y-63678D01*
X78955Y-63727D01*
X78957Y-63727D01*
X78957Y-63727D01*
X78988Y-63733D01*
X79070Y-63750D01*
X79096Y-63750D01*
X79133Y-63786D01*
X79225Y-63824D01*
X79324Y-63825D01*
X79774Y-63825D01*
X79866Y-63787D01*
X79936Y-63716D01*
X79962Y-63655D01*
X80105Y-63714D01*
X80217Y-63715D01*
X80235Y-63727D01*
X80350Y-63750D01*
X82996Y-63750D01*
X83033Y-63786D01*
X83125Y-63824D01*
X83224Y-63825D01*
X83674Y-63825D01*
X83766Y-63787D01*
X83836Y-63716D01*
X83874Y-63624D01*
X83875Y-63525D01*
X83875Y-63275D01*
X83837Y-63183D01*
X83803Y-63150D01*
X83836Y-63116D01*
X83874Y-63024D01*
X83874Y-62999D01*
X84012Y-62862D01*
X84012Y-62862D01*
X84077Y-62764D01*
X84099Y-62650D01*
X84100Y-62650D01*
X84100Y-60560D01*
X84077Y-60445D01*
X84012Y-60347D01*
X84012Y-60347D01*
X83912Y-60247D01*
X83889Y-60232D01*
X83899Y-60180D01*
X83900Y-60180D01*
X83900Y-59614D01*
X83966Y-59587D01*
X84036Y-59516D01*
X84039Y-59510D01*
X84039Y-59510D01*
X84112Y-59462D01*
X84212Y-59362D01*
X84212Y-59362D01*
X84277Y-59264D01*
X84290Y-59198D01*
X84290Y-67420D01*
G54D10*
G36*
X84290Y-72350D02*
X72519Y-72350D01*
X72519Y-71087D01*
X72552Y-71167D01*
X72623Y-71237D01*
X72715Y-71275D01*
X72947Y-71275D01*
X73010Y-71212D01*
X73010Y-70780D01*
X73002Y-70780D01*
X73002Y-70680D01*
X73010Y-70680D01*
X73010Y-70247D01*
X72947Y-70184D01*
X72715Y-70184D01*
X72623Y-70222D01*
X72552Y-70292D01*
X72519Y-70372D01*
X72519Y-59218D01*
X72532Y-59284D01*
X72597Y-59382D01*
X72754Y-59539D01*
X72754Y-59764D01*
X72792Y-59856D01*
X72863Y-59926D01*
X72955Y-59964D01*
X73054Y-59965D01*
X73300Y-59965D01*
X73260Y-60005D01*
X73175Y-60004D01*
X73019Y-60069D01*
X72899Y-60188D01*
X72835Y-60345D01*
X72834Y-60514D01*
X72899Y-60670D01*
X73018Y-60790D01*
X73037Y-60797D01*
X72667Y-61167D01*
X72602Y-61265D01*
X72580Y-61380D01*
X72580Y-63170D01*
X72602Y-63284D01*
X72667Y-63382D01*
X73047Y-63762D01*
X73047Y-63762D01*
X73106Y-63801D01*
X73112Y-63816D01*
X73183Y-63886D01*
X73275Y-63924D01*
X73374Y-63925D01*
X73700Y-63925D01*
X73700Y-63945D01*
X73517Y-64127D01*
X73452Y-64225D01*
X73430Y-64340D01*
X73430Y-66060D01*
X73452Y-66174D01*
X73517Y-66272D01*
X73882Y-66636D01*
X73829Y-66688D01*
X73765Y-66845D01*
X73764Y-67014D01*
X73829Y-67170D01*
X73948Y-67290D01*
X74105Y-67354D01*
X74274Y-67355D01*
X74430Y-67290D01*
X74471Y-67250D01*
X75154Y-67250D01*
X73777Y-68627D01*
X73690Y-68756D01*
X73685Y-68782D01*
X73660Y-68910D01*
X73660Y-70207D01*
X73623Y-70222D01*
X73560Y-70285D01*
X73496Y-70222D01*
X73404Y-70184D01*
X73172Y-70184D01*
X73110Y-70247D01*
X73110Y-70680D01*
X73117Y-70680D01*
X73117Y-70780D01*
X73110Y-70780D01*
X73110Y-71212D01*
X73172Y-71275D01*
X73404Y-71275D01*
X73496Y-71237D01*
X73560Y-71174D01*
X73622Y-71237D01*
X73714Y-71275D01*
X73814Y-71275D01*
X74404Y-71275D01*
X74496Y-71237D01*
X74560Y-71174D01*
X74622Y-71237D01*
X74714Y-71275D01*
X74814Y-71275D01*
X75404Y-71275D01*
X75496Y-71237D01*
X75560Y-71174D01*
X75622Y-71237D01*
X75714Y-71275D01*
X75814Y-71275D01*
X76404Y-71275D01*
X76496Y-71237D01*
X76560Y-71174D01*
X76622Y-71237D01*
X76714Y-71275D01*
X76814Y-71275D01*
X77404Y-71275D01*
X77496Y-71237D01*
X77560Y-71174D01*
X77622Y-71237D01*
X77714Y-71275D01*
X77814Y-71275D01*
X78404Y-71275D01*
X78496Y-71237D01*
X78560Y-71174D01*
X78622Y-71237D01*
X78714Y-71275D01*
X78814Y-71275D01*
X79404Y-71275D01*
X79496Y-71237D01*
X79560Y-71174D01*
X79622Y-71237D01*
X79714Y-71275D01*
X79814Y-71275D01*
X80404Y-71275D01*
X80496Y-71237D01*
X80560Y-71174D01*
X80622Y-71237D01*
X80714Y-71275D01*
X80814Y-71275D01*
X81404Y-71275D01*
X81496Y-71237D01*
X81560Y-71174D01*
X81622Y-71237D01*
X81714Y-71275D01*
X81814Y-71275D01*
X82404Y-71275D01*
X82496Y-71237D01*
X82560Y-71174D01*
X82622Y-71237D01*
X82714Y-71275D01*
X82814Y-71275D01*
X83404Y-71275D01*
X83496Y-71237D01*
X83560Y-71174D01*
X83622Y-71237D01*
X83714Y-71275D01*
X83814Y-71275D01*
X84290Y-71275D01*
X84290Y-72350D01*
X84290Y-72350D01*
G37*
G54D25*
X84290Y-72350D02*
X72519Y-72350D01*
X72519Y-71087D01*
X72552Y-71167D01*
X72623Y-71237D01*
X72715Y-71275D01*
X72947Y-71275D01*
X73010Y-71212D01*
X73010Y-70780D01*
X73002Y-70780D01*
X73002Y-70680D01*
X73010Y-70680D01*
X73010Y-70247D01*
X72947Y-70184D01*
X72715Y-70184D01*
X72623Y-70222D01*
X72552Y-70292D01*
X72519Y-70372D01*
X72519Y-59218D01*
X72532Y-59284D01*
X72597Y-59382D01*
X72754Y-59539D01*
X72754Y-59764D01*
X72792Y-59856D01*
X72863Y-59926D01*
X72955Y-59964D01*
X73054Y-59965D01*
X73300Y-59965D01*
X73260Y-60005D01*
X73175Y-60004D01*
X73019Y-60069D01*
X72899Y-60188D01*
X72835Y-60345D01*
X72834Y-60514D01*
X72899Y-60670D01*
X73018Y-60790D01*
X73037Y-60797D01*
X72667Y-61167D01*
X72602Y-61265D01*
X72580Y-61380D01*
X72580Y-63170D01*
X72602Y-63284D01*
X72667Y-63382D01*
X73047Y-63762D01*
X73047Y-63762D01*
X73106Y-63801D01*
X73112Y-63816D01*
X73183Y-63886D01*
X73275Y-63924D01*
X73374Y-63925D01*
X73700Y-63925D01*
X73700Y-63945D01*
X73517Y-64127D01*
X73452Y-64225D01*
X73430Y-64340D01*
X73430Y-66060D01*
X73452Y-66174D01*
X73517Y-66272D01*
X73882Y-66636D01*
X73829Y-66688D01*
X73765Y-66845D01*
X73764Y-67014D01*
X73829Y-67170D01*
X73948Y-67290D01*
X74105Y-67354D01*
X74274Y-67355D01*
X74430Y-67290D01*
X74471Y-67250D01*
X75154Y-67250D01*
X73777Y-68627D01*
X73690Y-68756D01*
X73685Y-68782D01*
X73660Y-68910D01*
X73660Y-70207D01*
X73623Y-70222D01*
X73560Y-70285D01*
X73496Y-70222D01*
X73404Y-70184D01*
X73172Y-70184D01*
X73110Y-70247D01*
X73110Y-70680D01*
X73117Y-70680D01*
X73117Y-70780D01*
X73110Y-70780D01*
X73110Y-71212D01*
X73172Y-71275D01*
X73404Y-71275D01*
X73496Y-71237D01*
X73560Y-71174D01*
X73622Y-71237D01*
X73714Y-71275D01*
X73814Y-71275D01*
X74404Y-71275D01*
X74496Y-71237D01*
X74560Y-71174D01*
X74622Y-71237D01*
X74714Y-71275D01*
X74814Y-71275D01*
X75404Y-71275D01*
X75496Y-71237D01*
X75560Y-71174D01*
X75622Y-71237D01*
X75714Y-71275D01*
X75814Y-71275D01*
X76404Y-71275D01*
X76496Y-71237D01*
X76560Y-71174D01*
X76622Y-71237D01*
X76714Y-71275D01*
X76814Y-71275D01*
X77404Y-71275D01*
X77496Y-71237D01*
X77560Y-71174D01*
X77622Y-71237D01*
X77714Y-71275D01*
X77814Y-71275D01*
X78404Y-71275D01*
X78496Y-71237D01*
X78560Y-71174D01*
X78622Y-71237D01*
X78714Y-71275D01*
X78814Y-71275D01*
X79404Y-71275D01*
X79496Y-71237D01*
X79560Y-71174D01*
X79622Y-71237D01*
X79714Y-71275D01*
X79814Y-71275D01*
X80404Y-71275D01*
X80496Y-71237D01*
X80560Y-71174D01*
X80622Y-71237D01*
X80714Y-71275D01*
X80814Y-71275D01*
X81404Y-71275D01*
X81496Y-71237D01*
X81560Y-71174D01*
X81622Y-71237D01*
X81714Y-71275D01*
X81814Y-71275D01*
X82404Y-71275D01*
X82496Y-71237D01*
X82560Y-71174D01*
X82622Y-71237D01*
X82714Y-71275D01*
X82814Y-71275D01*
X83404Y-71275D01*
X83496Y-71237D01*
X83560Y-71174D01*
X83622Y-71237D01*
X83714Y-71275D01*
X83814Y-71275D01*
X84290Y-71275D01*
X84290Y-72350D01*
M02*
