M48
;DRILL file {Pcbnew (2013-07-07 BZR 4022)-stable} date 12/18/2014 6:53:21 AM
;FORMAT={-:-/ absolute / inch / decimal}
FMAT,2
INCH,TZ
T1C0.025
T2C0.035
T3C0.043
%
G90
G05
M72
T1
X7.271Y-5.388
X7.298Y-5.523
X7.326Y-6.043
X7.337Y-5.581
X7.365Y-5.79
X7.405Y-5.19
X7.419Y-6.693
X7.445Y-5.705
X7.45Y-4.76
X7.455Y-6.305
X7.474Y-5.48
X7.506Y-6.945
X7.512Y-4.662
X7.518Y-6.377
X7.525Y-5.58
X7.525Y-6.033
X7.572Y-6.277
X7.575Y-5.755
X7.575Y-6.03
X7.58Y-5.25
X7.59Y-4.51
X7.59Y-5.01
X7.6125Y-6.4785
X7.625Y-5.545
X7.68Y-5.71
X7.696Y-6.3
X7.697Y-6.024
X7.727Y-5.552
X7.739Y-6.849
X7.748Y-6.409
X7.834Y-5.777
X7.835Y-5.505
X7.835Y-5.837
X7.84Y-4.38
X7.84Y-5.15
X7.847Y-5.678
X7.847Y-6.286
X7.857Y-6.744
X7.885Y-5.415
X7.897Y-6.613
X7.902Y-6.392
X7.909Y-6.875
X7.925Y-5.627
X7.934Y-6.486
X7.938Y-5.388
X7.94Y-5.535
X7.95Y-5.685
X7.955Y-5.31
X7.975Y-4.36
X7.999Y-6.037
X8.019Y-5.697
X8.019Y-6.329
X8.055Y-5.54
X8.08Y-6.307
X8.086Y-5.957
X8.09Y-4.51
X8.09Y-5.01
X8.095Y-5.345
X8.109Y-6.821
X8.132Y-4.606
X8.15Y-5.745
X8.15Y-6.025
X8.195Y-5.355
X8.2Y-5.545
X8.205Y-6.82
X8.23Y-4.76
X8.242Y-5.977
X8.245Y-5.27
X8.249Y-6.73
X8.25Y-5.495
X8.251Y-6.784
X8.268Y-6.589
X8.285Y-6.853
X8.333Y-6.485
X8.347Y-6.086
X8.366Y-6.82
X8.38Y-5.27
X8.381Y-5.556
T2
X7.322Y-5.33
X7.447Y-6.367
X7.753Y-6.744
X7.816Y-6.606
X7.84Y-4.76
X8.29Y-6.438
X8.295Y-5.33
T3
X7.306Y-7.073
X7.406Y-7.073
X7.506Y-7.073
X7.606Y-7.073
X7.706Y-7.073
X7.806Y-7.073
X7.906Y-7.073
X8.006Y-7.073
X8.106Y-7.073
X8.206Y-7.073
X8.306Y-7.073
X8.406Y-7.073
T0
M30
